<?xml version="1.0" encoding="UTF-8"?>
<!-- Created with "sPlan" (http://www.abacom-online.de) -->
<svg width="40.3mm" height="40.3mm" version="1.1" viewBox="0 0 403 403" xmlns="http://www.w3.org/2000/svg" xmlns:cc="http://creativecommons.org/ns#" xmlns:dc="http://purl.org/dc/elements/1.1/" xmlns:rdf="http://www.w3.org/1999/02/22-rdf-syntax-ns#">
 <title>детский инженерный клуб</title>
 <defs>
  <style type="text/css"><![CDATA[
polyline {stroke-linecap:round; stroke-linejoin:round}
polygon {stroke-linecap:round; stroke-linejoin:round}
path {stroke-linecap:round; stroke-linejoin:round}
circle {stroke-linecap:round; stroke-linejoin:round}
]]></style>
 </defs>
 <circle cx="201.5" cy="201.5" r="201" fill="#fff" stroke="#f9f9f9"/>
 <g fill="none">
  <polyline transform="translate(-40,-39.5)" points="241.47 333.72 241.47 439.19" stroke="#9dceff" stroke-width="4"/>
  <circle cx="201.47" cy="201.04" r="185.43" stroke="#0088ea" stroke-width="6"/>
  <g stroke="#9dceff" stroke-width="4">
   <polyline transform="translate(-40,-39.5)" points="170.06 308.8 80.71 167.28"/>
   <polyline transform="translate(-40,-39.5)" points="287.83 352.72 399.09 167.28"/>
   <polyline transform="translate(-40,-39.5)" points="57.94 167.28 80.71 167.28"/>
   <polyline transform="translate(-40,-39.5)" points="399.09 167.28 423.9 167.28"/>
  </g>
 </g>
 <polygon transform="translate(-40,-39.5)" points="329 356 147 356 147 320 329 320" fill="#9dceff" stroke="#9dceff" stroke-width="2"/>
 <polygon transform="translate(-40,-39.5)" points="176 319 168 274 141 291" fill="#9dceff" stroke="#9dceff"/>
 <g fill="#00274d" stroke="#00274d" stroke-width="0">
  <path d="m86.62 126.41h0.89l0.88-0.11 0.79-0.35 0.69-0.57 0.6-0.81 0.51-1.03 0.42-1.26 0.32-1.49 0.23-1.72 0.14-1.94 0.06-2.16 0.03-35.38h8.74l-0.03 32.96-0.05 2.47-0.15 2.32-0.24 2.17-0.34 2.03-0.43 1.88-0.54 1.73-0.67 1.57-0.8 1.41-0.93 1.26-1.05 1.1-1.2 0.91-1.33 0.72-1.49 0.5-1.62 0.31-1.78 0.1h-1.66zm-1.04 0h8.79l-0.03 19.21h-8.78zm0 0h32.93l-0.02 9.16h-32.92zm26.96 0h8.77l-0.03 19.21h-8.77zm-5.22-46.82h9.54l-0.06 55.98h-9.54zm-8.26 0h12.8v9.16h-12.8zm28.03 0h9.54l-0.06 55.98h-9.54zm4.18 46.66h20.64l-0.02 9.32h-20.63zm0.02-23.14h18.72v9.29h-18.72zm0.03-23.52h20.63v9.31h-20.63zm30.61 4.7h9.54l-0.06 51.28h-9.54zm-9.25-4.7h28.04v9.16h-28.04zm44.78 56.56-1.64-0.07-1.55-0.2-1.44-0.33-1.35-0.47-1.25-0.61-1.15-0.73-1.03-0.85-0.92-0.98-0.81-1.09-0.69-1.22-0.57-1.33-0.44-1.43-0.32-1.54-0.19-1.65-0.07-1.75 0.03-28.65 0.07-1.75 0.2-1.64 0.32-1.54 0.45-1.43 0.57-1.34 0.7-1.21 0.81-1.1 0.92-0.97 1.03-0.86 1.15-0.72 1.25-0.61 1.35-0.46 1.44-0.34 1.55-0.2 1.64-0.06 1.65 0.06 1.54 0.2 1.46 0.34 1.35 0.46 1.26 0.61 1.15 0.73 1.04 0.85 0.92 0.98 0.8 1.1 0.69 1.23 0.57 1.34 0.44 1.44 0.31 1.54 0.18 1.65 0.06 1.75v4.51h-9.66v-4.51l-0.02-0.56-0.05-0.52-0.09-0.5-0.11-0.46-0.16-0.43-0.18-0.39-0.22-0.36-0.26-0.32-0.29-0.28-0.33-0.24-0.36-0.2-0.38-0.16-0.41-0.11-0.44-0.07-0.46-0.02-0.45 0.02-0.43 0.06-0.4 0.11-0.38 0.15-0.35 0.19-0.32 0.24-0.3 0.27-0.26 0.32-0.22 0.35-0.2 0.4-0.16 0.43-0.12 0.46-0.09 0.49-0.06 0.53-0.01 0.55-0.03 28.65 0.01 0.55 0.06 0.53 0.09 0.49 0.12 0.45 0.16 0.43 0.2 0.39 0.22 0.35 0.26 0.31 0.29 0.27 0.32 0.24 0.35 0.19 0.38 0.15 0.4 0.11 0.43 0.06 0.45 0.02 0.47-0.02 0.45-0.06 0.42-0.11 0.38-0.15 0.36-0.19 0.32-0.24 0.28-0.27 0.26-0.31 0.22-0.35 0.18-0.39 0.16-0.43 0.12-0.46 0.08-0.5 0.05-0.53 0.02-0.56v-4.51h9.66v4.51l-0.06 1.75-0.19 1.64-0.32 1.54-0.44 1.44-0.57 1.34-0.69 1.23-0.81 1.1-0.92 0.97-1.04 0.86-1.15 0.73-1.26 0.61-1.35 0.47-1.46 0.33-1.54 0.2zm34.1-31.11 5.22-25.45h9.81l-7.88 32.07zm-0.24 5.74 8.12-5.51 9.44 30.3h-10.08zm-13.98-31.19h9.54l-0.06 55.98h-9.54zm4.2 23.61h14.83v9.15h-14.83zm49.58 32.33 0.04-38.11 0.85 1.15-12.83 36.96h-7.7l0.06-55.94h8.7l-0.05 38.42-0.89-1.16 12.94-37.26h7.63l-0.05 55.94zm35.15 0 0.04-38.11 0.85 1.15-12.83 36.96h-7.7l0.06-55.94h8.7l-0.05 38.42-0.89-1.16 12.94-37.26h7.63l-0.05 55.94zm4.88-71.68-0.11 2.13-0.31 1.93-0.54 1.73-0.74 1.53-0.96 1.34-1.15 1.11-1.32 0.86-1.5 0.61-1.66 0.37-1.85 0.13h-0.29l-1.84-0.13-1.67-0.37-1.49-0.61-1.32-0.86-1.15-1.11-0.96-1.34-0.74-1.53-0.53-1.73-0.32-1.93-0.11-2.13 7.5 0.07 0.03 0.87 0.08 0.79 0.14 0.7 0.19 0.63 0.26 0.55 0.3 0.46 0.34 0.35 0.39 0.26 0.42 0.15 0.48 0.05h0.29l0.47-0.05 0.43-0.15 0.39-0.26 0.34-0.35 0.3-0.46 0.25-0.55 0.2-0.63 0.14-0.7 0.08-0.79 0.03-0.87z"/>
  <path d="m44.07 230.53 0.04-38.11 0.85 1.15-12.83 36.96h-7.7l0.06-55.94h8.7l-0.05 38.42-0.89-1.16 12.95-37.26h7.62l-0.05 55.94zm32.65-55.94h9.56l-0.06 55.98h-9.56zm-17.08 0h9.54l-0.06 55.98h-9.54zm4.51 23.9h18.75v8.98h-18.75zm58.2 1.55 8.49-25.45h9.83l-11.16 32.07zm-0.04 5.74 8.7-3.89 11.95 28.68h-10.1zm-22.1-3.89 8.69 3.89-10.22 24.79h-10.08zm-9.21-27.3h9.81l8.06 25.45-7.19 6.62zm12.83 23.61h23.55v9.15h-23.55zm7.23-23.61h9.54l-0.06 55.98h-9.54zm35.03 0h9.54l-0.06 55.98h-9.54zm4.18 46.66h20.64l-0.02 9.32h-20.63zm0.02-23.14h18.72v9.29h-18.72zm0.03-23.52h20.63v9.31h-20.63zm42.3 0h9.56l-0.06 55.98h-9.56zm-17.08 0h9.54l-0.06 55.98h-9.54zm4.51 23.9h18.75v8.98h-18.75zm28.74-23.9h9.54l-0.06 55.98h-9.54zm4.18 46.66h20.64l-0.02 9.32h-20.63zm0.02-23.14h18.72v9.29h-18.72zm0.03-23.52h20.63v9.31h-20.63zm29.66 25.11h9.88l0.45-0.03 0.43-0.06 0.4-0.11 0.38-0.15 0.35-0.2 0.32-0.23 0.29-0.28 0.27-0.32 0.23-0.35 0.21-0.4 0.17-0.43 0.13-0.46 0.1-0.49 0.05-0.53 0.02-0.55v-6.58l-0.02-0.59-0.05-0.55-0.09-0.52-0.12-0.48-0.16-0.45-0.2-0.41-0.22-0.37-0.26-0.32-0.29-0.29-0.32-0.24-0.35-0.2-0.38-0.16-0.4-0.11-0.44-0.06-0.47-0.03h-9.88v-9.16h10.15l1.62 0.06 1.52 0.18 1.43 0.29 1.33 0.41 1.23 0.53 1.13 0.64 1.01 0.74 0.9 0.86 0.79 0.97 0.68 1.08 0.55 1.17 0.43 1.27 0.31 1.36 0.18 1.45 0.06 1.54v9.44l-0.07 1.51-0.19 1.42-0.32 1.33-0.44 1.23-0.57 1.15-0.68 1.05-0.79 0.94-0.91 0.84-1.01 0.74-1.13 0.62-1.23 0.52-1.33 0.41-1.42 0.28-1.51 0.18-1.6 0.05h-10.15zm-4.44-25.11h9.54l-0.06 55.98h-9.54zm51.28 0h9.56l-0.06 55.98h-9.56zm-17.08 0h9.54l-0.06 55.98h-9.54zm4.51 23.9h18.75v8.98h-18.75zm33.58 22.92h7.27l0.57-0.03 0.54-0.08 0.51-0.13 0.47-0.19 0.44-0.24 0.41-0.3 0.36-0.34 0.33-0.39 0.29-0.43 0.25-0.49 0.21-0.53 0.16-0.57 0.12-0.61 0.07-0.65 0.02-0.69v-4.45l-0.02-0.72-0.06-0.68-0.11-0.63-0.16-0.59-0.2-0.54-0.24-0.5-0.29-0.45-0.33-0.4-0.37-0.35-0.41-0.31-0.45-0.25-0.47-0.19-0.51-0.14-0.54-0.09-0.57-0.02h-7.28l0.02-9.16h9.01l1.54 0.06 1.44 0.18 1.36 0.3 1.26 0.43 1.17 0.55 1.07 0.66 0.96 0.77 0.86 0.89 0.75 0.99 0.65 1.1 0.53 1.2 0.42 1.29 0.29 1.39 0.18 1.47 0.06 1.57-0.01 8.86-0.06 1.54-0.18 1.45-0.3 1.36-0.42 1.27-0.54 1.17-0.65 1.08-0.75 0.97-0.87 0.86-0.97 0.76-1.08 0.65-1.17 0.53-1.27 0.42-1.35 0.29-1.44 0.18-1.53 0.06h-9.01zm-4.84-46.82h9.54l-0.06 55.98h-9.54zm38.35 55.98h-9.54l0.06-55.98h9.54zm25.88-0.04 0.04-38.11 0.85 1.15-12.83 36.96h-7.7l0.06-55.94h8.7l-0.05 38.42-0.89-1.16 12.95-37.26h7.62l-0.05 55.94zm4.88-71.68-0.11 2.13-0.31 1.93-0.54 1.73-0.74 1.53-0.96 1.34-1.15 1.11-1.32 0.86-1.5 0.61-1.66 0.37-1.85 0.13h-0.29l-1.84-0.13-1.67-0.37-1.49-0.61-1.32-0.86-1.15-1.11-0.96-1.34-0.74-1.53-0.53-1.73-0.32-1.93-0.11-2.13 7.5 0.07 0.03 0.87 0.08 0.79 0.14 0.7 0.19 0.63 0.26 0.55 0.3 0.46 0.34 0.35 0.39 0.26 0.42 0.15 0.48 0.05h0.29l0.47-0.05 0.43-0.15 0.39-0.26 0.34-0.35 0.3-0.46 0.25-0.55 0.2-0.63 0.14-0.7 0.08-0.79 0.03-0.87z"/>
  <path d="m151.76 295.04 5.22-25.45h9.82l-7.89 32.07zm-0.24 5.74 8.12-5.51 9.44 30.3h-10.08zm-13.98-31.19h9.54l-0.06 55.98h-9.54zm4.2 23.61h14.83v9.15h-14.83zm29.95 23.32 0.45-0.02 0.41-0.05 0.39-0.09 0.34-0.11 0.32-0.16 0.29-0.18 0.25-0.23 0.22-0.25 0.19-0.29 0.16-0.33 0.14-0.36 0.1-0.4 0.07-0.44 0.04-0.47 0.02-0.51 0.04-43.04h9.55l-0.05 43.51-0.05 1.63-0.16 1.52-0.27 1.4-0.37 1.28-0.48 1.16-0.59 1.04-0.7 0.94-0.81 0.82-0.92 0.71-1.03 0.6-1.14 0.5-1.25 0.38-1.37 0.27-1.48 0.17-1.59 0.05h-0.73zm19.11-46.93h9.54l-0.06 55.98h-9.54zm-9.28 0h14.52v9.16h-14.52zm22.47 0h10.05l7.39 41.66-6.08 6.28zm20.99 46.63-0.3 1.21-0.38 1.14-0.47 1.07-0.56 1-0.64 0.93-0.72 0.85-0.8 0.77-0.88 0.68-0.95 0.6-1.02 0.51-1.09 0.42-1.15 0.33-1.21 0.23-1.27 0.14-1.32 0.05h-3.94l0.02-9.59h3.93l0.61-0.03 0.57-0.09 0.55-0.15 0.53-0.21 0.5-0.27 0.46-0.33 0.44-0.37 0.4-0.43 0.37-0.49 0.34-0.53 0.31-0.58 0.26-0.63 0.23-0.66 0.18-0.71 0.14-0.75 6.74-40.74h9.64zm18.1 0.19h8.62l0.57-0.03 0.54-0.08 0.51-0.13 0.47-0.19 0.43-0.24 0.41-0.3 0.36-0.34 0.33-0.39 0.29-0.43 0.25-0.49 0.21-0.53 0.16-0.57 0.11-0.61 0.07-0.65 0.03-0.69v-4.45l-0.02-0.72-0.06-0.68-0.11-0.63-0.16-0.59-0.2-0.54-0.24-0.5-0.28-0.45-0.33-0.4-0.37-0.35-0.41-0.31-0.44-0.25-0.48-0.19-0.51-0.14-0.54-0.09-0.57-0.02h-8.63l0.02-9.16h10.36l1.54 0.06 1.44 0.18 1.36 0.3 1.26 0.43 1.17 0.55 1.07 0.66 0.96 0.77 0.86 0.89 0.75 0.99 0.65 1.1 0.53 1.2 0.42 1.29 0.29 1.39 0.18 1.47 0.06 1.57-0.01 8.86-0.06 1.54-0.18 1.45-0.3 1.36-0.42 1.27-0.54 1.17-0.65 1.08-0.75 0.97-0.87 0.86-0.97 0.76-1.08 0.65-1.17 0.53-1.26 0.42-1.36 0.29-1.44 0.18-1.53 0.06h-10.36zm-4.84-46.82h9.54l-0.06 55.98h-9.54zm5.73 0h19.56v9.16h-19.56z"/>
 </g>
 <metadata>
  <rdf:RDF>
   <cc:Work rdf:about="">
    <dc:title>детский инженерный клуб</dc:title>
   </cc:Work>
  </rdf:RDF>
 </metadata>
</svg>
