<?xml version="1.0" encoding="UTF-8" standalone="no"?>
<!-- Created with "sPlan" (http://www.abacom-online.de) -->

<svg
   version="1.1"
   width="40.10215mm"
   height="40.102154mm"
   viewBox="0 0 401.0215 401.02153"
   id="svg15"
   sodipodi:docname="favicon.svg"
   inkscape:version="1.4.2 (f4327f4, 2025-05-13)"
   inkscape:export-filename="logo1.svg"
   inkscape:export-xdpi="300"
   inkscape:export-ydpi="300"
   inkscape:export-batch-path="C:\Users\User\Desktop"
   inkscape:export-batch-name="logo1"
   xmlns:inkscape="http://www.inkscape.org/namespaces/inkscape"
   xmlns:sodipodi="http://sodipodi.sourceforge.net/DTD/sodipodi-0.dtd"
   xmlns="http://www.w3.org/2000/svg"
   xmlns:svg="http://www.w3.org/2000/svg"
   xmlns:rdf="http://www.w3.org/1999/02/22-rdf-syntax-ns#"
   xmlns:cc="http://creativecommons.org/ns#"
   xmlns:dc="http://purl.org/dc/elements/1.1/">
  <sodipodi:namedview
     id="namedview15"
     pagecolor="#ffffff"
     bordercolor="#000000"
     borderopacity="0.25"
     inkscape:showpageshadow="2"
     inkscape:pageopacity="0.0"
     inkscape:pagecheckerboard="true"
     inkscape:deskcolor="#d1d1d1"
     inkscape:document-units="mm"
     inkscape:zoom="2.8284271"
     inkscape:cx="50.558135"
     inkscape:cy="150.43697"
     inkscape:window-width="1920"
     inkscape:window-height="1124"
     inkscape:window-x="1590"
     inkscape:window-y="-10"
     inkscape:window-maximized="1"
     inkscape:current-layer="svg15" />
  <title
     id="title1">logo</title>
  <defs
     id="defs1">
    <style
       type="text/css"
       id="style1"><![CDATA[
polyline {stroke-linecap:round; stroke-linejoin:round}
polygon {stroke-linecap:round; stroke-linejoin:round}
path {stroke-linecap:round; stroke-linejoin:round}
circle {stroke-linecap:round; stroke-linejoin:round}
]]></style>
    <inkscape:path-effect
       effect="fillet_chamfer"
       id="path-effect1-5-1"
       is_visible="true"
       lpeversion="1"
       nodesatellites_param="F,0,1,1,0,6.6972654,0,1 @ F,0,0,1,0,0,0,1 @ F,0,1,1,0,6.6972654,0,1 @ F,0,0,1,0,0,0,1 @ F,0,0,1,0,0,0,1 @ F,0,0,1,0,0,0,1 @ F,0,0,1,0,0,0,1 @ F,0,0,1,0,0,0,1"
       radius="2.5"
       unit="px"
       method="auto"
       mode="F"
       chamfer_steps="1"
       flexible="false"
       use_knot_distance="true"
       apply_no_radius="true"
       apply_with_radius="true"
       only_selected="true"
       hide_knots="false" />
    <inkscape:path-effect
       effect="fillet_chamfer"
       id="path-effect1-5-1-9"
       is_visible="true"
       lpeversion="1"
       nodesatellites_param="F,0,1,1,0,6.6972654,0,1 @ F,0,0,1,0,0,0,1 @ F,0,1,1,0,6.6972654,0,1 @ F,0,0,1,0,0,0,1 @ F,0,0,1,0,0,0,1 @ F,0,0,1,0,0,0,1 @ F,0,0,1,0,0,0,1 @ F,0,0,1,0,0,0,1"
       radius="2.5"
       unit="px"
       method="auto"
       mode="F"
       chamfer_steps="1"
       flexible="false"
       use_knot_distance="true"
       apply_no_radius="true"
       apply_with_radius="true"
       only_selected="true"
       hide_knots="false" />
    <inkscape:path-effect
       effect="fillet_chamfer"
       id="path-effect1-5-1-5"
       is_visible="true"
       lpeversion="1"
       nodesatellites_param="F,0,1,1,0,6.6972654,0,1 @ F,0,0,1,0,0,0,1 @ F,0,1,1,0,6.6972654,0,1 @ F,0,0,1,0,0,0,1 @ F,0,0,1,0,0,0,1 @ F,0,0,1,0,0,0,1 @ F,0,0,1,0,0,0,1 @ F,0,0,1,0,0,0,1"
       radius="2.5"
       unit="px"
       method="auto"
       mode="F"
       chamfer_steps="1"
       flexible="false"
       use_knot_distance="true"
       apply_no_radius="true"
       apply_with_radius="true"
       only_selected="true"
       hide_knots="false" />
  </defs>
  <rect
     style="fill:#00c22d;fill-opacity:1;stroke:#000000;stroke-width:1.85208327;stroke-dasharray:none;stroke-opacity:1"
     id="rect1"
     width="399.69858"
     height="399.69861"
     x="0.66145831"
     y="0.66145831"
     rx="399.69809" />
  <polyline
     points="240.63 319.08 240.63 438.18"
     fill="none"
     stroke="#d6d6d6"
     stroke-width="4"
     id="polyline1"
     transform="matrix(1.000007,0,0,0.95727863,-39.655355,-26.428217)"
     style="stroke:#ff0000;stroke-width:13.4057;stroke-dasharray:none;stroke-opacity:1" />
  <ellipse
     cx="200.97633"
     cy="200.36157"
     fill="none"
     stroke="#d6d6d6"
     stroke-width="5.99812"
     id="circle1"
     rx="157.23109"
     ry="157.01283"
     style="stroke:#ff0000;stroke-width:18.5208;stroke-dasharray:none;stroke-opacity:1" />
  <polyline
     points="180.08 291.84 104.32 171.85"
     fill="none"
     stroke="#d6d6d6"
     stroke-width="4"
     id="polyline2"
     transform="matrix(0.87055795,0,0,0.86934959,-24.319154,-17.983425)"
     style="stroke:#ff0000;stroke-width:15.2067;stroke-dasharray:none;stroke-opacity:1" />
  <polyline
     points="279.93 329.08 374.27 171.85"
     fill="none"
     stroke="#d6d6d6"
     stroke-width="4"
     id="polyline3"
     transform="matrix(1.0007023,0,0,0.89714889,-39.576057,-22.26831)"
     style="stroke:#ff0000;stroke-width:13.962;stroke-dasharray:none;stroke-opacity:1" />
  <polyline
     points="42.61 171.85 104.32 171.85"
     fill="none"
     stroke="#d6d6d6"
     stroke-width="4"
     id="polyline4"
     transform="matrix(0.74476452,0,0,0.99861896,-12.140771,-39.37689)"
     style="stroke:#ff0000;stroke-width:14.5984;stroke-dasharray:none;stroke-opacity:1" />
  <polyline
     points="374.27 171.85 437.70 171.85"
     fill="none"
     stroke="#d6d6d6"
     stroke-width="4"
     id="polyline5"
     transform="matrix(0.73057584,0,0,0.99861896,61.62305,-39.37689)"
     style="fill:#ff0000;fill-opacity:1;stroke:#ff0000;stroke-width:14.8872;stroke-dasharray:none;stroke-opacity:1" />
  <polygon
     points="314,301 314,332 160,332 160,301 "
     fill="#d6d6d6"
     stroke="#d6d6d6"
     stroke-width="2"
     id="polygon5"
     transform="matrix(1.1267941,0,0,0.99478259,-66.07387,-48.746011)"
     style="fill:#ff0000;fill-opacity:1;stroke:#ff0000;stroke-width:2.00138;stroke-dasharray:none;stroke-opacity:1" />
  <polygon
     points="185,301 178,262 155,277 "
     fill="#d6d6d6"
     stroke="#d6d6d6"
     stroke-width="1"
     id="polygon6"
     transform="matrix(1.000007,0,0,0.99861896,-45.725714,-52.005375)"
     style="fill:#ff0000;fill-opacity:1;stroke:#ff0000;stroke-width:4.00275;stroke-dasharray:none;stroke-opacity:1" />
  <path
     fill="rgb(0,0,0)"
     stroke="#000000"
     stroke-width="0"
     d="m 16.105056,189.58648 0.02,-13.9607 h 10.35007 l 0.490005,0.03 0.450003,0.10985 0.430002,0.16976 0.390004,0.23967 0.370001,0.31956 0.320004,0.35949 0.25,0.39945 0.180003,0.42941 0.1,0.46936 0.04,0.49931 -0.01,7.30989 -0.04,0.65908 -0.119999,0.59917 -0.190003,0.52926 -0.270002,0.46936 -0.350001,0.41942 -0.400005,0.33953 -0.4,0.26964 -0.410005,0.18973 -0.420002,0.10984 -0.430003,0.04 z m 0,4.27408 h 10.350071 l 1.28001,-0.0898 1.190008,-0.27961 1.110007,-0.45937 1.030007,-0.63911 0.940007,-0.82887 0.840005,-0.96865 0.640005,-1.03856 0.470003,-1.11847 0.280002,-1.19833 0.09,-1.27823 0.01,-7.30989 -0.09,-1.11846 -0.280002,-1.07851 -0.460003,-1.03856 -0.650005,-0.98864 -0.830005,-0.94869 -0.890007,-0.76892 -1.000006,-0.58919 -1.110008,-0.4294 -1.220009,-0.25965 -1.33001,-0.0798 H 13.715039 l -0.890007,0.07 -0.690004,0.2197 -0.500004,0.37947 -0.290001,0.51928 -0.100002,0.66909 -0.04,32.79463 0.03,0.4394 0.09,0.38947 0.149999,0.3595 0.210002,0.30956 0.270003,0.27962 0.310001,0.22967 0.330001,0.17976 0.340005,0.12983 0.360001,0.0699 0.380003,0.03 0.400003,-0.02 0.370002,-0.0798 0.340003,-0.11984 0.320003,-0.17975 0.290001,-0.2197 0.250002,-0.26963 0.190002,-0.31956 0.14,-0.3595 0.09,-0.39945 0.02,-0.44938 z m 32.550226,5.38257 h 12.370076 l 2.47002,7.46968 0.14,0.39944 0.2,0.3595 0.26,0.29957 0.32002,0.25965 0.38001,0.19972 0.24999,0.05 0.22,0.04 0.2,0.02 0.17,0.02 h 0.15 l 0.36,-0.02 0.35,-0.0798 0.33001,-0.12981 0.33002,-0.16976 0.31999,-0.22969 0.28,-0.26963 0.22,-0.30957 0.15,-0.32955 0.09,-0.36949 0.04,-0.38947 -0.01,-0.10983 -0.02,-0.0998 -0.02,-0.0998 -0.02,-0.0898 -0.04,-0.0998 -11.000077,-32.99437 -0.240002,-0.54924 -0.350003,-0.4394 -0.460002,-0.30956 -0.560004,-0.17976 -0.660004,-0.0599 -0.630006,0.07 -0.550004,0.2097 -0.460003,0.33954 -0.380003,0.48931 -0.290002,0.62915 -10.950076,32.5949 -0.07,0.16978 -0.05,0.14978 -0.04,0.1398 -0.03,0.12984 -0.01,0.10983 0.04,0.39945 0.09,0.36951 0.150002,0.32953 0.22,0.29959 0.280004,0.26963 0.320001,0.22969 0.330001,0.17974 0.330003,0.11983 0.350003,0.0798 0.360003,0.02 0.660004,-0.06 0.560004,-0.19973 0.460002,-0.31955 0.350004,-0.45937 0.250002,-0.58919 z m 10.980077,-4.27409 h -9.580068 l 4.810034,-15.50855 z m 83.870581,11.03473 0.04,-32.79463 -0.03,-0.32956 -0.06,-0.30957 -0.11,-0.28959 -0.16,-0.2896 -0.2,-0.25964 -0.25,-0.23967 -0.29,-0.17976 -0.34001,-0.12981 -0.39,-0.0798 -0.43,-0.03 -0.32001,0.02 -0.30001,0.05 -0.29,0.0898 -0.27,0.11984 -0.25,0.14979 -0.23,0.16977 -0.21,0.15978 -0.16999,0.15978 -0.14,0.15978 -0.12,0.14978 -13.69009,26.06397 0.03,-25.15521 -0.03,-0.27961 -0.08,-0.26964 -0.13001,-0.25964 -0.19001,-0.24965 -0.23,-0.22969 -0.29,-0.20971 -0.31,-0.15978 -0.35,-0.10986 -0.37999,-0.0698 -0.42,-0.02 -0.47001,0.02 -0.41001,0.0698 -0.37,0.11984 -0.33,0.15979 -0.27,0.21969 -0.22,0.23967 -0.18,0.23967 -0.12,0.25963 -0.08,0.25965 -0.02,0.26964 -0.04,32.79463 0.03,0.46937 0.08,0.42939 0.13,0.38946 0.19,0.34952 0.24,0.30958 0.28,0.26962 0.3,0.19972 0.33,0.1498 0.36,0.0798 0.37003,0.03 0.52999,-0.06 0.48999,-0.17975 0.45,-0.30958 0.42,-0.41941 0.39,-0.55923 13.70012,-26.30363 -0.03,25.15521 0.03,0.4394 0.09,0.38947 0.15,0.3595 0.21,0.30956 0.26999,0.27962 0.31,0.22967 0.32,0.17976 0.33,0.12983 0.35,0.0699 0.36002,0.03 0.4,-0.02 0.37,-0.0798 0.34,-0.11984 0.32001,-0.17975 0.29,-0.2197 0.25,-0.26963 0.2,-0.31956 0.14,-0.3595 0.08,-0.39945 z m 30.01022,-5.48243 0.02,-21.86973 -0.09,-1.11846 -0.28001,-1.07851 -0.46001,-1.03856 -0.65001,-0.98864 -0.82999,-0.94869 -0.89,-0.76892 -1.00002,-0.58919 -1.11,-0.4294 -1.22002,-0.25965 -1.32999,-0.0798 h -7.31006 l -1.34,0.0798 -1.24003,0.26962 -1.13999,0.44939 -1.04002,0.61915 -0.94,0.7989 -0.8,0.90873 -0.63002,0.96866 -0.44,1.01858 -0.27,1.06853 -0.09,1.11846 -0.02,21.86973 0.09,1.29822 0.28,1.21832 0.46,1.12844 0.64002,1.04855 0.83,0.95866 0.96,0.8089 1.05002,0.62912 1.11999,0.44938 1.20002,0.26963 1.28001,0.0898 h 7.31005 l 1.28,-0.0898 1.20002,-0.26963 1.11,-0.44938 1.02002,-0.62912 0.94,-0.8089 0.83999,-0.96866 0.65,-1.04854 0.47002,-1.12844 0.28001,-1.20833 z m -4.84004,0 -0.04,0.65911 -0.12,0.58918 -0.19,0.53926 -0.28,0.48932 -0.35,0.41942 -0.40002,0.34951 -0.4,0.27962 -0.42,0.18974 -0.41,0.11983 -0.43,0.04 h -7.31005 l -0.45001,-0.04 -0.43,-0.10985 -0.41,-0.19972 -0.40002,-0.26962 -0.39,-0.35951 -0.34,-0.41942 -0.27,-0.47933 -0.19,-0.53927 -0.11,-0.59916 -0.04,-0.65911 0.02,-21.86973 0.04,-0.49931 0.1,-0.46936 0.18,-0.42941 0.24,-0.39945 0.31,-0.35949 0.37,-0.31956 0.40003,-0.23967 0.42999,-0.16976 0.47,-0.10985 0.51001,-0.03 h 7.31006 l 0.48999,0.03 0.45,0.10985 0.43,0.16976 0.39001,0.23967 0.37001,0.31956 0.32,0.35949 0.25,0.39945 0.18,0.42941 0.1,0.46936 0.04,0.49931 z m 23.90016,-24.89556 -0.04,30.37799 0.03,0.4394 0.09,0.38947 0.15,0.3595 0.21,0.30956 0.27,0.27962 0.31,0.22967 0.32003,0.17976 0.32999,0.12983 0.35,0.0699 0.36,0.03 0.39,-0.02 0.37,-0.0798 0.35,-0.11984 0.33,-0.17975 0.30003,-0.2197 0.26,-0.26963 0.2,-0.30956 0.15,-0.35952 0.09,-0.40943 0.02,-0.44938 0.04,-30.37799 h 6.67002 l 0.45003,-0.03 0.41,-0.0898 0.36,-0.1498 0.31,-0.21969 0.27,-0.26963 0.22,-0.30956 0.18,-0.31956 0.12,-0.32956 0.07,-0.3395 0.03,-0.35951 -0.02,-0.24967 -0.07,-0.23967 -0.1,-0.24964 -0.15,-0.24967 -0.19,-0.24964 -0.25,-0.2297 -0.31,-0.16975 -0.38,-0.11983 -0.44,-0.0798 -0.51003,-0.02 h -18.21012 l -0.51,0.02 -0.45,0.0798 -0.39,0.12981 -0.32,0.17975 -0.25,0.22969 -0.2,0.24965 -0.15,0.24965 -0.11,0.24966 -0.07,0.23967 -0.02,0.22969 0.02,0.38945 0.08,0.3695 0.14,0.33951 0.19,0.31955 0.24,0.28962 0.29,0.25964 0.32,0.19972 0.36,0.1398 0.4,0.0798 0.43,0.03 z m 25.73019,10.33572 0.02,-10.33572 h 12.22007 l 0.43002,-0.03 0.4,-0.0898 0.35,-0.1498 0.32,-0.2097 0.27,-0.26962 0.23,-0.30957 0.18,-0.31956 0.13,-0.33955 0.08,-0.3395 0.03,-0.35951 -0.03,-0.24967 -0.06,-0.23967 -0.11,-0.24964 -0.14,-0.24967 -0.19,-0.24964 -0.25,-0.2297 -0.31,-0.16975 -0.38,-0.11983 -0.44,-0.0798 -0.51002,-0.02 h -14.63009 l -0.89003,0.0698 -0.68999,0.2197 -0.5,0.37947 -0.28999,0.51928 -0.1,0.66909 -0.04,32.90449 0.1,0.82885 0.3,0.6491 0.48999,0.45936 0.69,0.27962 0.89002,0.0898 h 14.63009 l 0.43,-0.03 0.40002,-0.0898 0.35,-0.1498 0.32,-0.2097 0.28,-0.26963 0.23,-0.30957 0.18,-0.31957 0.13,-0.33953 0.07,-0.33952 0.03,-0.35951 -0.02,-0.23967 -0.07,-0.24965 -0.1,-0.23966 -0.15,-0.23967 -0.2,-0.23967 -0.24,-0.2197 -0.31,-0.15977 -0.38,-0.11984 -0.44,-0.07 -0.51002,-0.03 h -12.22007 l 0.02,-14.01063 h 8.53005 l 0.45,-0.03 0.41001,-0.0898 0.36,-0.13982 0.31002,-0.19973 0.27,-0.25964 0.23,-0.29957 0.17,-0.31956 0.12,-0.33954 0.08,-0.35951 0.02,-0.37947 -0.02,-0.24964 -0.06,-0.23967 -0.11,-0.23967 -0.15,-0.24967 -0.19,-0.22968 -0.25,-0.21969 -0.31002,-0.16977 -0.38,-0.10985 -0.44001,-0.0798 -0.51,-0.02 z m 34.93024,-0.27962 -8.93005,-13.48135 -0.25003,-0.30957 -0.30999,-0.23967 -0.39,-0.16978 -0.46001,-0.0998 -0.53,-0.03 -0.44,0.02 -0.40001,0.0798 -0.37001,0.11983 -0.33,0.16975 -0.29,0.2297 -0.24999,0.24964 -0.2,0.23967 -0.13,0.23967 -0.09,0.2297 -0.02,0.22966 v 0.10984 l 0.01,0.12983 0.01,0.12984 0.02,0.13978 0.03,0.15978 0.04,0.14981 0.05,0.15978 0.07,0.1398 0.09,0.14979 0.1,0.13982 10.13007,15.18898 -10.17007,15.23893 -0.15,0.23967 -0.12,0.2197 -0.08,0.20971 -0.05,0.17974 -0.02,0.15978 0.03,0.39945 0.09,0.36949 0.15,0.34951 0.22,0.32955 0.26999,0.29959 0.32,0.25963 0.32,0.20972 0.35001,0.13981 0.35001,0.0898 0.37,0.03 0.49,-0.05 0.45001,-0.12982 0.4,-0.21968 0.35,-0.31956 0.30002,-0.39946 8.96005,-13.87081 8.88005,13.86083 0.31,0.40944 0.35002,0.30955 0.39,0.22969 0.43,0.12982 0.48,0.05 0.41,-0.03 0.38,-0.0898 0.36,-0.14979 0.34002,-0.19974 0.32,-0.25963 0.27,-0.30957 0.22001,-0.31957 0.15,-0.32952 0.09,-0.35951 0.03,-0.36951 -0.01,-0.19971 -0.05,-0.17976 -0.07,-0.16976 -0.1,-0.1398 -0.14001,-0.13981 -10.23007,-15.4786 10.16007,-15.179 0.17001,-0.27961 0.14,-0.27962 0.09,-0.26964 0.06,-0.26962 0.02,-0.26961 -0.03,-0.24967 -0.08,-0.23967 -0.14,-0.24964 -0.19001,-0.24967 -0.25,-0.24964 -0.29,-0.2297 -0.33001,-0.16975 -0.37001,-0.11983 -0.4,-0.0798 -0.44,-0.02 -0.58,0.04 -0.5,0.11984 -0.41002,0.20971 -0.34,0.28959 -0.26,0.36949 z m 38.45026,0.27962 h -13.38011 l 0.02,-12.75236 -0.03,-0.27961 -0.08,-0.26964 -0.13,-0.25964 -0.19,-0.24965 -0.23,-0.22969 -0.28999,-0.20971 -0.31,-0.15978 -0.35,-0.10986 -0.38,-0.0699 -0.42002,-0.02 -0.47,0.02 -0.41,0.0699 -0.37,0.11984 -0.33,0.15979 -0.27001,0.21969 -0.22,0.23967 -0.18,0.23967 -0.12,0.25963 -0.08,0.25965 -0.02,0.26964 -0.04,32.79463 0.03,0.4394 0.09,0.38947 0.15,0.3595 0.21,0.30956 0.27001,0.27962 0.31,0.22967 0.33,0.17976 0.34,0.12983 0.36,0.0699 0.38,0.03 0.40002,-0.02 0.37,-0.0798 0.34,-0.11984 0.32,-0.17975 0.29,-0.2197 0.24999,-0.26963 0.19,-0.31956 0.14,-0.3595 0.09,-0.39945 0.02,-0.44938 0.02,-15.81812 h 13.38011 l -0.02,15.81812 0.03,0.42942 0.09,0.39945 0.14002,0.34951 0.2,0.29958 0.26,0.26963 0.3,0.21969 0.32,0.16977 0.34,0.12982 0.35999,0.07 0.37999,0.02 0.36002,-0.02 0.34001,-0.0798 0.34,-0.12981 0.32,-0.17976 0.3,-0.22968 0.28,-0.27961 0.21,-0.31956 0.15,-0.35951 0.09,-0.40942 0.03,-0.4494 0.04,-32.79465 -0.03,-0.25961 -0.08,-0.25965 -0.12,-0.24966 -0.18,-0.23967 -0.23,-0.22968 -0.28,-0.20972 -0.31,-0.15977 -0.36,-0.11983 -0.39,-0.0699 -0.44003,-0.02 -0.44999,0.02 -0.39999,0.0699 -0.36,0.11983 -0.32,0.16977 -0.27,0.20971 -0.22,0.23967 -0.18,0.23967 -0.12001,0.24965 -0.08,0.23968 -0.02,0.25961 z m 34.82025,20.04227 0.04,-32.79463 -0.03,-0.32956 -0.06,-0.30957 -0.11,-0.28959 -0.16002,-0.2896 -0.2,-0.25964 -0.25001,-0.23967 -0.28998,-0.17976 -0.34,-0.12981 -0.39,-0.0798 -0.43,-0.03 -0.32,0.02 -0.3,0.05 -0.29002,0.0898 -0.27001,0.11984 -0.24999,0.14979 -0.23,0.16977 -0.21,0.15978 -0.17,0.15978 -0.14,0.15978 -0.12,0.14978 -13.69009,26.06397 0.03,-25.15521 -0.03,-0.27961 -0.08,-0.26964 -0.13,-0.25964 -0.19,-0.24965 -0.23002,-0.22969 -0.29001,-0.20971 -0.30999,-0.15978 -0.35,-0.10986 -0.38,-0.0698 -0.42,-0.02 -0.47,0.02 -0.41002,0.0698 -0.37002,0.11984 -0.32999,0.15979 -0.26999,0.21969 -0.22,0.23967 -0.18,0.23967 -0.12,0.25963 -0.08,0.25965 -0.02,0.26964 -0.04,32.79463 0.03,0.46937 0.08,0.42939 0.13,0.38946 0.19,0.34952 0.24,0.30958 0.27999,0.26962 0.29999,0.19972 0.33001,0.1498 0.36003,0.0798 0.37,0.03 0.53,-0.06 0.49,-0.17975 0.45,-0.30958 0.42,-0.41941 0.39002,-0.55923 13.70009,-26.30363 -0.03,25.15521 0.03,0.4394 0.09,0.38947 0.15,0.3595 0.21,0.30956 0.27,0.27962 0.31,0.22967 0.31999,0.17976 0.33001,0.12983 0.35002,0.0699 0.36,0.03 0.4,-0.02 0.37,-0.0798 0.34,-0.11984 0.31999,-0.17975 0.28999,-0.2197 0.25001,-0.26963 0.20001,-0.31956 0.14001,-0.3595 0.08,-0.39945 z m 11.80008,-19.47306 0.02,-13.32157 -0.03,-0.25965 -0.08,-0.25964 -0.13,-0.23967 -0.19,-0.23967 -0.23,-0.23966 -0.29,-0.19972 -0.31,-0.15978 -0.35002,-0.11984 -0.38001,-0.07 -0.41999,-0.02 -0.44,0.02 -0.4,0.07 -0.36,0.11984 -0.32,0.14978 -0.29002,0.20972 -0.24001,0.22968 -0.18,0.23966 -0.13999,0.24966 -0.08,0.25964 -0.02,0.25965 -0.04,32.79463 0.03,0.4394 0.09,0.38947 0.14999,0.3595 0.21001,0.30956 0.27001,0.27962 0.31001,0.22967 0.33,0.17976 0.34,0.12983 0.36,0.0699 0.38,0.03 0.39999,-0.02 0.37001,-0.0798 0.34002,-0.11984 0.32,-0.17975 0.29,-0.2197 0.25,-0.26963 0.19,-0.31956 0.14,-0.3595 0.09,-0.39945 0.02,-0.44938 0.02,-13.6711 3.59001,-3.90459 10.27007,18.72411 0.31001,0.46935 0.36002,0.37949 0.42,0.25962 0.47,0.15978 0.52,0.06 0.38,-0.03 0.36999,-0.0798 0.35002,-0.12982 0.34001,-0.18975 0.31,-0.23967 0.28,-0.28959 0.21,-0.31956 0.16,-0.33954 0.09,-0.38944 0.03,-0.40946 -0.01,-0.11983 -0.03,-0.12981 -0.05,-0.12983 -0.08,-0.13979 -0.09,-0.13982 -11.14007,-19.8725 10.68007,-10.60534 0.27,-0.31956 0.22,-0.33954 0.15,-0.33952 0.09,-0.34953 0.03,-0.36947 -0.03,-0.22969 -0.07,-0.22968 -0.13,-0.24966 -0.18,-0.24966 -0.24,-0.24965 -0.28,-0.23967 -0.32,-0.17975 -0.36002,-0.12981 -0.41001,-0.0798 -0.44999,-0.02 -0.43,0.02 -0.38,0.0699 -0.34,0.11984 -0.3,0.15979 -0.26002,0.21969 z m 32.55022,12.71242 h 12.3701 l 2.47001,7.46968 0.14,0.39944 0.2,0.3595 0.25999,0.29957 0.32,0.25965 0.38001,0.19972 0.25002,0.05 0.22,0.04 0.2,0.02 0.17,0.02 h 0.15 l 0.36,-0.02 0.35,-0.0798 0.32999,-0.12981 0.33,-0.16976 0.32,-0.22969 0.28002,-0.26963 0.22,-0.30957 0.15001,-0.32955 0.09,-0.36949 0.04,-0.38947 -0.01,-0.10983 -0.02,-0.0998 -0.02,-0.0998 -0.02,-0.0898 -0.04,-0.0998 -11.00008,-32.99437 -0.24002,-0.54924 -0.35001,-0.4394 -0.45998,-0.30956 -0.56,-0.17976 -0.66,-0.0599 -0.63002,0.07 -0.55001,0.2097 -0.45999,0.33954 -0.38,0.48931 -0.29001,0.62915 -10.95007,32.5949 -0.07,0.16978 -0.05,0.14978 -0.04,0.1398 -0.03,0.12984 -0.01,0.10983 0.04,0.39945 0.09,0.36951 0.15,0.32953 0.22,0.29959 0.28,0.26963 0.32,0.22969 0.33,0.17974 0.32999,0.11983 0.35001,0.0798 0.36002,0.02 0.66,-0.06 0.56001,-0.19973 0.46,-0.31955 0.34998,-0.45937 0.25001,-0.58919 z m 10.98008,-4.27409 h -9.58006 l 4.81004,-15.50855 z"
     id="path6"
     style="display:none;fill:#ff0000" />
  <path
     fill="rgb(0,0,0)"
     stroke="#000000"
     stroke-width="0"
     d="m 11.985026,234.5443 0.08,-0.22967 0.130002,-0.17976 0.160002,-0.12981 0.209999,-0.0798 0.240003,-0.02 h 8.160056 l 0.610004,0.05 0.530004,0.16978 0.470004,0.26962 0.400004,0.37947 0.330001,0.48933 0.13,0.24964 0.09,0.25964 0.07,0.26963 0.05,0.27961 0.01,0.2896 v 0.13982 l -0.02,0.1398 -0.01,0.13981 -0.03,0.12982 -0.03,0.13981 -2.120015,7.84913 -0.09,0.21971 -0.130002,0.17974 -0.160002,0.12982 -0.199999,0.07 -0.230002,0.03 -0.130002,-0.01 -0.13,-0.03 -0.120002,-0.05 -0.12,-0.0699 -0.1,-0.0898 -0.100001,-0.0998 -0.07,-0.10984 -0.06,-0.11984 -0.03,-0.11983 -0.01,-0.11984 v -0.05 l 0.01,-0.05 0.01,-0.05 0.01,-0.05 0.01,-0.06 2.000012,-7.36981 0.03,-0.12983 0.02,-0.1298 0.02,-0.12981 0.01,-0.11984 0.01,-0.11983 -0.06,-0.3795 -0.16,-0.29958 -0.280001,-0.20971 -0.390004,-0.12982 -0.500004,-0.04 h -1.760011 l -2.590018,9.50685 -0.09,0.21971 -0.120003,0.17974 -0.160001,0.12982 -0.2,0.07 -0.240002,0.03 -0.130002,-0.01 -0.119999,-0.03 -0.120002,-0.05 -0.120001,-0.07 -0.11,-0.0898 -0.09,-0.0998 -0.08,-0.10984 -0.05,-0.11984 -0.03,-0.11983 -0.01,-0.11983 v -0.05 -0.05 l 0.01,-0.05 0.01,-0.05 0.01,-0.0601 2.480015,-9.05748 h -3.540022 l -2.580019,9.50685 -0.09,0.21971 -0.130002,0.17974 -0.160002,0.12982 -0.2,0.0701 -0.230002,0.03 -0.1400022,-0.01 -0.119999,-0.03 -0.120002,-0.05 -0.12,-0.07 -0.100001,-0.0898 -0.100002,-0.10985 -0.07,-0.10985 -0.05,-0.10984 -0.04,-0.11983 -0.01,-0.12983 0.01,-0.04 v -0.05 l 0.01,-0.05 0.01,-0.06 0.01,-0.0598 z m 22.010153,3.48519 0.05,-0.19972 0.04,-0.18974 0.03,-0.17975 0.02,-0.15978 v -0.14979 l -0.08,-0.54926 -0.250001,-0.41941 -0.420005,-0.29959 -0.580003,-0.17975 -0.750005,-0.06 -0.980007,0.0898 -0.820006,0.2896 -0.660004,0.47934 -0.510003,0.66907 -0.360004,0.85882 -0.230001,0.79889 h 5.290038 z m 1.770012,0.04 -0.690004,2.49654 h -7.030049 l -0.460004,1.73759 -0.03,0.12983 -0.03,0.12983 -0.01,0.12981 -0.02,0.11983 v 0.11984 l 0.05,0.39944 0.170003,0.30959 0.280001,0.21967 0.380002,0.12983 0.500003,0.05 h 4.170031 l 0.31,0.03 0.240003,0.10984 0.170002,0.16976 0.1,0.23967 0.03,0.31956 -0.03,0.30958 -0.1,0.23967 -0.170002,0.17975 -0.240003,0.0998 -0.31,0.04 h -4.620033 l -0.430003,-0.03 -0.410004,-0.0998 -0.380001,-0.15978 -0.350003,-0.2197 -0.330004,-0.2896 -0.290001,-0.32953 -0.220001,-0.35951 -0.160001,-0.37948 -0.09,-0.39945 -0.03,-0.42939 v -0.1498 l 0.01,-0.13981 0.02,-0.13981 0.03,-0.1398 0.03,-0.12983 1.140008,-4.24412 0.270002,-0.85882 0.320001,-0.74897 0.380004,-0.65908 0.440002,-0.53925 0.490003,-0.44939 0.550004,-0.34951 0.650006,-0.27962 0.730004,-0.19971 0.820006,-0.10986 0.910007,-0.04 0.550003,0.03 0.510005,0.11984 0.480002,0.18974 0.440003,0.25963 0.400002,0.33952 0.350003,0.38947 0.280001,0.42941 0.190002,0.45935 0.120001,0.49933 0.03,0.53925 v 0.18974 l -0.01,0.17974 -0.03,0.17976 -0.03,0.17974 z m 8.610061,1.96726 1.930013,4.5537 0.02,0.07 0.02,0.0701 0.01,0.0699 0.01,0.0699 v 0.0798 l -0.03,0.29959 -0.100001,0.22969 -0.170001,0.16976 -0.230002,0.0898 -0.300002,0.04 -0.220001,-0.02 -0.180001,-0.0699 -0.160002,-0.0998 -0.129999,-0.1398 -0.100002,-0.18975 -1.640011,-3.89461 -4.000026,4.15426 -0.110002,0.0898 -0.120002,0.07 -0.130001,0.06 -0.130001,0.03 -0.15,0.01 -0.300004,-0.04 -0.23,-0.0998 -0.170001,-0.16977 -0.100001,-0.23967 -0.03,-0.30956 0.01,-0.12983 0.02,-0.11984 0.05,-0.10983 0.07,-0.10985 0.08,-0.0998 4.510031,-4.6935 -1.940012,-4.57369 -0.02,-0.0598 -0.02,-0.07 -0.01,-0.06 -0.01,-0.0699 v -0.0798 l 0.01,-0.12982 0.03,-0.12983 0.05,-0.11981 0.07,-0.10987 0.09,-0.0998 0.1,-0.0898 0.110001,-0.07 0.120002,-0.05 0.129999,-0.03 0.140003,-0.01 0.210001,0.02 0.18,0.06 0.160001,0.0998 0.130001,0.14979 0.100001,0.17974 1.650012,3.92459 4.020027,-4.16426 0.100002,-0.0998 0.12,-0.0798 0.110002,-0.05 0.13,-0.03 0.13,-0.01 0.310004,0.03 0.240001,0.0998 0.17,0.15978 0.110003,0.22968 0.03,0.29958 -0.01,0.14981 -0.03,0.1298 -0.04,0.11984 -0.07,0.11983 -0.08,0.0998 z m 13.870096,0.52928 h -5.280037 l -1.200007,4.5637 -0.09,0.22967 -0.12,0.17975 -0.170002,0.12982 -0.2,0.0798 -0.250002,0.03 -0.130001,-0.01 -0.12,-0.03 -0.120003,-0.05 -0.12,-0.07 -0.100002,-0.0898 -0.1,-0.10985 -0.07,-0.10985 -0.06,-0.10984 -0.03,-0.11983 -0.01,-0.12983 v -0.04 l 0.01,-0.05 v -0.05 l 0.01,-0.0601 0.02,-0.06 2.740018,-10.15596 0.09,-0.22969 0.120002,-0.17973 0.17,-0.11984 0.200002,-0.0798 0.240001,-0.02 0.130002,0.01 0.130001,0.02 0.119999,0.05 0.110001,0.07 0.110001,0.0798 0.09,0.0998 0.08,0.10984 0.05,0.10985 0.03,0.12982 v 0.12983 0.06 0.05 0.04 l -0.01,0.05 -0.01,0.03 -1.080008,3.88463 h 5.300037 l 1.200009,-4.31403 0.08,-0.2197 0.130001,-0.16975 0.160002,-0.12983 0.199992,-0.07 0.240004,-0.02 0.3,0.03 0.24,0.0998 0.17,0.16978 0.10001,0.22967 0.04,0.30957 -0.01,0.05 v 0.06 0.05 l -0.01,0.04 -0.01,0.04 -2.740018,10.16593 -0.09,0.21971 -0.12,0.17974 -0.170002,0.12982 -0.200002,0.0699 -0.230002,0.03 -0.140001,-0.01 -0.120001,-0.03 -0.12,-0.06 -0.11,-0.07 -0.110002,-0.0898 -0.100001,-0.0998 -0.07,-0.11983 -0.05,-0.10985 -0.03,-0.12982 -0.02,-0.12981 0.01,-0.04 v -0.05 l 0.01,-0.06 0.01,-0.05 0.01,-0.0599 z m 14.1601,-6.03166 0.09,-0.22969 0.12,-0.17973 0.16,-0.11984 0.2,-0.0798 0.24,-0.02 0.31,0.03 0.24,0.0998 0.17,0.16978 0.1,0.22967 0.03,0.30957 v 0.05 l -0.01,0.06 v 0.05 l -0.01,0.04 -0.01,0.04 -2.70003,9.94624 -0.12,0.29957 -0.17,0.23967 -0.22,0.16977 -0.27,0.0998 -0.33,0.04 h -4.39003 l -0.43,-0.03 -0.41,-0.0998 -0.37999,-0.15978 -0.35001,-0.2197 -0.33002,-0.2896 -0.29,-0.32953 -0.22,-0.35951 -0.16,-0.37948 -0.09,-0.39945 -0.03,-0.42939 v -0.1498 l 0.01,-0.13981 0.02,-0.13981 0.03,-0.1398 0.03,-0.12983 2.12002,-7.84914 0.09,-0.22969 0.12,-0.17973 0.16,-0.11984 0.2,-0.0798 0.24,-0.02 0.31,0.03 0.24,0.0998 0.16001,0.16978 0.11001,0.22967 0.03,0.29958 v 0.0599 l -0.01,0.05 v 0.05 l -0.01,0.05 -0.01,0.04 -1.99002,7.3698 -0.03,0.12982 -0.03,0.11984 -0.01,0.12981 -0.02,0.10986 v 0.11984 l 0.05,0.38944 0.17,0.29959 0.28,0.2097 0.38,0.12983 0.5,0.05 h 3.53005 z m 11.34008,10.61531 -0.09,0.21971 -0.13,0.17974 -0.16,0.12982 -0.19999,0.07 -0.24001,0.03 -0.13,-0.01 -0.12001,-0.03 -0.12001,-0.06 -0.12,-0.07 -0.11,-0.0898 -0.09,-0.0998 -0.07,-0.11983 -0.06,-0.10985 -0.03,-0.12982 -0.01,-0.12981 v -0.04 l 0.01,-0.05 v -0.06 l 0.01,-0.05 0.02,-0.0599 1.08003,-4.10431 h -3.52005 l -0.44,-0.03 -0.4,-0.0998 -0.38,-0.14978 -0.36,-0.21971 -0.32999,-0.2796 -0.28002,-0.31956 -0.22001,-0.34952 -0.16,-0.36949 -0.09,-0.39945 -0.04,-0.41942 0.01,-0.14978 0.01,-0.13981 0.02,-0.1398 0.02,-0.13982 0.03,-0.12981 0.76003,-2.70627 0.08,-0.22968 0.12999,-0.16975 0.16,-0.11984 0.2,-0.0798 0.24,-0.02 0.3,0.03 0.24,0.0998 0.17,0.15978 0.1,0.22968 0.03,0.28961 v 0.05 0.05 0.05 l -0.01,0.04 -0.01,0.04 -0.62,2.23692 -0.04,0.14978 -0.03,0.12983 -0.02,0.10983 -0.01,0.10986 v 0.0898 l 0.05,0.37949 0.17,0.29958 0.28,0.20971 0.4,0.11982 0.50002,0.05 h 3.52002 l 1.22,-4.31403 0.08,-0.2197 0.13,-0.16975 0.16,-0.12983 0.20002,-0.0699 0.24001,-0.02 0.29999,0.03 0.23999,0.0998 0.17,0.16978 0.1,0.22967 0.04,0.30957 -0.01,0.05 v 0.06 0.05 l -0.01,0.04 -0.01,0.04 z m 12.60011,-7.12014 0.05,-0.19972 0.04,-0.18974 0.03,-0.17975 0.02,-0.15978 v -0.14979 l -0.08,-0.54926 -0.25001,-0.41941 -0.42003,-0.29959 -0.58,-0.17975 -0.75,-0.06 -0.98,0.0898 -0.82002,0.2896 -0.66,0.47934 -0.50999,0.66907 -0.35999,0.85882 -0.23001,0.79889 h 5.29004 z m 1.76998,0.04 -0.69,2.49654 h -7.03005 l -0.46,1.73759 -0.03,0.12983 -0.03,0.12983 -0.01,0.12981 -0.02,0.11983 v 0.11984 l 0.05,0.39944 0.17,0.30959 0.28,0.21967 0.38002,0.12983 0.5,0.05 h 4.17001 l 0.31,0.03 0.24002,0.10984 0.17001,0.16976 0.10001,0.23967 0.03,0.31956 -0.03,0.30958 -0.10001,0.23967 -0.17001,0.17975 -0.24002,0.0998 -0.31,0.04 h -4.62001 l -0.43002,-0.03 -0.41,-0.0998 -0.38,-0.15978 -0.35,-0.2197 -0.33,-0.2896 -0.29,-0.32953 -0.21999,-0.35951 -0.16001,-0.37948 -0.09,-0.39945 -0.03,-0.42939 v -0.1498 l 0.01,-0.13981 0.02,-0.13981 0.03,-0.1398 0.03,-0.12983 1.14001,-4.24412 0.27,-0.85882 0.32,-0.74897 0.38,-0.65908 0.44002,-0.53925 0.49,-0.44939 0.54999,-0.34951 0.65,-0.27962 0.73,-0.19971 0.82002,-0.10986 0.91,-0.04 0.55,0.03 0.51002,0.11984 0.48002,0.18974 0.43998,0.25963 0.4,0.33952 0.35,0.38947 0.28,0.42941 0.19,0.45935 0.12,0.49933 0.03,0.53925 v 0.18974 l -0.01,0.17974 -0.03,0.17976 -0.03,0.17974 z m 8.000062,7.70933 h -2.87003 l -0.43,-0.03 -0.41,-0.0998 -0.37999,-0.15978 -0.34999,-0.2197 -0.33001,-0.2896 -0.29002,-0.32953 -0.22,-0.35951 -0.16,-0.37948 -0.09,-0.39945 -0.03,-0.42939 v -0.1498 l 0.01,-0.13981 0.02,-0.13981 0.03,-0.1398 0.03,-0.12983 1.37002,-5.08296 0.21999,-0.69905 0.26,-0.60915 0.31,-0.51928 0.36,-0.44937 0.4,-0.34952 0.44003,-0.27961 0.51,-0.21971 0.58,-0.14979 0.64,-0.0898 0.72,-0.03 h 2.42001 l 0.30001,0.03 0.24002,0.10986 0.17,0.16975 0.1,0.23967 0.04,0.31956 -0.04,0.30956 -0.1,0.23967 -0.17,0.17976 -0.24002,0.0998 -0.31001,0.04 h -2.87001 l -0.66,0.0601 -0.55,0.20971 -0.44,0.32954 -0.34,0.46936 -0.24002,0.60916 -1.36001,5.04302 -0.03,0.1398 -0.03,0.11984 -0.02,0.10985 -0.01,0.0898 -0.01,0.0701 0.06,0.40942 0.16,0.31956 0.28,0.2297 0.39,0.1398 0.50001,0.05 h 2.42002 l 0.31,0.03 0.24002,0.10984 0.16001,0.16977 0.11,0.23966 0.03,0.31956 -0.03,0.30958 -0.11,0.23967 -0.16001,0.17975 -0.24002,0.0998 z m 9.08007,-5.47244 -2.28002,1.74759 -0.82998,3.09571 -0.09,0.21971 -0.12,0.17974 -0.16002,0.12982 -0.2,0.07 -0.24001,0.03 -0.14,-0.01 -0.12,-0.03 -0.12,-0.05 -0.12,-0.07 -0.1,-0.0898 -0.1,-0.10985 -0.07,-0.10985 -0.05,-0.10984 -0.04,-0.11983 -0.01,-0.12983 0.01,-0.04 v -0.05 l 0.01,-0.05 0.01,-0.06 0.01,-0.06 2.75002,-10.15596 0.08,-0.22969 0.13,-0.17973 0.16,-0.11984 0.2,-0.0798 0.24,-0.02 0.3,0.03 0.24002,0.0998 0.17001,0.16978 0.1,0.22967 0.03,0.30957 v 0.05 0.06 0.05 l -0.01,0.04 -0.01,0.04 -1.18003,4.38393 6.90006,-5.17284 0.09,-0.10984 0.1,-0.0798 0.1,-0.06 0.11,-0.03 0.11,-0.01 0.13,0.01 0.12,0.03 0.12,0.05 0.11,0.07 0.11,0.0998 0.1,0.0998 0.08,0.10985 0.05,0.11983 0.03,0.11984 0.01,0.12982 -0.01,0.15978 -0.05,0.14979 -0.07,0.1398 -0.09,0.11984 -0.13,0.11983 -4.99004,3.81473 2.51001,5.30266 0.03,0.0798 0.02,0.0798 0.02,0.0699 0.01,0.07 0.01,0.07 -0.01,0.12982 -0.03,0.1298 -0.06,0.11984 -0.07,0.10985 -0.09,0.10985 -0.11,0.0898 -0.11,0.0699 -0.12,0.06 -0.13,0.03 -0.14,0.01 -0.2,-0.02 -0.16999,-0.0599 -0.15,-0.0998 -0.13,-0.1398 -0.1,-0.16976 z m 8.59005,1.22831 0.91,-3.3953 0.27,-0.85882 0.32003,-0.74897 0.37999,-0.65908 0.44,-0.53925 0.49,-0.44939 0.55001,-0.34951 0.65002,-0.27962 0.73,-0.19971 0.81999,-0.10986 0.91,-0.04 0.55002,0.04 0.51,0.10986 0.48,0.18974 0.44,0.26962 0.4,0.34951 0.35001,0.39946 0.28002,0.4294 0.18999,0.47933 0.12,0.49932 0.03,0.54924 v 0.18972 l -0.01,0.18975 -0.03,0.18974 -0.03,0.17974 -0.04,0.16978 -0.91002,3.3953 -0.17,0.56921 -0.2,0.52928 -0.23,0.48933 -0.25,0.44935 -0.27,0.39946 -0.61,0.6491 -0.74002,0.50931 -0.89,0.35949 -1.01999,0.20971 -1.18002,0.0798 -0.54001,-0.04 -0.52,-0.11983 -0.48,-0.18974 -0.44001,-0.26962 -0.41001,-0.33954 -0.35,-0.39945 -0.27,-0.43939 -0.19,-0.46935 -0.12,-0.50928 -0.04,-0.53927 0.01,-0.19972 0.01,-0.18974 0.02,-0.17975 0.04,-0.17975 z m 7.04006,-0.02 0.9,-3.35537 0.05,-0.19972 0.04,-0.19972 0.03,-0.18975 0.02,-0.17973 v -0.16977 l -0.08,-0.56921 -0.25,-0.43941 -0.42,-0.31955 -0.57999,-0.18974 -0.75003,-0.0601 -0.98,0.0998 -0.81998,0.29958 -0.67003,0.5093 -0.51001,0.69903 -0.35,0.90874 -0.92,3.35537 -0.05,0.20971 -0.04,0.18973 -0.03,0.18974 -0.02,0.17976 v 0.17974 l 0.08,0.55923 0.25,0.44938 0.42,0.30956 0.58,0.18975 0.75001,0.07 0.99002,-0.0998 0.81999,-0.30956 0.67,-0.49931 0.51002,-0.70903 z m 13.3701,-3.48518 0.05,-0.19972 0.04,-0.18974 0.03,-0.17975 0.02,-0.15978 v -0.14979 l -0.08,-0.54926 -0.25,-0.41941 -0.42001,-0.29959 -0.58001,-0.17975 -0.75001,-0.0601 -0.98,0.0898 -0.82002,0.2896 -0.66,0.47934 -0.50999,0.66907 -0.36,0.85882 -0.23,0.79889 h 5.29004 z m 1.76999,0.04 -0.69,2.49654 h -7.03005 l -0.46,1.73759 -0.03,0.12983 -0.03,0.12983 -0.01,0.12981 -0.02,0.11983 v 0.11984 l 0.05,0.39944 0.17,0.30959 0.28,0.21967 0.38003,0.12983 0.49999,0.05 h 4.17002 l 0.31,0.03 0.24003,0.10984 0.16999,0.16976 0.1,0.23967 0.03,0.31956 -0.03,0.30958 -0.1,0.23967 -0.16999,0.17975 -0.24003,0.0998 -0.31,0.04 h -4.62002 l -0.43002,-0.03 -0.41,-0.0998 -0.38,-0.15978 -0.35,-0.2197 -0.33,-0.2896 -0.29,-0.32953 -0.22,-0.35951 -0.16,-0.37948 -0.09,-0.39945 -0.03,-0.42939 v -0.1498 l 0.01,-0.13981 0.02,-0.13981 0.03,-0.1398 0.03,-0.12983 1.14,-4.24412 0.27,-0.85882 0.32,-0.74897 0.38,-0.65908 0.44003,-0.53925 0.48999,-0.44939 0.54999,-0.34951 0.65,-0.27962 0.73002,-0.19971 0.82,-0.10986 0.91001,-0.04 0.55,0.03 0.51003,0.11984 0.47999,0.18974 0.43999,0.25963 0.4,0.33952 0.35,0.38947 0.28,0.42941 0.19,0.45935 0.12,0.49933 0.03,0.53925 v 0.18974 l -0.01,0.17974 -0.03,0.17976 -0.03,0.17974 z m 10.44007,-3.52514 0.08,-0.22967 0.13,-0.17976 0.16,-0.12981 0.21003,-0.0798 0.23999,-0.02 h 8.16006 l 0.61,0.05 0.53,0.16978 0.47,0.26962 0.4,0.37947 0.33002,0.48933 0.13,0.24964 0.09,0.25964 0.07,0.26963 0.05,0.27961 0.01,0.2896 v 0.13982 l -0.02,0.1398 -0.01,0.13981 -0.03,0.12982 -0.03,0.13981 -2.12001,7.84913 -0.09,0.21971 -0.13001,0.17974 -0.16,0.12982 -0.2,0.0699 -0.23,0.03 -0.12999,-0.01 -0.13001,-0.03 -0.12002,-0.05 -0.12,-0.0701 -0.1,-0.0898 -0.1,-0.0998 -0.07,-0.10984 -0.06,-0.11984 -0.03,-0.11983 -0.01,-0.11984 v -0.05 l 0.01,-0.05 0.01,-0.05 0.01,-0.05 0.01,-0.06 2.00002,-7.36981 0.03,-0.12983 0.02,-0.1298 0.02,-0.12981 0.01,-0.11984 0.01,-0.11983 -0.06,-0.3795 -0.16,-0.29958 -0.27999,-0.20971 -0.39001,-0.12982 -0.49999,-0.04 h -1.76003 l -2.59001,9.50685 -0.09,0.21971 -0.12,0.17974 -0.16,0.12982 -0.2,0.07 -0.24,0.03 -0.12999,-0.01 -0.12001,-0.03 -0.12002,-0.05 -0.12,-0.07 -0.11,-0.0898 -0.09,-0.0998 -0.08,-0.10984 -0.05,-0.11984 -0.03,-0.11983 -0.01,-0.11983 v -0.05 -0.05 l 0.01,-0.05 0.01,-0.05 0.01,-0.06 2.48001,-9.05748 h -3.54002 l -2.58001,9.50685 -0.09,0.21971 -0.13,0.17974 -0.16,0.12982 -0.2,0.0699 -0.23,0.03 -0.13999,-0.01 -0.12001,-0.03 -0.12002,-0.05 -0.12,-0.07 -0.1,-0.0898 -0.1,-0.10985 -0.07,-0.10985 -0.05,-0.10984 -0.04,-0.11982 -0.01,-0.12984 0.01,-0.04 v -0.05 l 0.01,-0.05 0.01,-0.06 0.01,-0.0599 z m 17.70014,-0.0998 0.49,-0.22969 0.46,-0.16975 0.45002,-0.11984 0.43,-0.0798 0.41,-0.02 0.26999,-0.03 0.26,-0.0998 0.27,-0.15977 0.27,-0.22968 0.27,-0.28961 0.24,-0.31956 0.19002,-0.31955 0.14,-0.29958 0.08,-0.29959 0.02,-0.27962 -0.05,-0.38945 -0.17,-0.29958 -0.28002,-0.20972 -0.39,-0.12983 -0.5,-0.04 -0.64999,0.07 -0.55,0.19973 -0.45002,0.33952 -0.34,0.46936 -0.24,0.61914 z m -1.12001,-2.33678 0.21,-0.68905 0.26001,-0.59917 0.31,-0.51927 0.35,-0.44938 0.39,-0.3595 0.46,-0.2896 0.51003,-0.21971 0.58999,-0.15978 0.64999,-0.0998 0.72,-0.03 0.43,0.03 0.41002,0.0898 0.38,0.15978 0.36,0.21968 0.33,0.28961 0.28,0.32954 0.22,0.35951 0.15,0.37946 0.1,0.41944 0.03,0.43938 -0.02,0.33954 -0.05,0.32954 -0.08,0.31957 -0.12,0.31955 -0.15,0.31956 -0.2,0.32954 -0.21,0.26962 -0.23,0.23967 -0.26,0.17976 -0.28,0.1398 0.64,0.39945 0.5,0.49931 0.35,0.58918 0.21,0.68904 0.07,0.78892 v 0.18974 l -0.01,0.18974 -0.03,0.18972 -0.03,0.17977 -0.04,0.17974 -0.91,3.41527 -0.27,0.86881 -0.33,0.75895 -0.39,0.65909 -0.44002,0.54923 -0.5,0.44938 -0.56,0.3595 -0.64999,0.26963 -0.72,0.19973 -0.81002,0.11983 -0.89,0.04 -0.54001,-0.04 -0.52002,-0.11983 -0.48,-0.18974 -0.44,-0.26962 -0.41,-0.34951 -0.34999,-0.39945 -0.27,-0.4394 -0.19,-0.47934 -0.12,-0.5093 -0.04,-0.54923 0.01,-0.18973 0.01,-0.18975 0.02,-0.18974 0.04,-0.17975 0.04,-0.17976 z m 4.53002,9.37703 0.90002,-3.3953 0.05,-0.20971 0.04,-0.19972 0.03,-0.18975 0.02,-0.17973 v -0.16977 l -0.08,-0.57921 -0.25,-0.44936 -0.42002,-0.31957 -0.58,-0.18974 -0.74999,-0.0598 -0.98,0.0998 -0.82002,0.30958 -0.67,0.5093 -0.51,0.70901 -0.35001,0.91873 -0.92002,3.3953 -0.05,0.20972 -0.04,0.19972 -0.03,0.18975 -0.02,0.17974 v 0.17975 l 0.08,0.56922 0.25,0.44936 0.42003,0.31956 0.58,0.18975 0.75,0.07 0.99,-0.10985 0.82002,-0.29959 0.66999,-0.50928 0.51,-0.71902 z m 5.14004,0.05 0.91002,-3.3953 0.27,-0.85882 0.32,-0.74897 0.38,-0.65908 0.44,-0.53925 0.49,-0.44939 0.55003,-0.34951 0.64999,-0.27962 0.72999,-0.19971 0.82,-0.10986 0.91003,-0.04 0.55,0.04 0.51,0.10986 0.48,0.18974 0.44,0.26962 0.40002,0.34951 0.35,0.39946 0.28,0.4294 0.19,0.47933 0.12,0.49932 0.03,0.54924 v 0.18972 l -0.01,0.18975 -0.03,0.18974 -0.03,0.17974 -0.04,0.16978 -0.91,3.3953 -0.16999,0.56921 -0.20003,0.52928 -0.23,0.48933 -0.25,0.44936 -0.27,0.39945 -0.61,0.64911 -0.74,0.5093 -0.89003,0.35949 -1.01999,0.20971 -1.18002,0.0798 -0.54,-0.04 -0.52,-0.11983 -0.48,-0.18974 -0.44,-0.26962 -0.41,-0.33954 -0.35002,-0.39945 -0.27,-0.43939 -0.19,-0.46935 -0.12,-0.50928 -0.04,-0.53927 0.01,-0.19972 0.01,-0.18974 0.02,-0.17975 0.04,-0.17975 z m 7.04006,-0.02 0.9,-3.35537 0.05,-0.19972 0.04,-0.19973 0.03,-0.18974 0.02,-0.17973 v -0.16977 l -0.08,-0.56921 -0.25,-0.43941 -0.42,-0.31955 -0.58,-0.18974 -0.75001,-0.0599 -0.98002,0.0998 -0.81999,0.29958 -0.67,0.5093 -0.51002,0.69903 -0.35,0.90874 -0.92,3.35537 -0.05,0.2097 -0.04,0.18974 -0.03,0.18974 -0.02,0.17976 v 0.17974 l 0.08,0.55923 0.25,0.44938 0.42,0.30956 0.58,0.18975 0.75002,0.07 0.98999,-0.0998 0.82,-0.30956 0.67002,-0.49931 0.51001,-0.70902 z m 7.31006,-6.96037 0.08,-0.23967 0.13,-0.17976 0.16,-0.12981 0.21,-0.0798 0.24,-0.02 h 4.64003 l 0.44,0.03 0.40999,0.0898 0.38,0.15978 0.35,0.21971 0.33,0.28959 0.28003,0.32955 0.22,0.34951 0.16,0.37947 0.09,0.40943 0.03,0.43939 v 0.13982 l -0.01,0.13979 -0.02,0.13982 -0.03,0.13981 -0.03,0.13981 -1.37003,5.08296 -0.22,0.68905 -0.26,0.60917 -0.30999,0.51928 -0.36,0.43939 -0.39,0.3495 -0.46002,0.28961 -0.51,0.20971 -0.58,0.15978 -0.65,0.0998 -0.71,0.03 h -3.52004 l -1.2,4.5637 -0.09,0.22967 -0.12,0.17975 -0.16,0.12981 -0.2,0.0798 -0.24002,0.03 -0.13,-0.01 -0.13,-0.03 -0.12,-0.05 -0.11,-0.0798 -0.11,-0.0898 -0.1,-0.0998 -0.07,-0.10985 -0.06,-0.11983 -0.03,-0.11984 -0.01,-0.11983 v -0.05 l 0.01,-0.05 0.01,-0.05 0.01,-0.06 0.01,-0.05 z m 1.46999,1.08848 -2.30002,8.3984 h 3.53004 l 0.66,-0.07 0.55,-0.19972 0.45,-0.33954 0.34,-0.46933 0.24002,-0.59919 1.34999,-5.04302 0.04,-0.12982 0.02,-0.12982 0.02,-0.11984 0.01,-0.11983 0.01,-0.10985 -0.06,-0.38947 -0.16,-0.29958 -0.27999,-0.20971 -0.39,-0.12982 -0.49,-0.04 z m 16.93013,9.50685 -0.09,0.21971 -0.13,0.17974 -0.16003,0.12982 -0.19999,0.07 -0.24,0.03 -0.13,-0.01 -0.12,-0.03 -0.12,-0.06 -0.12,-0.0699 -0.11,-0.0898 -0.09,-0.0998 -0.07,-0.11983 -0.06,-0.10985 -0.03,-0.12982 -0.01,-0.12981 v -0.04 l 0.01,-0.05 v -0.06 l 0.01,-0.05 0.02,-0.06 1.07999,-4.10431 h -3.52002 l -0.44,-0.03 -0.4,-0.0998 -0.38,-0.14978 -0.36003,-0.21971 -0.32999,-0.2796 -0.28,-0.31956 -0.22,-0.34952 -0.16,-0.36949 -0.09,-0.39945 -0.04,-0.41942 0.01,-0.14978 0.01,-0.13981 0.02,-0.1398 0.02,-0.13982 0.03,-0.12981 0.76,-2.70627 0.08,-0.22968 0.13,-0.16975 0.16002,-0.11984 0.2,-0.0798 0.24,-0.02 0.3,0.03 0.24,0.0998 0.17,0.15978 0.1,0.22968 0.03,0.28961 v 0.05 0.05 0.05 l -0.01,0.04 -0.01,0.04 -0.62,2.23691 -0.04,0.14978 -0.03,0.12983 -0.02,0.10983 -0.01,0.10986 v 0.0898 l 0.05,0.37949 0.17,0.29958 0.28,0.20971 0.4,0.11982 0.5,0.05 h 3.52004 l 1.22,-4.31403 0.08,-0.2197 0.13,-0.16975 0.16,-0.12983 0.2,-0.0699 0.24,-0.02 0.3,0.03 0.24002,0.0998 0.17,0.16978 0.1,0.22967 0.04,0.30957 -0.01,0.05 v 0.06 0.05 l -0.01,0.04 -0.01,0.04 z m 12.60008,-7.12014 0.05,-0.19972 0.04,-0.18974 0.03,-0.17975 0.02,-0.15978 v -0.14979 l -0.08,-0.54926 -0.25,-0.41941 -0.42001,-0.29959 -0.58,-0.17975 -0.75,-0.0599 -0.98002,0.0898 -0.81999,0.2896 -0.66,0.47934 -0.51,0.66907 -0.36002,0.85882 -0.23,0.79889 h 5.29004 z m 1.77001,0.04 -0.68999,2.49654 h -7.03006 l -0.46,1.73759 -0.03,0.12983 -0.03,0.12983 -0.01,0.12981 -0.02,0.11983 v 0.11984 l 0.05,0.39944 0.17,0.30959 0.28,0.21967 0.38,0.12983 0.5,0.05 h 4.17003 l 0.31,0.03 0.24,0.10984 0.17001,0.16976 0.1,0.23967 0.03,0.31956 -0.03,0.30958 -0.1,0.23967 -0.17001,0.17975 -0.24,0.0998 -0.31,0.04 h -4.62003 l -0.43,-0.03 -0.41,-0.0998 -0.38,-0.15978 -0.35,-0.2197 -0.33,-0.2896 -0.29002,-0.32953 -0.22,-0.35951 -0.16001,-0.37948 -0.09,-0.39945 -0.03,-0.42939 v -0.1498 l 0.01,-0.13981 0.02,-0.13981 0.03,-0.1398 0.03,-0.12983 1.14003,-4.24412 0.27,-0.85882 0.32,-0.74897 0.38,-0.65908 0.44,-0.53925 0.49,-0.44939 0.55002,-0.34951 0.65,-0.27962 0.72999,-0.19971 0.82,-0.10986 0.91002,-0.04 0.55,0.03 0.51,0.11984 0.48001,0.18974 0.44002,0.25963 0.4,0.33952 0.35,0.38947 0.28,0.42941 0.19,0.45935 0.11999,0.49933 0.03,0.53925 v 0.18974 l -0.01,0.17974 -0.03,0.17976 -0.03,0.17974 z m 8.00006,7.70933 h -2.87002 l -0.43,-0.03 -0.41,-0.0998 -0.38,-0.15978 -0.35002,-0.2197 -0.33,-0.2896 -0.29,-0.32953 -0.22,-0.35951 -0.16,-0.37948 -0.09,-0.39945 -0.03,-0.42939 v -0.1498 l 0.01,-0.13981 0.02,-0.13981 0.03,-0.1398 0.03,-0.12983 1.37002,-5.08296 0.22,-0.69905 0.26,-0.60915 0.31,-0.51928 0.36,-0.44937 0.39999,-0.34952 0.44001,-0.27961 0.51,-0.21971 0.58002,-0.14979 0.64,-0.0898 0.72,-0.03 h 2.42001 l 0.3,0.03 0.24,0.10986 0.17,0.16975 0.1,0.23967 0.04,0.31956 -0.04,0.30956 -0.1,0.23967 -0.17,0.17976 -0.24,0.0998 -0.31,0.04 h -2.87001 l -0.66,0.0601 -0.55,0.20971 -0.44002,0.32954 -0.34,0.46936 -0.24,0.60916 -1.36,5.04302 -0.03,0.1398 -0.03,0.11984 -0.02,0.10985 -0.01,0.0898 -0.01,0.0701 0.06,0.40942 0.16,0.31956 0.28,0.2297 0.39,0.1398 0.49999,0.05 h 2.42003 l 0.31,0.03 0.24,0.10984 0.16,0.16977 0.11,0.23966 0.03,0.31956 -0.03,0.30958 -0.11,0.23967 -0.16,0.17975 -0.24,0.0998 z m 7.08006,-11.23447 0.08,-0.22967 0.13,-0.17976 0.16,-0.12981 0.21,-0.0798 0.24,-0.02 h 8.16005 l 0.61,0.05 0.53002,0.16978 0.47,0.26962 0.4,0.37947 0.33,0.48933 0.13,0.24964 0.09,0.25964 0.07,0.26963 0.05,0.27961 0.01,0.2896 v 0.13982 l -0.02,0.1398 -0.01,0.13981 -0.03,0.12982 -0.03,0.13981 -2.12001,7.84913 -0.09,0.21971 -0.13,0.17974 -0.16,0.12982 -0.2,0.07 -0.23,0.03 -0.13,-0.01 -0.13,-0.03 -0.12,-0.05 -0.12,-0.07 -0.1,-0.0898 -0.1,-0.0998 -0.07,-0.10984 -0.06,-0.11984 -0.03,-0.11983 -0.01,-0.11984 v -0.05 l 0.01,-0.05 0.01,-0.05 0.01,-0.05 0.01,-0.06 2,-7.36981 0.03,-0.12982 0.02,-0.12981 0.02,-0.12981 0.01,-0.11984 0.01,-0.11984 -0.06,-0.37949 -0.16001,-0.29958 -0.27999,-0.20971 -0.39,-0.12982 -0.5,-0.04 h -1.76002 l -2.59002,9.50685 -0.09,0.21971 -0.12,0.17974 -0.16,0.12982 -0.2,0.07 -0.24,0.03 -0.13,-0.01 -0.12,-0.03 -0.12,-0.05 -0.12,-0.0698 -0.11,-0.0898 -0.09,-0.0998 -0.08,-0.10984 -0.05,-0.11984 -0.03,-0.11983 -0.01,-0.11984 v -0.05 -0.05 l 0.01,-0.05 0.01,-0.05 0.01,-0.0601 2.48002,-9.05748 h -3.54004 l -2.58001,9.50685 -0.09,0.21971 -0.13,0.17974 -0.16,0.12982 -0.2,0.07 -0.23001,0.03 -0.14,-0.01 -0.12,-0.03 -0.12,-0.05 -0.12,-0.0701 -0.1,-0.0898 -0.1,-0.10985 -0.07,-0.10985 -0.05,-0.10984 -0.04,-0.11983 -0.01,-0.12983 0.01,-0.04 v -0.05 l 0.01,-0.05 0.01,-0.06 0.01,-0.0599 z m 17.70009,-0.0998 0.49003,-0.22969 0.46,-0.16975 0.45,-0.11984 0.43,-0.0798 0.41,-0.02 0.27,-0.03 0.26,-0.0998 0.27002,-0.15977 0.27,-0.22968 0.27,-0.28961 0.24001,-0.31956 0.19,-0.31955 0.14,-0.29958 0.08,-0.29959 0.02,-0.27962 -0.05,-0.38945 -0.17,-0.29958 -0.28001,-0.20972 -0.39,-0.12984 -0.5,-0.04 -0.65002,0.07 -0.55,0.19973 -0.45,0.33952 -0.34,0.46936 -0.24,0.61914 z m -1.11998,-2.33678 0.21,-0.68905 0.25999,-0.59917 0.31,-0.51927 0.34999,-0.44938 0.39003,-0.3595 0.46,-0.2896 0.51,-0.21971 0.59,-0.15978 0.64999,-0.0998 0.72003,-0.03 0.43,0.03 0.41001,0.0898 0.37999,0.15978 0.36,0.21968 0.32999,0.28961 0.28003,0.32954 0.22,0.35951 0.15,0.37945 0.1,0.41945 0.03,0.43938 -0.02,0.33954 -0.05,0.32954 -0.08,0.31957 -0.12,0.31955 -0.15,0.31956 -0.20002,0.32954 -0.21001,0.26962 -0.22999,0.23967 -0.26,0.17976 -0.27999,0.1398 0.63999,0.39945 0.50002,0.49931 0.35,0.58918 0.21,0.68904 0.07,0.78892 v 0.18974 l -0.01,0.18974 -0.03,0.18972 -0.03,0.17977 -0.04,0.17974 -0.91003,3.41527 -0.26999,0.86881 -0.33,0.75895 -0.38999,0.65909 -0.44001,0.54923 -0.5,0.44938 -0.56002,0.3595 -0.65,0.26963 -0.72,0.19973 -0.81,0.11983 -0.89002,0.04 -0.53999,-0.04 -0.52,-0.11983 -0.48,-0.18974 -0.44,-0.26962 -0.41002,-0.34951 -0.35,-0.39945 -0.27,-0.4394 -0.19,-0.47934 -0.12,-0.5093 -0.04,-0.54923 0.01,-0.18973 0.01,-0.18975 0.02,-0.18974 0.04,-0.17975 0.04,-0.17976 z m 4.53003,9.37703 0.90001,-3.3953 0.05,-0.20971 0.04,-0.19972 0.03,-0.18975 0.02,-0.17973 v -0.16977 l -0.08,-0.57921 -0.25,-0.44936 -0.42001,-0.31957 -0.58,-0.18974 -0.75002,-0.0598 -0.98,0.0998 -0.82,0.30958 -0.67003,0.5093 -0.50999,0.70901 -0.34999,0.91873 -0.92,3.3953 -0.05,0.20972 -0.04,0.19972 -0.03,0.18975 -0.02,0.17974 v 0.17975 l 0.08,0.56922 0.25,0.44936 0.42,0.31956 0.57999,0.18975 0.75,0.07 0.99002,-0.10985 0.82,-0.29959 0.66999,-0.50928 0.51003,-0.71902 z m 5.14004,0.05 0.91,-3.3953 0.27,-0.85882 0.31999,-0.74897 0.37999,-0.65908 0.44003,-0.53925 0.49,-0.44939 0.55001,-0.34951 0.65,-0.27962 0.73,-0.19971 0.82002,-0.10986 0.91,-0.04 0.54999,0.04 0.51002,0.10986 0.48,0.18974 0.44,0.26962 0.4,0.34951 0.35,0.39946 0.28,0.4294 0.19,0.47933 0.11999,0.49932 0.03,0.54924 v 0.18972 l -0.01,0.18975 -0.03,0.18974 -0.03,0.17974 -0.04,0.16978 -0.91,3.3953 -0.17,0.56921 -0.2,0.52928 -0.23,0.48933 -0.25,0.44936 -0.27,0.39945 -0.61002,0.64911 -0.73999,0.5093 -0.89,0.35949 -1.02002,0.20971 -1.18,0.0798 -0.54001,-0.04 -0.52001,-0.11983 -0.48001,-0.18974 -0.44,-0.26962 -0.40999,-0.33954 -0.35,-0.39945 -0.27,-0.43939 -0.19,-0.46935 -0.12,-0.50928 -0.04,-0.53927 0.01,-0.19972 0.01,-0.18974 0.02,-0.17975 0.04,-0.17975 z m 7.04003,-0.02 0.90002,-3.35537 0.05,-0.19972 0.04,-0.19973 0.03,-0.18974 0.02,-0.17973 v -0.16977 l -0.08,-0.56921 -0.25,-0.43941 -0.42002,-0.31955 -0.58,-0.18974 -0.74999,-0.06 -0.98,0.0998 -0.82002,0.29958 -0.67,0.5093 -0.51,0.69903 -0.35001,0.90874 -0.92002,3.35537 -0.05,0.2097 -0.04,0.18974 -0.03,0.18974 -0.02,0.17975 v 0.17975 l 0.08,0.55923 0.24999,0.44938 0.42003,0.30956 0.58,0.18975 0.75001,0.07 0.99,-0.0998 0.82002,-0.30956 0.67,-0.49931 0.50999,-0.70902 z m 16.64013,6.02166 0.46,-1.75756 h -3.52003 l -0.43,-0.03 -0.4,-0.0998 -0.38,-0.15978 -0.36,-0.2197 -0.33,-0.2896 -0.28001,-0.32953 -0.22,-0.35951 -0.16001,-0.37948 -0.09,-0.39945 -0.03,-0.42939 v -0.1498 l 0.01,-0.13981 0.02,-0.13981 0.02,-0.1398 0.04,-0.12983 2.12003,-7.84914 0.08,-0.22969 0.12999,-0.17973 0.16001,-0.11984 0.20001,-0.0798 0.24001,-0.02 0.3,0.03 0.24,0.0998 0.17,0.16978 0.1,0.22967 0.03,0.29958 v 0.0599 0.05 0.05 l -0.01,0.05 -0.01,0.04 -1.99002,7.3698 -0.03,0.12983 -0.03,0.11983 -0.01,0.12981 -0.01,0.10986 -0.01,0.11984 0.06,0.38944 0.16,0.29959 0.27,0.2097 0.39,0.12983 0.50002,0.05 h 3.53001 l 2.59003,-9.50686 0.08,-0.22969 0.13,-0.17973 0.16,-0.11984 0.2,-0.0798 0.23999,-0.02 0.29999,0.03 0.24001,0.0998 0.17002,0.16978 0.1,0.23966 0.04,0.29959 -0.01,0.06 v 0.05 0.05 l -0.01,0.05 -0.01,0.03 -3.37004,12.59257 -0.3,0.88878 -0.38,0.74896 -0.47,0.60917 -0.54,0.47934 -0.62003,0.33951 -0.35999,0.11983 -0.38999,0.0998 -0.42,0.0699 -0.45,0.04 -0.49,0.02 h -3.32006 l -0.30999,-0.04 -0.23,-0.0998 -0.16999,-0.17975 -0.11,-0.23966 -0.03,-0.30959 0.03,-0.31955 0.11,-0.23967 0.16999,-0.16976 0.23,-0.10985 0.30999,-0.03 h 3.74006 l 0.65,-0.0699 0.54999,-0.20972 0.44999,-0.33952 0.34003,-0.47934 z m 14.87009,-2.3867 -0.09,0.21971 -0.12999,0.17974 -0.16,0.12982 -0.2,0.07 -0.24,0.03 -0.13,-0.01 -0.12,-0.03 -0.12,-0.0601 -0.12,-0.0699 -0.11,-0.0898 -0.09,-0.0998 -0.07,-0.11983 -0.06,-0.10985 -0.03,-0.12982 -0.01,-0.12981 v -0.04 l 0.01,-0.05 v -0.06 l 0.01,-0.05 0.02,-0.06 1.08,-4.10431 h -3.52002 l -0.44,-0.03 -0.40004,-0.0998 -0.37999,-0.14978 -0.35999,-0.21971 -0.33,-0.2796 -0.28,-0.31956 -0.22,-0.34952 -0.16,-0.36949 -0.09,-0.39945 -0.04,-0.41942 0.01,-0.14978 0.01,-0.13981 0.02,-0.1398 0.02,-0.13982 0.03,-0.12981 0.76,-2.70627 0.08,-0.22968 0.13,-0.16975 0.16,-0.11984 0.19999,-0.0798 0.24,-0.02 0.3,0.03 0.24001,0.0998 0.17002,0.15978 0.1,0.22968 0.03,0.28961 v 0.05 0.05 0.05 l -0.01,0.04 -0.01,0.04 -0.62004,2.2369 -0.04,0.14979 -0.03,0.12983 -0.02,0.10983 -0.01,0.10986 v 0.0898 l 0.05,0.37949 0.17001,0.29958 0.28003,0.20971 0.4,0.11982 0.5,0.05 h 3.52001 l 1.22002,-4.31403 0.08,-0.2197 0.13,-0.16975 0.16,-0.12983 0.2,-0.07 0.24,-0.02 0.3,0.03 0.24,0.0998 0.17,0.16978 0.1,0.22967 0.04,0.30957 -0.01,0.05 v 0.06 0.05 l -0.01,0.04 -0.01,0.04 z m 7.48006,-1.10845 h 1.76002 l 0.27,-0.02 0.27,-0.0698 0.27,-0.0998 0.28,-0.13981 0.27999,-0.18972 0.24999,-0.20973 0.22002,-0.2197 0.17001,-0.23966 0.14001,-0.23967 0.09,-0.24966 1.82,-6.72071 h -3.52002 l -0.66,0.06 -0.55002,0.20971 -0.44001,0.32954 -0.33999,0.46936 -0.24,0.60916 -1.36,5.04303 -0.03,0.12981 -0.03,0.11984 -0.01,0.11983 -0.02,0.10986 v 0.10983 l 0.06,0.38946 0.16,0.30958 0.28,0.2097 0.38,0.12983 z m -0.45,1.73759 -0.43,-0.03 -0.41,-0.0998 -0.38002,-0.15978 -0.35,-0.20971 -0.32999,-0.28961 -0.29,-0.31956 -0.22,-0.35949 -0.16,-0.3695 -0.09,-0.40942 -0.03,-0.42942 v -0.14979 l 0.01,-0.14977 0.02,-0.14981 0.03,-0.1398 0.03,-0.12983 1.36999,-5.08296 0.22001,-0.69905 0.26001,-0.60914 0.31,-0.51929 0.36,-0.44937 0.4,-0.34952 0.44,-0.27961 0.50999,-0.21971 0.58003,-0.14979 0.64,-0.0898 0.72,-0.03 h 4.40004 l 0.14,0.01 0.13,0.03 0.11,0.04 0.09,0.0699 0.09,0.0898 0.06,0.0998 0.05,0.10984 0.02,0.11984 -0.01,0.12981 -0.02,0.13981 -2.30002,8.44831 -0.02,0.05 -0.01,0.04 v 0.05 l -0.01,0.05 v 0.04 l 0.03,0.21972 0.08,0.17973 0.13,0.11983 0.18999,0.07 0.25,0.03 0.30002,0.03 0.21001,0.10984 0.13,0.16977 0.05,0.23966 -0.04,0.31956 -0.11,0.30958 -0.16,0.23967 -0.22002,0.17975 -0.28001,0.0998 -0.32999,0.04 -0.52,-0.04 -0.44,-0.11983 -0.35,-0.19973 -0.26,-0.27961 -0.19,-0.34952 -0.34002,0.34952 -0.44001,0.27961 -0.52999,0.19973 -0.62,0.11983 -0.72,0.04 z m 23.02017,0 h -8.83008 l -0.42999,-0.03 -0.41,-0.0998 -0.38,-0.1498 -0.36,-0.21969 -0.32,-0.27961 -0.29002,-0.31955 -0.22001,-0.34952 -0.15001,-0.37948 -0.1,-0.39945 -0.02,-0.4394 v -0.14977 l 0.01,-0.15978 0.02,-0.13983 0.02,-0.13979 0.04,-0.13982 2.12003,-7.84914 0.08,-0.22969 0.13,-0.17973 0.16,-0.11984 0.19998,-0.0798 0.24,-0.02 0.13001,0.01 0.12,0.03 0.12001,0.04 0.12001,0.0699 0.11,0.0898 0.09,0.0998 0.08,0.10984 0.05,0.10984 0.03,0.12983 0.01,0.12981 v 0.04 l -0.01,0.05 v 0.05 l -0.01,0.0599 -0.02,0.06 -1.99001,7.3698 -0.03,0.12983 -0.03,0.12981 -0.01,0.12981 -0.01,0.11984 -0.01,0.12982 0.06,0.36951 0.16,0.29956 0.27,0.20972 0.38999,0.12982 0.5,0.04 h 1.77002 l 2.59002,-9.50686 0.09,-0.22969 0.12,-0.17973 0.16,-0.11984 0.19999,-0.0798 0.24,-0.02 0.13001,0.01 0.12,0.03 0.12001,0.04 0.12001,0.0699 0.1,0.0898 0.1,0.0998 0.07,0.10984 0.05,0.10984 0.03,0.12983 0.01,0.12981 v 0.06 0.0599 l -0.01,0.05 v 0.05 l -0.01,0.04 -2.46002,9.05747 h 3.52002 l 2.59002,-9.50686 0.09,-0.22969 0.12,-0.17973 0.16,-0.11984 0.19998,-0.0798 0.23,-0.02 0.13001,0.01 0.13,0.03 0.12001,0.04 0.11001,0.0699 0.11,0.0898 0.09,0.0998 0.08,0.10984 0.05,0.10984 0.03,0.12983 0.01,0.12981 v 0.04 l -0.01,0.05 v 0.05 l -0.02,0.06 -0.01,0.06 -2.46001,9.05747 h 0.89 l 0.13,0.01 0.11,0.03 0.11,0.05 0.09,0.0798 0.09,0.0998 0.07,0.10985 0.05,0.10985 0.02,0.11984 0.01,0.12981 -0.02,0.12981 -0.73998,2.8261 -0.08,0.22969 -0.13,0.17975 -0.16,0.12982 -0.2,0.0798 -0.24,0.03 -0.13,-0.01 -0.13,-0.03 -0.12,-0.06 -0.11,-0.07 -0.11,-0.0898 -0.09,-0.0998 -0.08,-0.11984 -0.05,-0.10985 -0.03,-0.12983 -0.01,-0.12981 v -0.04 -0.05 l 0.01,-0.0598 0.01,-0.05 0.01,-0.0599 z m 15.45009,-11.24445 0.09,-0.22969 0.12001,-0.17973 0.16001,-0.11984 0.2,-0.0798 0.24,-0.02 0.31,0.03 0.24,0.0998 0.17,0.16978 0.1,0.22967 0.03,0.30957 v 0.05 l -0.01,0.06 v 0.05 l -0.01,0.04 -0.01,0.04 -2.70002,9.94624 -0.12,0.29957 -0.17,0.23967 -0.22,0.16977 -0.27,0.0998 -0.33,0.04 h -4.39004 l -0.43,-0.03 -0.41,-0.0998 -0.38001,-0.15978 -0.35002,-0.2197 -0.32998,-0.2896 -0.29,-0.32953 -0.22,-0.35951 -0.16,-0.37948 -0.09,-0.39945 -0.03,-0.42939 v -0.1498 l 0.01,-0.13982 0.02,-0.1398 0.03,-0.1398 0.03,-0.12983 2.12001,-7.84914 0.09,-0.22969 0.12,-0.17973 0.16,-0.11984 0.2,-0.0798 0.24,-0.02 0.31,0.03 0.23999,0.0998 0.16,0.16978 0.11001,0.22967 0.03,0.29958 v 0.06 l -0.01,0.05 v 0.05 l -0.01,0.05 -0.01,0.04 -1.99,7.3698 -0.03,0.12982 -0.03,0.11983 -0.01,0.12982 -0.02,0.10986 v 0.11984 l 0.06,0.38944 0.16,0.29959 0.28,0.2097 0.38,0.12983 0.5,0.05 h 3.53002 z m 9.38007,5.50238 1.93002,4.5537 0.02,0.0699 0.02,0.0699 0.01,0.07 0.01,0.0699 v 0.0798 l -0.03,0.29959 -0.1,0.22969 -0.17,0.16976 -0.23001,0.0898 -0.30001,0.04 -0.22001,-0.02 -0.18,-0.0699 -0.15999,-0.0998 -0.13,-0.1398 -0.1,-0.18975 -1.64001,-3.89461 -4.00003,4.15426 -0.11,0.0898 -0.12,0.07 -0.13,0.06 -0.13,0.03 -0.15,0.01 -0.3,-0.04 -0.23,-0.0998 -0.17002,-0.16977 -0.1,-0.23967 -0.03,-0.30956 0.01,-0.12983 0.02,-0.11984 0.05,-0.10983 0.07,-0.10985 0.08,-0.0998 4.51004,-4.6935 -1.94001,-4.57369 -0.02,-0.0599 -0.02,-0.0699 -0.01,-0.06 -0.01,-0.07 v -0.0798 l 0.01,-0.12982 0.03,-0.12982 0.05,-0.11983 0.07,-0.10986 0.09,-0.0998 0.1,-0.0898 0.11,-0.07 0.12,-0.05 0.13,-0.03 0.14,-0.01 0.21,0.02 0.18,0.06 0.16,0.0998 0.13,0.14979 0.1,0.17974 1.65001,3.92459 4.02002,-4.16426 0.1,-0.0998 0.11999,-0.0798 0.11,-0.05 0.13001,-0.03 0.13,-0.01 0.31002,0.03 0.24,0.0998 0.17,0.15978 0.11,0.22968 0.03,0.29958 -0.01,0.1498 -0.03,0.12981 -0.04,0.11984 -0.07,0.11983 -0.08,0.0998 z m 11.86008,5.74207 h -2.87003 l -0.42999,-0.03 -0.41,-0.0998 -0.38,-0.15978 -0.35,-0.2197 -0.33,-0.2896 -0.29,-0.32953 -0.22002,-0.35951 -0.16,-0.37948 -0.09,-0.39945 -0.03,-0.42939 v -0.1498 l 0.01,-0.13981 0.02,-0.13981 0.03,-0.1398 0.03,-0.12983 1.37002,-5.08296 0.22,-0.69905 0.26,-0.60914 0.31,-0.51929 0.35998,-0.44937 0.40002,-0.34952 0.44001,-0.27961 0.51,-0.21971 0.58001,-0.14979 0.63999,-0.0898 0.72003,-0.03 h 2.42 l 0.30001,0.03 0.24,0.10986 0.17,0.16975 0.1,0.23967 0.04,0.31956 -0.04,0.30956 -0.1,0.23967 -0.17,0.17976 -0.24,0.0998 -0.31001,0.04 h -2.87002 l -0.66,0.06 -0.55,0.20971 -0.44001,0.32954 -0.34,0.46936 -0.24,0.60916 -1.36001,5.04302 -0.03,0.1398 -0.03,0.11984 -0.02,0.10985 -0.01,0.0898 -0.01,0.07 0.06,0.40942 0.16,0.31956 0.28,0.2297 0.38998,0.1398 0.50003,0.05 h 2.42001 l 0.31002,0.03 0.24,0.10984 0.16,0.16976 0.11,0.23967 0.03,0.31956 -0.03,0.30958 -0.11,0.23967 -0.16,0.17975 -0.24,0.0998 z m 10.41007,-5.21279 -4.65002,4.94316 -0.1,0.0998 -0.11,0.0699 -0.12001,0.06 -0.13001,0.03 -0.14,0.01 -0.31001,-0.04 -0.24,-0.0998 -0.16999,-0.16977 -0.1,-0.22967 -0.05,-0.30957 0.01,-0.13982 0.03,-0.12981 0.05,-0.12982 0.07,-0.11983 0.09,-0.10986 3.61003,-3.85466 -0.33001,-0.11984 -0.3,-0.15978 -0.27999,-0.18973 -0.25,-0.22968 -0.22,-0.25965 -0.19,-0.2896 -0.15,-0.29959 -0.1,-0.31955 -0.06,-0.32954 -0.02,-0.33953 v -0.14981 l 0.01,-0.14979 0.01,-0.1398 0.03,-0.11983 0.02,-0.11983 0.23,-0.67907 0.26,-0.59916 0.3,-0.50931 0.33999,-0.4294 0.39,-0.34952 0.44002,-0.26962 0.51,-0.21971 0.58,-0.14979 0.65999,-0.0898 0.73002,-0.03 h 4.18003 l 0.13,0.01 0.12999,0.03 0.12,0.05 0.11,0.06 0.11,0.0898 0.09,0.0998 0.08,0.10984 0.05,0.11984 0.03,0.11983 0.01,0.12981 v 0.05 l -0.01,0.05 -0.01,0.05 -0.01,0.05 -0.01,0.0601 -2.75003,10.16592 -0.09,0.21971 -0.12999,0.17975 -0.16,0.12981 -0.19999,0.07 -0.24,0.03 -0.3,-0.04 -0.24,-0.0998 -0.17,-0.16976 -0.1,-0.23968 -0.04,-0.30956 0.01,-0.06 v -0.06 -0.05 l 0.01,-0.04 0.01,-0.04 1.08,-4.10431 z m -1.02,-1.7376 h 3.52 l 0.93003,-3.1856 h -3.53003 l -0.64,0.06 -0.54,0.18974 -0.45,0.31955 -0.36,0.44939 -0.26001,0.56922 -0.02,0.0998 -0.03,0.10985 -0.01,0.10985 -0.01,0.12982 v 0.12981 l 0.05,0.36951 0.17001,0.27961 0.28,0.19972 0.4,0.12982 z"
     id="path7"
     style="display:none;fill:#ff0000" />
  <path
     style="font-size:53.5001px;line-height:0;font-family:'GOST type B';-inkscape-font-specification:'GOST type B';display:none;stroke:#120000;stroke-width:1.07311;paint-order:fill markers stroke"
     d="m 15.525176,189.89534 v -14.3755 h 11.143016 q 1.521972,0 2.609096,1.05315 1.087123,1.00049 1.087123,2.52756 v 7.21408 q 0,1.52706 -1.087123,2.58022 -1.087124,1.00049 -2.609096,1.00049 z m 0,3.63336 h 11.143016 q 3.098302,0 5.218193,-2.1063 2.174247,-2.10629 2.174247,-5.10777 v -7.21408 q 0,-3.00148 -2.174247,-5.10778 -2.119891,-2.1063 -5.218193,-2.1063 H 13.677066 q -1.902467,0 -1.902467,1.84302 v 32.38436 q 0,0.84252 0.543562,1.31644 0.597919,0.47391 1.358905,0.47391 0.815342,0 1.304548,-0.42126 0.543562,-0.47391 0.543562,-1.36909 z m 32.50504,5.31841 h 13.480332 l 2.663453,7.79331 q 0.217424,0.78987 0.924054,1.10581 0.543562,0.10531 0.815343,0.10531 0.70663,0 1.304548,-0.47391 0.597918,-0.47392 0.597918,-1.21112 0,-0.26329 -0.108712,-0.68455 L 56.50978,173.0976 q -0.489206,-1.52708 -1.739399,-1.52708 -1.141479,0 -1.739397,1.52708 l -11.143016,32.38436 q -0.163068,0.31595 -0.163068,0.68455 0,0.7372 0.597918,1.21112 0.597918,0.47391 1.304548,0.47391 1.358905,0 1.739397,-1.21112 z m 12.230139,-3.63336 H 49.280408 l 5.489973,-15.90257 z"
     id="text15"
     aria-label="РА" />
  <path
     style="font-size:53.7308px;line-height:0;font-family:'GOST type B';-inkscape-font-specification:'GOST type B';display:none;stroke:#120000;stroke-width:1.07774;paint-order:fill markers stroke"
     d="m 146.76088,205.95385 v -32.38026 q 0,-1.00037 -0.4935,-1.52688 -0.4935,-0.57916 -1.20632,-0.57916 -0.4935,0 -0.98699,0.3159 -0.4935,0.31592 -0.8225,0.89507 l -15.18872,26.32542 v -25.43035 q 0,-0.89507 -0.60316,-1.36892 -0.54832,-0.47387 -1.26115,-0.47387 -0.8225,0 -1.37082,0.52652 -0.54833,0.47385 -0.54833,1.31627 v 32.38026 q 0,0.94771 0.49348,1.52687 0.54834,0.52651 1.26116,0.52651 1.04183,0 1.80949,-1.21097 l 15.18872,-26.27277 v 25.43036 q 0,0.84241 0.54833,1.31627 0.60316,0.47386 1.31599,0.47386 0.82249,0 1.31599,-0.42121 0.54833,-0.47386 0.54833,-1.36892 z m 29.99365,-5.42303 v -21.58685 q 0,-3.0011 -2.19332,-5.10713 -2.13848,-2.10604 -5.26396,-2.10604 h -7.51211 q -3.12547,0 -5.31879,2.10604 -2.19332,2.10603 -2.19332,5.10713 v 21.58685 q 0,3.05374 2.19332,5.15978 2.19332,2.05338 5.31879,2.05338 h 7.51211 q 3.12548,0 5.26396,-2.05338 2.19332,-2.10604 2.19332,-5.15978 z m -3.72864,0 q 0,1.52687 -1.09666,2.57989 -1.09666,1.05301 -2.63198,1.05301 h -7.51211 q -1.59015,0 -2.68681,-1.05301 -1.04182,-1.05302 -1.04182,-2.57989 v -21.58685 q 0,-1.52687 1.04182,-2.52724 1.09666,-1.05302 2.68681,-1.05302 h 7.51211 q 1.53532,0 2.63198,1.05302 1.09666,1.00037 1.09666,2.52724 z"
     id="text15-45"
     aria-label="ИО" />
  <path
     style="font-size:53.6921px;line-height:0;font-family:'GOST type B';-inkscape-font-specification:'GOST type B';display:none;stroke:#120000;stroke-width:1.07696;paint-order:fill markers stroke"
     d="m 193.15304,175.38972 v 30.59078 q 0,0.84244 0.54752,1.31631 0.60229,0.47387 1.31407,0.47387 0.8213,0 1.36883,-0.42122 0.54753,-0.47387 0.54753,-1.36896 v -30.59078 h 7.44637 q 0.9308,0 1.36883,-0.52652 0.49277,-0.57916 0.49277,-1.26364 0,-0.78978 -0.49277,-1.3163 -0.43803,-0.52652 -1.36883,-0.52652 h -18.6707 q -0.9308,0 -1.42358,0.57917 -0.49277,0.52652 -0.49277,1.26365 0,0.73713 0.49277,1.26364 0.54753,0.52652 1.42358,0.52652 z m 24.36505,10.79365 v -10.79365 h 13.14067 q 0.87604,0 1.36882,-0.52652 0.49277,-0.57916 0.49277,-1.26364 0,-0.78978 -0.49277,-1.3163 -0.43802,-0.52652 -1.36882,-0.52652 h -15.00227 q -1.91635,0 -1.91635,1.84282 v 32.48625 q 0,1.68487 1.91635,1.68487 h 15.00227 q 0.87604,0 1.36882,-0.52653 0.49277,-0.57917 0.49277,-1.26365 0,-0.78977 -0.49277,-1.26364 -0.43802,-0.52652 -1.36882,-0.52652 h -13.14067 v -14.42663 h 9.36272 q 0.9308,0 1.36883,-0.52652 0.49278,-0.52653 0.49278,-1.26364 0,-0.78979 -0.49278,-1.26365 -0.43803,-0.52653 -1.36883,-0.52653 z m 35.5346,0.31592 -9.69125,-13.90012 q -0.54752,-0.84243 -1.47833,-0.84243 -0.76653,0 -1.36881,0.52652 -0.60228,0.52652 -0.60228,1.26365 0,0.21061 0.0548,0.52652 0.0548,0.26326 0.27376,0.52652 l 10.51254,15.16376 -10.51254,15.21641 q -0.32851,0.47386 -0.32851,1.00038 0,0.73713 0.60228,1.31631 0.60228,0.52652 1.31406,0.52652 0.98556,0 1.53308,-0.84244 l 9.69125,-13.95276 9.63649,13.95276 q 0.54753,0.84244 1.47833,0.84244 0.82129,0 1.42357,-0.52652 0.60229,-0.57918 0.60229,-1.26365 0,-0.68447 -0.38328,-1.05304 l -10.51253,-15.21641 10.51253,-15.16376 q 0.38328,-0.52652 0.38328,-1.00039 0,-0.78978 -0.60229,-1.3163 -0.60228,-0.52652 -1.36882,-0.52652 -1.0403,0 -1.53308,0.84243 z m 39.25775,-0.31592 h -14.94752 v -12.58381 q 0,-0.89508 -0.60228,-1.36895 -0.54752,-0.47387 -1.25931,-0.47387 -0.82129,0 -1.36882,0.52652 -0.54753,0.47387 -0.54753,1.3163 v 32.38094 q 0,0.84244 0.54753,1.31631 0.60228,0.47387 1.36882,0.47387 0.82129,0 1.31406,-0.42122 0.54753,-0.47387 0.54753,-1.36896 v -16.21679 h 14.94752 v 16.21679 q 0,0.84244 0.54753,1.31631 0.54753,0.42121 1.31407,0.42121 0.71179,0 1.25931,-0.47387 0.60228,-0.47386 0.60228,-1.36895 v -32.38094 q 0,-0.84244 -0.54753,-1.3163 -0.54752,-0.47387 -1.31406,-0.47387 -0.76654,0 -1.31407,0.52652 -0.54753,0.47387 -0.54753,1.26365 z m 33.67303,19.79713 v -32.38094 q 0,-1.00039 -0.49278,-1.52691 -0.49278,-0.57917 -1.20457,-0.57917 -0.49277,0 -0.98554,0.31591 -0.49277,0.31591 -0.8213,0.89509 l -15.16652,26.32597 v -25.43089 q 0,-0.89508 -0.60228,-1.36895 -0.54753,-0.47387 -1.25932,-0.47387 -0.82129,0 -1.36881,0.52652 -0.54753,0.47387 -0.54753,1.3163 v 32.38094 q 0,0.94774 0.49277,1.52691 0.54753,0.52653 1.25931,0.52653 1.0403,0 1.80684,-1.211 l 15.16654,-26.27332 v 25.43088 q 0,0.84244 0.54753,1.31631 0.60227,0.47387 1.31406,0.47387 0.82129,0 1.31407,-0.42122 0.54753,-0.47387 0.54753,-1.36896 z m 11.27912,-18.63878 v -13.74216 q 0,-0.84243 -0.60228,-1.3163 -0.54752,-0.47387 -1.25931,-0.47387 -0.76654,0 -1.36882,0.47387 -0.54753,0.47387 -0.54753,1.3163 v 32.38094 q 0,0.84244 0.54753,1.31631 0.60228,0.47387 1.36882,0.47387 0.82129,0 1.31407,-0.42122 0.54752,-0.47387 0.54752,-1.36896 v -13.74215 l 4.43498,-4.21215 10.95056,18.79674 q 0.54753,1.00039 1.58783,1.00039 0.76654,0 1.36882,-0.47387 0.60229,-0.52652 0.60229,-1.3163 0,-0.42122 -0.27377,-0.94773 l -11.44333,-19.53388 11.11481,-10.68835 q 0.60229,-0.57916 0.60229,-1.26364 0,-0.73713 -0.60229,-1.26365 -0.54753,-0.57917 -1.31407,-0.57917 -0.71178,0 -1.31407,0.57917 z m 32.74223,11.37281 h 13.5787 l 2.68288,7.79249 q 0.21902,0.78979 0.93081,1.1057 0.54752,0.1053 0.82129,0.1053 0.71178,0 1.31406,-0.47387 0.60228,-0.47386 0.60228,-1.21099 0,-0.26326 -0.1095,-0.68447 l -11.27909,-32.38095 q -0.49276,-1.52691 -1.75208,-1.52691 -1.14981,0 -1.75209,1.52691 l -11.22433,32.38095 q -0.16426,0.3159 -0.16426,0.68447 0,0.73713 0.60229,1.21099 0.60228,0.47387 1.31407,0.47387 1.36881,0 1.75208,-1.211 z m 12.31938,-3.63297 h -11.06006 l 5.53003,-15.9009 z"
     id="text15-4"
     aria-label="ТЕХНИКА" />
  <polyline
     points="129.67 223.50 110.22 257.18"
     fill="none"
     stroke="#000000"
     stroke-width="2"
     id="polyline7"
     transform="matrix(1.000007,0,0,0.99861896,-39.645332,-39.37689)"
     style="display:none" />
  <polyline
     points="134.00 226.00 114.55 259.68"
     fill="none"
     stroke="#000000"
     stroke-width="2"
     id="polyline8"
     transform="matrix(1.000007,0,0,0.99861896,-39.645332,-39.37689)"
     style="display:none" />
  <polyline
     points="138.33 228.50 118.88 262.18"
     fill="none"
     stroke="#000000"
     stroke-width="2"
     id="polyline9"
     transform="matrix(1.000007,0,0,0.99861896,-39.645332,-39.37689)"
     style="display:none" />
  <polyline
     points="106.95 259.18 50.22 259.18"
     fill="none"
     stroke="#000000"
     stroke-width="2"
     id="polyline10"
     transform="matrix(1.000007,0,0,0.99861896,-39.645332,-39.37689)"
     style="display:none" />
  <polyline
     points="430.22 259.18 127.26 259.18"
     fill="none"
     stroke="#000000"
     stroke-width="2"
     id="polyline11"
     transform="matrix(1.000007,0,0,0.99861896,-39.645332,-39.37689)"
     style="display:none" />
  <ellipse
     cx="10.355018"
     cy="219.2654"
     fill="#000000"
     stroke="none"
     stroke-width="1.99937"
     id="circle11"
     rx="4.0000281"
     ry="3.9944761"
     style="display:none" />
  <ellipse
     cx="390.35767"
     cy="219.2654"
     fill="#000000"
     stroke="none"
     stroke-width="1.99937"
     id="circle12"
     rx="4.0000281"
     ry="3.9944761"
     style="display:none" />
  <polyline
     points="221.00 141.99 221.00 203.10"
     fill="none"
     stroke="#d6d6d6"
     stroke-width="4"
     id="polyline12"
     transform="matrix(0.99039397,0,0,1.3837467,-37.328592,-53.779904)"
     style="display:none;fill:#ff0000;fill-opacity:1;stroke:#ff0000;stroke-width:7.94296;stroke-dasharray:none;stroke-opacity:1" />
  <polyline
     points="240.66 141.99 240.66 203.10"
     fill="none"
     stroke="#d6d6d6"
     stroke-width="4"
     id="polyline13"
     transform="matrix(0.99039397,0,0,1.3837467,-37.328592,-53.779904)"
     style="display:none;fill:#ff0000;fill-opacity:1;stroke:#ff0000;stroke-width:7.94296;stroke-dasharray:none;stroke-opacity:1" />
  <polyline
     points="260.33 141.99 260.33 203.10"
     fill="none"
     stroke="#d6d6d6"
     stroke-width="4"
     id="polyline14"
     transform="matrix(0.99039397,0,0,1.3837467,-37.328592,-53.779904)"
     style="display:none;fill:#ff0000;fill-opacity:1;stroke:#ff0000;stroke-width:7.94296;stroke-dasharray:none;stroke-opacity:1" />
  <polygon
     points="285,130 197,130 197,142 285,142 "
     fill="#d6d6d6"
     stroke="#d6d6d6"
     stroke-width="4"
     id="polygon14"
     transform="matrix(0.99039397,0,0,1.3837467,-37.328592,-53.779904)"
     style="display:none;fill:#ff0000;fill-opacity:1;stroke:#ff0000;stroke-opacity:1" />
  <polygon
     points="268,100 269,102 270,105 270,107 270,130 256,130 254,130 227,130 211,130 211,116 211,107 212,102 214,99 216,96 219,95 222,94 225,93 227,93 254,93 259,94 263,95 266,97 "
     fill="#d6d6d6"
     stroke="#d6d6d6"
     stroke-width="4"
     id="polygon15"
     transform="matrix(0.99039397,0,0,1.3837467,-37.328592,-53.779904)"
     style="display:none;fill:#ff0000;fill-opacity:1;stroke:#ff0000;stroke-opacity:1" />
  <polygon
     points="124,211 120,218 146,233 150,226 "
     fill="#ff0000"
     stroke="#800000"
     stroke-width="1"
     id="polygon9-2"
     style="display:none;stroke-linecap:round;stroke-linejoin:round"
     transform="matrix(1.0020646,0,0,1.0006738,-38.859906,-39.886309)" />
  <path
     style="font-size:23.8317px;font-family:'GOST Common';-inkscape-font-specification:'GOST Common, Normal';display:none;stroke:#120000;stroke-width:0.3"
     d="m 11.956716,234.55211 q 0.168536,-0.64349 0.829714,-0.64349 h 8.20638 q 1.607569,0 2.359495,1.36419 0.350036,0.61775 0.350036,1.35132 0,0.34749 -0.09075,0.6821 l -2.12614,7.8634 q -0.181499,0.63062 -0.816748,0.63062 -0.337071,0 -0.609321,-0.24453 -0.259285,-0.25739 -0.259285,-0.57914 0,-0.11582 0.03889,-0.25739 l 1.996497,-7.41296 q 0.09075,-0.33461 0.09075,-0.63062 0,-1.06819 -1.387176,-1.06819 h -1.776104 l -2.592853,9.56221 q -0.1815,0.63062 -0.816749,0.63062 -0.337071,0 -0.60932,-0.24453 -0.259285,-0.25739 -0.259285,-0.57914 0,-0.11582 0.03889,-0.25739 l 2.476173,-9.11177 h -3.552208 l -2.592853,9.56221 q -0.1815,0.63062 -0.816748,0.63062 -0.3370713,0 -0.6093209,-0.24453 -0.2592853,-0.25739 -0.2592853,-0.57914 0,-0.11582 0.038893,-0.25739 z m 22.0522,3.60352 q 0.142607,-0.5534 0.142607,-0.93949 0,-1.60872 -2.100211,-1.60872 -2.64471,0 -3.34478,2.54821 l -0.233358,0.8494 h 5.31535 z m 1.776104,0 -0.687106,2.54821 h -7.078488 l -0.45375,1.6988 q -0.09075,0.33461 -0.09075,0.61774 0,1.08106 1.387177,1.08106 h 4.200422 q 0.855641,0 0.855641,0.84941 0,0.8494 -0.855641,0.8494 h -4.654171 q -1.114927,0 -1.918712,-0.79792 -0.79082,-0.79793 -0.79082,-1.90473 0,-0.36035 0.09075,-0.69496 l 1.140855,-4.24701 q 0.609321,-2.27794 1.905747,-3.25605 1.296427,-0.99096 3.681851,-0.99096 1.426069,0 2.39839,0.96523 0.985284,0.95236 0.985284,2.35515 0,0.48906 -0.116679,0.92663 z m 8.530499,1.89185 1.944639,4.56875 q 0.06483,0.15444 0.06483,0.36035 0,0.82367 -0.842677,0.82367 -0.570429,0 -0.790821,-0.51479 l -1.659426,-3.89952 -4.018922,4.15692 q -0.259285,0.25739 -0.635249,0.25739 -0.842677,0 -0.842677,-0.86228 0,-0.32174 0.233357,-0.56626 l 4.537493,-4.69745 -1.957605,-4.58162 q -0.06482,-0.15445 -0.06482,-0.33462 0,-0.34748 0.246321,-0.59201 0.246321,-0.25739 0.609321,-0.25739 0.557463,0 0.777855,0.51479 l 1.672391,3.92526 4.031886,-4.16978 q 0.259285,-0.27027 0.596357,-0.27027 0.868605,0 0.868605,0.82366 0,0.37322 -0.233357,0.61774 z m 13.819915,0.65636 h -5.315349 l -1.205677,4.46579 q -0.168535,0.63062 -0.829712,0.63062 -0.337071,0 -0.609321,-0.24453 -0.259285,-0.25739 -0.259285,-0.57914 0,-0.11582 0.03889,-0.25739 l 2.748424,-10.17995 q 0.168535,-0.63062 0.816749,-0.63062 0.350034,0 0.60932,0.24452 0.259285,0.24452 0.259285,0.59201 0,0.15443 -0.02592,0.24452 l -1.088998,4.01536 h 5.328313 l 1.205676,-4.46579 q 0.168535,-0.63062 0.816749,-0.63062 0.855641,0 0.855641,0.83653 0,0.15443 -0.02592,0.24452 l -2.748424,10.17996 q -0.168536,0.63062 -0.816749,0.63062 -0.337071,0 -0.60932,-0.24453 -0.259286,-0.25739 -0.259286,-0.57914 0,-0.11582 0.03889,-0.25739 z m 14.092168,-6.1646 q 0.168536,-0.63062 0.81675,-0.63062 0.855641,0 0.855641,0.83653 0,0.15443 -0.02592,0.24452 l -2.709532,9.96118 q -0.233357,0.8494 -1.114927,0.8494 h -4.420814 q -1.114927,0 -1.918712,-0.79792 -0.790819,-0.79793 -0.790819,-1.90473 0,-0.36035 0.09075,-0.69496 l 2.126139,-7.8634 q 0.168536,-0.63062 0.81675,-0.63062 0.855641,0 0.855641,0.83653 0,0.15443 -0.02592,0.24452 l -1.996497,7.41297 q -0.09075,0.33461 -0.09075,0.61774 0,1.08106 1.387177,1.08106 h 3.552209 z m 11.278924,10.63039 q -0.1815,0.63062 -0.816748,0.63062 -0.337071,0 -0.609321,-0.24453 -0.259285,-0.25739 -0.259285,-0.57914 0,-0.11582 0.03889,-0.25739 l 1.088999,-4.01535 h -3.552208 q -1.114928,0 -1.918712,-0.78506 -0.79082,-0.79792 -0.79082,-1.90471 0,-0.37324 0.09075,-0.70784 l 0.751927,-2.76699 q 0.168535,-0.63062 0.816749,-0.63062 0.855641,0 0.855641,0.83653 0,0.14157 -0.02592,0.24452 l -0.622285,2.31656 q -0.103714,0.38609 -0.103714,0.60487 0,1.09393 1.413104,1.09393 h 3.539245 l 1.218641,-4.46579 q 0.168535,-0.63062 0.816749,-0.63062 0.855641,0 0.855641,0.83653 0,0.15443 -0.02592,0.24452 z m 12.536449,-7.014 q 0.142607,-0.5534 0.142607,-0.93949 0,-1.60872 -2.10021,-1.60872 -2.644711,0 -3.344781,2.54821 l -0.233356,0.8494 h 5.315348 z m 1.776105,0 -0.687106,2.54821 h -7.078489 l -0.453749,1.6988 q -0.09075,0.33461 -0.09075,0.61774 0,1.08106 1.387176,1.08106 h 4.200422 q 0.855642,0 0.855642,0.84941 0,0.8494 -0.855642,0.8494 h -4.654171 q -1.114927,0 -1.918711,-0.79792 -0.79082,-0.79793 -0.79082,-1.90473 0,-0.36035 0.09075,-0.69496 l 1.140856,-4.24701 q 0.60932,-2.27794 1.905747,-3.25605 1.296426,-0.99096 3.681851,-0.99096 1.426069,0 2.398389,0.96523 0.985284,0.95236 0.985284,2.35515 0,0.48906 -0.116678,0.92663 z m 7.92118,7.64462 h -2.89103 q -1.11493,0 -1.91872,-0.79792 -0.79081,-0.79793 -0.79081,-1.90473 0,-0.36035 0.0907,-0.69496 l 1.3742,-5.09641 q 0.49265,-1.84037 1.55572,-2.62542 1.02418,-0.77219 2.90399,-0.77219 h 2.43729 q 0.85564,0 0.85564,0.8494 0,0.8494 -0.85564,0.8494 h -2.89103 q -1.78907,0 -2.24283,1.69881 l -1.36124,5.09641 q -0.10372,0.38609 -0.10372,0.54053 0,1.15827 1.40015,1.15827 h 2.43728 q 0.85564,0 0.85564,0.84941 0,0.8494 -0.85564,0.8494 z m 9.25649,-5.46964 -2.29467,1.75029 -0.82972,3.08873 q -0.16854,0.63062 -0.81674,0.63062 -0.33708,0 -0.60933,-0.24453 -0.25928,-0.25739 -0.25928,-0.57914 0,-0.11582 0.0388,-0.25739 l 2.74841,-10.17995 q 0.16854,-0.63062 0.81676,-0.63062 0.85563,0 0.85563,0.83653 0,0.15443 -0.0259,0.24452 l -1.17975,4.38859 6.92292,-5.28946 q 0.23335,-0.18018 0.51857,-0.18018 0.3241,0 0.59635,0.25739 0.27225,0.2574 0.27225,0.57914 0,0.4247 -0.35004,0.69496 l -5.01716,3.82232 2.52803,5.31519 q 0.0907,0.19305 0.0907,0.36035 0,0.34749 -0.25927,0.60489 -0.25929,0.25739 -0.60933,0.25739 -0.53153,0 -0.76489,-0.48906 z m 8.50457,1.22263 0.9075,-3.39761 q 0.60932,-2.27794 1.90574,-3.25605 1.29644,-0.99096 3.68186,-0.99096 1.42607,0 2.39839,0.96523 0.98528,0.95236 0.98528,2.35515 0,0.48906 -0.11668,0.92663 l -0.9075,3.39761 q -0.40189,1.48002 -1.12789,2.44525 -1.33532,1.80176 -4.4597,1.80176 -1.42607,0 -2.41136,-0.95237 -0.97232,-0.96522 -0.97232,-2.36803 0,-0.48904 0.11668,-0.92661 z m 7.07849,0 0.9075,-3.39761 q 0.14261,-0.52766 0.14261,-0.95236 0,-1.59585 -2.10021,-1.59585 -2.65768,0 -3.34478,2.54821 l -0.92047,3.39761 q -0.1426,0.52766 -0.1426,0.95236 0,1.59584 2.10021,1.59584 2.67063,0 3.35774,-2.5482 z m 13.31431,-3.39761 q 0.14261,-0.5534 0.14261,-0.93949 0,-1.60872 -2.10022,-1.60872 -2.64471,0 -3.34478,2.54821 l -0.23336,0.8494 h 5.31535 z m 1.7761,0 -0.68711,2.54821 h -7.07848 l -0.45375,1.6988 q -0.0907,0.33461 -0.0907,0.61774 0,1.08106 1.38718,1.08106 h 4.20042 q 0.85563,0 0.85563,0.84941 0,0.8494 -0.85563,0.8494 h -4.65418 q -1.11492,0 -1.91871,-0.79792 -0.79082,-0.79793 -0.79082,-1.90473 0,-0.36035 0.0907,-0.69496 l 1.14086,-4.24701 q 0.60932,-2.27794 1.90574,-3.25605 1.29643,-0.99096 3.68186,-0.99096 1.42607,0 2.39838,0.96523 0.98529,0.95236 0.98529,2.35515 0,0.48906 -0.11668,0.92663 z m 10.39736,-3.60352 q 0.16854,-0.64349 0.82972,-0.64349 h 8.20638 q 1.60757,0 2.3595,1.36419 0.35002,0.61775 0.35002,1.35132 0,0.34749 -0.0907,0.6821 l -2.12614,7.8634 q -0.1815,0.63062 -0.81675,0.63062 -0.33707,0 -0.60932,-0.24453 -0.25929,-0.25739 -0.25929,-0.57914 0,-0.11582 0.0389,-0.25739 l 1.99651,-7.41296 q 0.0907,-0.33461 0.0907,-0.63062 0,-1.06819 -1.38718,-1.06819 h -1.77611 l -2.59285,9.56221 q -0.1815,0.63062 -0.81675,0.63062 -0.33707,0 -0.60932,-0.24453 -0.25928,-0.25739 -0.25928,-0.57914 0,-0.11582 0.0388,-0.25739 l 2.47617,-9.11177 h -3.5522 l -2.59285,9.56221 q -0.18151,0.63062 -0.81676,0.63062 -0.33707,0 -0.60931,-0.24453 -0.25929,-0.25739 -0.25929,-0.57914 0,-0.11582 0.0388,-0.25739 z m 17.70918,-0.0257 q 1.24456,-0.61774 2.25578,-0.61774 0.66117,0 1.33532,-0.81079 0.68711,-0.8108 0.68711,-1.51863 0,-1.06819 -1.40015,-1.06819 -1.7761,0 -2.24281,1.69881 z m -1.12789,-2.31654 q 0.47967,-1.80177 1.52978,-2.59969 1.0501,-0.79793 2.94289,-0.79793 1.12789,0 1.91871,0.78506 0.79082,0.78506 0.79082,1.91759 0,0.83653 -0.42782,1.62159 -0.45375,0.86227 -1.17975,1.1454 1.78907,0.88801 1.78907,2.94716 0,0.48906 -0.11668,0.92663 l -0.9075,3.39761 q -0.62228,2.29081 -1.94464,3.26891 -1.30939,0.9781 -3.64296,0.9781 -1.42606,0 -2.41135,-0.95237 -0.97231,-0.96522 -0.97231,-2.36803 0,-0.48904 0.11667,-0.92661 z m 4.56342,9.34342 0.90749,-3.39761 q 0.14261,-0.52766 0.14261,-0.95236 0,-1.59585 -2.10021,-1.59585 -2.65768,0 -3.34478,2.54821 l -0.92046,3.39761 q -0.14261,0.52766 -0.14261,0.95236 0,1.59584 2.10021,1.59584 2.67064,0 3.35775,-2.5482 z m 5.31536,0 0.90751,-3.39761 q 0.60931,-2.27794 1.90574,-3.25605 1.29643,-0.99096 3.68186,-0.99096 1.42607,0 2.39839,0.96523 0.98528,0.95236 0.98528,2.35515 0,0.48906 -0.11668,0.92663 l -0.9075,3.39761 q -0.40189,1.48002 -1.12789,2.44525 -1.33532,1.80176 -4.4597,1.80176 -1.42607,0 -2.41136,-0.95237 -0.97232,-0.96522 -0.97232,-2.36803 0,-0.48904 0.11667,-0.92661 z m 7.0785,0 0.90749,-3.39761 q 0.14261,-0.52766 0.14261,-0.95236 0,-1.59585 -2.10021,-1.59585 -2.65768,0 -3.34478,2.54821 l -0.92047,3.39761 q -0.1426,0.52766 -0.1426,0.95236 0,1.59584 2.10021,1.59584 2.67064,0 3.35775,-2.5482 z m 7.20814,-7.00113 q 0.16853,-0.64349 0.82972,-0.64349 h 4.66713 q 1.12789,0 1.91871,0.79792 0.79082,0.78505 0.79082,1.90472 0,0.36036 -0.0907,0.69497 l -1.37421,5.09641 q -0.49265,1.8275 -1.55571,2.61255 -1.05011,0.78506 -2.91697,0.78506 h -3.53923 l -1.20569,4.46579 q -0.16853,0.63062 -0.81674,0.63062 -0.33707,0 -0.60933,-0.2574 -0.25928,-0.24452 -0.25928,-0.56626 0,-0.11583 0.0389,-0.2574 z m 1.49089,1.05531 -2.30764,8.49402 h 3.55221 q 1.78906,0 2.24282,-1.6988 l 1.36124,-5.09641 q 0.0907,-0.33461 0.0907,-0.61775 0,-1.08106 -1.38718,-1.08106 z m 16.89245,9.56221 q -0.1815,0.63062 -0.81675,0.63062 -0.33707,0 -0.60932,-0.24453 -0.25928,-0.25739 -0.25928,-0.57914 0,-0.11582 0.0388,-0.25739 l 1.089,-4.01535 h -3.55222 q -1.11492,0 -1.9187,-0.78506 -0.79082,-0.79792 -0.79082,-1.90471 0,-0.37324 0.0907,-0.70784 l 0.75193,-2.76699 q 0.16853,-0.63062 0.81674,-0.63062 0.85564,0 0.85564,0.83653 0,0.14157 -0.0259,0.24452 l -0.62229,2.31656 q -0.10371,0.38609 -0.10371,0.60487 0,1.09393 1.4131,1.09393 h 3.53925 l 1.21864,-4.46579 q 0.16853,-0.63062 0.81674,-0.63062 0.85565,0 0.85565,0.83653 0,0.15443 -0.0259,0.24452 z m 12.53646,-7.014 q 0.14261,-0.5534 0.14261,-0.93949 0,-1.60872 -2.10021,-1.60872 -2.64471,0 -3.34479,2.54821 l -0.23335,0.8494 h 5.31534 z m 1.77611,0 -0.68711,2.54821 h -7.07849 l -0.45375,1.6988 q -0.0907,0.33461 -0.0907,0.61774 0,1.08106 1.38718,1.08106 h 4.20042 q 0.85564,0 0.85564,0.84941 0,0.8494 -0.85564,0.8494 h -4.65418 q -1.11492,0 -1.91871,-0.79792 -0.79082,-0.79793 -0.79082,-1.90473 0,-0.36035 0.0907,-0.69496 l 1.14085,-4.24701 q 0.60932,-2.27794 1.90574,-3.25605 1.29643,-0.99096 3.68185,-0.99096 1.42607,0 2.39839,0.96523 0.98529,0.95236 0.98529,2.35515 0,0.48906 -0.11667,0.92663 z m 7.92117,7.64462 h -2.89103 q -1.11492,0 -1.91871,-0.79792 -0.79082,-0.79793 -0.79082,-1.90473 0,-0.36035 0.0907,-0.69496 l 1.37422,-5.09641 q 0.49264,-1.84037 1.55572,-2.62542 1.02417,-0.77219 2.90398,-0.77219 h 2.43729 q 0.85564,0 0.85564,0.8494 0,0.8494 -0.85564,0.8494 h -2.89103 q -1.78907,0 -2.24282,1.69881 l -1.36125,5.09641 q -0.10371,0.38609 -0.10371,0.54053 0,1.15827 1.40014,1.15827 h 2.43728 q 0.85565,0 0.85565,0.84941 0,0.8494 -0.85565,0.8494 z m 7.23406,-11.24814 q 0.16854,-0.64349 0.82972,-0.64349 h 8.20638 q 1.60757,0 2.3595,1.36419 0.35003,0.61775 0.35003,1.35132 0,0.34749 -0.0907,0.6821 l -2.12615,7.8634 q -0.18149,0.63062 -0.81674,0.63062 -0.33708,0 -0.60933,-0.24453 -0.25929,-0.25739 -0.25929,-0.57914 0,-0.11582 0.039,-0.25739 l 1.99649,-7.41296 q 0.0907,-0.33461 0.0907,-0.63062 0,-1.06819 -1.38718,-1.06819 h -1.77611 l -2.59285,9.56221 q -0.1815,0.63062 -0.81675,0.63062 -0.33707,0 -0.60931,-0.24453 -0.25929,-0.25739 -0.25929,-0.57914 0,-0.11582 0.0388,-0.25739 l 2.47617,-9.11177 h -3.5522 l -2.59285,9.56221 q -0.1815,0.63062 -0.81675,0.63062 -0.33708,0 -0.60932,-0.24453 -0.25929,-0.25739 -0.25929,-0.57914 0,-0.11582 0.0388,-0.25739 z m 17.70917,-0.0257 q 1.24457,-0.61774 2.25578,-0.61774 0.66117,0 1.33532,-0.81079 0.68711,-0.8108 0.68711,-1.51863 0,-1.06819 -1.40015,-1.06819 -1.7761,0 -2.24282,1.69881 z m -1.1279,-2.31654 q 0.47968,-1.80177 1.52979,-2.59969 1.0501,-0.79793 2.94289,-0.79793 1.12789,0 1.91871,0.78506 0.79081,0.78506 0.79081,1.91759 0,0.83653 -0.42782,1.62159 -0.45375,0.86227 -1.17974,1.1454 1.78907,0.88801 1.78907,2.94716 0,0.48906 -0.11668,0.92663 l -0.9075,3.39761 q -0.62229,2.29081 -1.94464,3.26891 -1.30939,0.9781 -3.64296,0.9781 -1.42607,0 -2.41135,-0.95237 -0.97232,-0.96522 -0.97232,-2.36803 0,-0.48904 0.11667,-0.92661 z m 4.56343,9.34342 0.90749,-3.39761 q 0.14261,-0.52766 0.14261,-0.95236 0,-1.59585 -2.10021,-1.59585 -2.65767,0 -3.34478,2.54821 l -0.92047,3.39761 q -0.1426,0.52766 -0.1426,0.95236 0,1.59584 2.10021,1.59584 2.67064,0 3.35775,-2.5482 z m 5.31536,0 0.9075,-3.39761 q 0.60933,-2.27794 1.90575,-3.25605 1.29643,-0.99096 3.68185,-0.99096 1.42607,0 2.39839,0.96523 0.98529,0.95236 0.98529,2.35515 0,0.48906 -0.11669,0.92663 l -0.90749,3.39761 q -0.40189,1.48002 -1.12789,2.44525 -1.33532,1.80176 -4.45971,1.80176 -1.42607,0 -2.41135,-0.95237 -0.97232,-0.96522 -0.97232,-2.36803 0,-0.48904 0.11667,-0.92661 z m 7.07849,0 0.90751,-3.39761 q 0.1426,-0.52766 0.1426,-0.95236 0,-1.59585 -2.10022,-1.59585 -2.65766,0 -3.34477,2.54821 l -0.92047,3.39761 q -0.14261,0.52766 -0.14261,0.95236 0,1.59584 2.10022,1.59584 2.67064,0 3.35774,-2.5482 z m 16.64613,5.97155 0.46672,-1.72454 h -3.53924 q -1.11493,0 -1.91872,-0.79792 -0.79082,-0.79793 -0.79082,-1.90473 0,-0.36035 0.0907,-0.69496 l 2.12614,-7.8634 q 0.16854,-0.63062 0.81675,-0.63062 0.85564,0 0.85564,0.83653 0,0.15443 -0.0259,0.24452 l -1.9965,7.41297 q -0.0907,0.33461 -0.0907,0.61774 0,1.08106 1.38718,1.08106 h 3.5522 l 2.59285,-9.5622 q 0.16854,-0.63062 0.81676,-0.63062 0.85563,0 0.85563,0.83653 0,0.15443 -0.0259,0.24452 l -3.38367,12.50938 q -0.64822,2.3809 -2.32061,3.05013 -0.85564,0.34748 -2.11318,0.34748 h -3.34477 q -0.85565,0 -0.85565,-0.8494 0,-0.8494 0.85565,-0.8494 h 3.75963 q 1.77611,0 2.22985,-1.67307 z m 14.81819,-2.35516 q -0.1815,0.63062 -0.81675,0.63062 -0.33707,0 -0.60932,-0.24453 -0.25929,-0.25739 -0.25929,-0.57914 0,-0.11582 0.0389,-0.25739 l 1.08899,-4.01535 h -3.5522 q -1.11493,0 -1.91871,-0.78506 -0.79083,-0.79792 -0.79083,-1.90471 0,-0.37324 0.0907,-0.70784 l 0.75193,-2.76699 q 0.16854,-0.63062 0.81675,-0.63062 0.85565,0 0.85565,0.83653 0,0.14157 -0.0259,0.24452 l -0.62228,2.31656 q -0.10372,0.38609 -0.10372,0.60487 0,1.09393 1.41311,1.09393 h 3.53924 l 1.21864,-4.46579 q 0.16854,-0.63062 0.81676,-0.63062 0.85564,0 0.85564,0.83653 0,0.15443 -0.0259,0.24452 z m 7.38963,-1.06819 h 1.7761 q 0.67414,0 1.36125,-0.51478 0.70007,-0.52767 0.88157,-1.18402 l 1.82796,-6.79522 h -3.53924 q -1.78907,0 -2.24282,1.69881 l -1.36125,5.09641 q -0.0907,0.33461 -0.0907,0.60488 0,1.09392 1.38717,1.09392 z m -0.45376,1.69881 q -1.11492,0 -1.9187,-0.78506 -0.79082,-0.78505 -0.79082,-1.89184 0,-0.3861 0.0907,-0.72071 l 1.37421,-5.09641 q 0.49264,-1.84037 1.55571,-2.62542 1.02418,-0.77219 2.904,-0.77219 h 4.43377 q 0.363,0 0.55747,0.24452 0.19446,0.24452 0.10371,0.60488 l -2.30764,8.49402 q -0.0388,0.11583 -0.0388,0.23165 0,0.61775 0.68711,0.61775 0.85564,0 0.66117,0.84941 -0.20742,0.8494 -1.11492,0.8494 -1.41311,0 -1.76314,-0.96523 -0.75193,0.96523 -2.67064,0.96523 z m 23.03748,0 h -8.88051 q -1.12789,0 -1.91871,-0.77219 -0.79082,-0.77218 -0.79082,-1.89184 0,-0.39897 0.0907,-0.73358 l 2.12614,-7.8634 q 0.16853,-0.63062 0.81674,-0.63062 0.33707,0 0.59636,0.24452 0.27225,0.24452 0.27225,0.57914 0,0.11583 -0.0388,0.25739 l -1.9965,7.41297 q -0.0907,0.33461 -0.0907,0.64349 0,1.05531 1.38717,1.05531 h 1.78908 l 2.59285,-9.5622 q 0.16854,-0.63062 0.80379,-0.63062 0.33707,0 0.59635,0.24452 0.27225,0.24452 0.27225,0.57914 0,0.1673 -0.0259,0.25739 l -2.46321,9.11177 h 3.53924 l 2.59286,-9.5622 q 0.16853,-0.63062 0.80378,-0.63062 0.33707,0 0.59636,0.24452 0.27224,0.24452 0.27224,0.57914 0,0.11583 -0.0388,0.25739 l -2.46321,9.11177 h 0.89454 q 0.32411,0 0.53153,0.27027 0.20743,0.25739 0.12965,0.57914 l -0.73896,2.76699 q -0.16854,0.63061 -0.81676,0.63061 -0.33707,0 -0.60932,-0.25739 -0.25928,-0.24453 -0.25928,-0.56627 0,-0.11583 0.0388,-0.2574 z m 15.45341,-11.26101 q 0.16853,-0.63062 0.81674,-0.63062 0.85565,0 0.85565,0.83653 0,0.15443 -0.0259,0.24452 l -2.70953,9.96118 q -0.23336,0.8494 -1.11493,0.8494 h -4.42081 q -1.11493,0 -1.91871,-0.79792 -0.79083,-0.79793 -0.79083,-1.90473 0,-0.36035 0.0907,-0.69496 l 2.12615,-7.8634 q 0.16853,-0.63062 0.81674,-0.63062 0.85565,0 0.85565,0.83653 0,0.15443 -0.0259,0.24452 l -1.99649,7.41297 q -0.0907,0.33461 -0.0907,0.61774 0,1.08106 1.38718,1.08106 h 3.5522 z m 9.30836,5.50824 1.94464,4.56875 q 0.0648,0.15444 0.0648,0.36035 0,0.82367 -0.84268,0.82367 -0.57043,0 -0.79081,-0.51479 l -1.65944,-3.89953 -4.01892,4.15693 q -0.25928,0.25739 -0.63525,0.25739 -0.84267,0 -0.84267,-0.86228 0,-0.32174 0.23336,-0.56626 l 4.53748,-4.69745 -1.9576,-4.58162 q -0.0648,-0.15445 -0.0648,-0.33462 0,-0.34748 0.24632,-0.59201 0.24632,-0.25739 0.60932,-0.25739 0.55747,0 0.77786,0.51479 l 1.67239,3.92526 4.03189,-4.16978 q 0.25928,-0.27027 0.59635,-0.27027 0.86861,0 0.86861,0.82366 0,0.37322 -0.23336,0.61774 z m 11.79748,5.75277 h -2.89103 q -1.11492,0 -1.9187,-0.79792 -0.79082,-0.79793 -0.79082,-1.90473 0,-0.36035 0.0907,-0.69496 l 1.37422,-5.09641 q 0.49264,-1.84037 1.55571,-2.62542 1.02417,-0.77219 2.90399,-0.77219 h 2.43728 q 0.85565,0 0.85565,0.8494 0,0.8494 -0.85565,0.8494 h -2.89103 q -1.78906,0 -2.24281,1.69881 l -1.36125,5.09641 q -0.10371,0.38609 -0.10371,0.54053 0,1.15827 1.40013,1.15827 h 2.43728 q 0.85565,0 0.85565,0.84941 0,0.8494 -0.85565,0.8494 z m 10.59183,-5.09641 -4.66713,4.83902 q -0.24632,0.25739 -0.60932,0.25739 -0.84268,0 -0.86861,-0.82367 -0.0129,-0.34748 0.24632,-0.61774 l 3.63,-3.77083 q -0.86861,-0.2574 -1.40015,-0.9781 -0.51856,-0.7207 -0.51856,-1.60872 0,-0.41183 0.0778,-0.69496 0.50561,-1.84037 1.51682,-2.61256 1.01122,-0.78505 2.94289,-0.78505 h 4.20041 q 0.33708,0 0.59636,0.24452 0.27226,0.24452 0.27226,0.57914 0,0.11583 -0.0388,0.25739 l -2.7614,10.17996 q -0.18149,0.63062 -0.81674,0.63062 -0.85565,0 -0.85565,-0.83653 0,-0.15445 0.0259,-0.24453 l 1.089,-4.01535 z m -1.02418,-1.69881 h 3.53925 l 0.93343,-3.39761 h -3.55222 q -1.72424,0 -2.25578,1.69881 -0.0778,0.24452 -0.0778,0.61775 0,1.08105 1.4131,1.08105 z"
     id="text1"
     aria-label="техническое творчество учащихся" />
  <metadata
     id="metadata1">
    <rdf:RDF>
      <cc:Work
         rdf:about="">
        <dc:title>logo</dc:title>
      </cc:Work>
    </rdf:RDF>
  </metadata>
</svg>
