<?xml version="1.0" encoding="UTF-8" standalone="no"?>
<!-- Created with "sPlan" (http://www.abacom-online.de) -->

<svg
   version="1.1"
   width="40mm"
   height="40mm"
   viewBox="0 0 400 399.99999"
   id="svg15"
   sodipodi:docname="favicon.svg"
   inkscape:version="1.4.2 (f4327f4, 2025-05-13)"
   inkscape:export-filename="logo1.svg"
   inkscape:export-xdpi="300"
   inkscape:export-ydpi="300"
   inkscape:export-batch-path="C:\Users\User\Desktop"
   inkscape:export-batch-name="logo1"
   xmlns:inkscape="http://www.inkscape.org/namespaces/inkscape"
   xmlns:sodipodi="http://sodipodi.sourceforge.net/DTD/sodipodi-0.dtd"
   xmlns="http://www.w3.org/2000/svg"
   xmlns:svg="http://www.w3.org/2000/svg"
   xmlns:rdf="http://www.w3.org/1999/02/22-rdf-syntax-ns#"
   xmlns:cc="http://creativecommons.org/ns#"
   xmlns:dc="http://purl.org/dc/elements/1.1/">
  <sodipodi:namedview
     id="namedview15"
     pagecolor="#ffffff"
     bordercolor="#000000"
     borderopacity="0.25"
     inkscape:showpageshadow="2"
     inkscape:pageopacity="0.0"
     inkscape:pagecheckerboard="true"
     inkscape:deskcolor="#d1d1d1"
     inkscape:document-units="mm"
     inkscape:zoom="4"
     inkscape:cx="53"
     inkscape:cy="81.875001"
     inkscape:window-width="1920"
     inkscape:window-height="1124"
     inkscape:window-x="1590"
     inkscape:window-y="-10"
     inkscape:window-maximized="1"
     inkscape:current-layer="svg15" />
  <title
     id="title1">logo</title>
  <defs
     id="defs1">
    <style
       type="text/css"
       id="style1"><![CDATA[
polyline {stroke-linecap:round; stroke-linejoin:round}
polygon {stroke-linecap:round; stroke-linejoin:round}
path {stroke-linecap:round; stroke-linejoin:round}
circle {stroke-linecap:round; stroke-linejoin:round}
]]></style>
    <inkscape:path-effect
       effect="fillet_chamfer"
       id="path-effect1-5-1"
       is_visible="true"
       lpeversion="1"
       nodesatellites_param="F,0,1,1,0,6.6972654,0,1 @ F,0,0,1,0,0,0,1 @ F,0,1,1,0,6.6972654,0,1 @ F,0,0,1,0,0,0,1 @ F,0,0,1,0,0,0,1 @ F,0,0,1,0,0,0,1 @ F,0,0,1,0,0,0,1 @ F,0,0,1,0,0,0,1"
       radius="2.5"
       unit="px"
       method="auto"
       mode="F"
       chamfer_steps="1"
       flexible="false"
       use_knot_distance="true"
       apply_no_radius="true"
       apply_with_radius="true"
       only_selected="true"
       hide_knots="false" />
    <inkscape:path-effect
       effect="fillet_chamfer"
       id="path-effect1-5-1-9"
       is_visible="true"
       lpeversion="1"
       nodesatellites_param="F,0,1,1,0,6.6972654,0,1 @ F,0,0,1,0,0,0,1 @ F,0,1,1,0,6.6972654,0,1 @ F,0,0,1,0,0,0,1 @ F,0,0,1,0,0,0,1 @ F,0,0,1,0,0,0,1 @ F,0,0,1,0,0,0,1 @ F,0,0,1,0,0,0,1"
       radius="2.5"
       unit="px"
       method="auto"
       mode="F"
       chamfer_steps="1"
       flexible="false"
       use_knot_distance="true"
       apply_no_radius="true"
       apply_with_radius="true"
       only_selected="true"
       hide_knots="false" />
    <inkscape:path-effect
       effect="fillet_chamfer"
       id="path-effect1-5-1-5"
       is_visible="true"
       lpeversion="1"
       nodesatellites_param="F,0,1,1,0,6.6972654,0,1 @ F,0,0,1,0,0,0,1 @ F,0,1,1,0,6.6972654,0,1 @ F,0,0,1,0,0,0,1 @ F,0,0,1,0,0,0,1 @ F,0,0,1,0,0,0,1 @ F,0,0,1,0,0,0,1 @ F,0,0,1,0,0,0,1"
       radius="2.5"
       unit="px"
       method="auto"
       mode="F"
       chamfer_steps="1"
       flexible="false"
       use_knot_distance="true"
       apply_no_radius="true"
       apply_with_radius="true"
       only_selected="true"
       hide_knots="false" />
  </defs>
  <rect
     style="fill:#00c231;fill-opacity:1;stroke:#120000;stroke-width:0.301381"
     id="rect1"
     width="399.69858"
     height="399.69861"
     x="0.15069054"
     y="0.15069054"
     rx="105.83333" />
  <polyline
     points="240.63 319.08 240.63 438.18"
     fill="none"
     stroke="#d6d6d6"
     stroke-width="4"
     id="polyline1"
     transform="matrix(1.000007,0,0,0.99861896,-40.166123,-39.887658)" />
  <ellipse
     cx="200.46556"
     cy="199.8508"
     fill="none"
     stroke="#d6d6d6"
     stroke-width="5.99812"
     id="circle1"
     rx="157.23109"
     ry="157.01283" />
  <polyline
     points="180.08 291.84 104.32 171.85"
     fill="none"
     stroke="#d6d6d6"
     stroke-width="4"
     id="polyline2"
     transform="matrix(1.000007,0,0,0.99861896,-40.1561,-39.887658)" />
  <polyline
     points="279.93 329.08 374.27 171.85"
     fill="none"
     stroke="#d6d6d6"
     stroke-width="4"
     id="polyline3"
     transform="matrix(1.000007,0,0,0.99861896,-40.1561,-39.887658)" />
  <polyline
     points="42.61 171.85 104.32 171.85"
     fill="none"
     stroke="#d6d6d6"
     stroke-width="4"
     id="polyline4"
     transform="matrix(1.000007,0,0,0.99861896,-40.1561,-39.887658)" />
  <polyline
     points="374.27 171.85 437.70 171.85"
     fill="none"
     stroke="#d6d6d6"
     stroke-width="4"
     id="polyline5"
     transform="matrix(1.000007,0,0,0.99861896,-40.1561,-39.887658)" />
  <polygon
     points="160,301 314,301 314,332 160,332 "
     fill="#d6d6d6"
     stroke="#d6d6d6"
     stroke-width="2"
     id="polygon5"
     transform="matrix(1.000007,0,0,0.99861896,-36.536098,-39.887658)" />
  <polygon
     points="185,301 178,262 155,277 "
     fill="#d6d6d6"
     stroke="#d6d6d6"
     stroke-width="1"
     id="polygon6"
     transform="matrix(1.000007,0,0,0.99861896,-40.1561,-39.887658)" />
  <path
     fill="rgb(0,0,0)"
     stroke="#000000"
     stroke-width="0"
     d="m 15.594288,189.07571 0.02,-13.9607 h 10.35007 l 0.490005,0.03 0.450003,0.10985 0.430002,0.16976 0.390004,0.23967 0.370001,0.31956 0.320004,0.35949 0.25,0.39945 0.180003,0.42941 0.1,0.46936 0.04,0.49931 -0.01,7.30989 -0.04,0.65908 -0.119999,0.59917 -0.190003,0.52926 -0.270002,0.46936 -0.350001,0.41942 -0.400005,0.33953 -0.4,0.26964 -0.410005,0.18973 -0.420002,0.10984 -0.430003,0.04 z m 0,4.27408 h 10.350071 l 1.28001,-0.0898 1.190008,-0.27961 1.110007,-0.45937 1.030007,-0.63911 0.940007,-0.82887 0.840005,-0.96865 0.640005,-1.03856 0.470003,-1.11847 0.280002,-1.19833 0.09,-1.27823 0.01,-7.30989 -0.09,-1.11846 -0.280002,-1.07851 -0.460003,-1.03856 -0.650005,-0.98864 -0.830005,-0.94869 -0.890007,-0.76892 -1.000006,-0.58919 -1.110008,-0.4294 -1.220009,-0.25965 -1.33001,-0.0798 H 13.204271 l -0.890007,0.07 -0.690004,0.2197 -0.500004,0.37947 -0.290001,0.51928 -0.100002,0.66909 -0.04,32.79463 0.03,0.4394 0.09,0.38947 0.149999,0.3595 0.210002,0.30956 0.270003,0.27962 0.310001,0.22967 0.330001,0.17976 0.340005,0.12983 0.360001,0.0699 0.380003,0.03 0.400003,-0.02 0.370002,-0.0798 0.340003,-0.11984 0.320003,-0.17975 0.290001,-0.2197 0.250002,-0.26963 0.190002,-0.31956 0.14,-0.3595 0.09,-0.39945 0.02,-0.44938 z m 32.550226,5.38257 H 60.51459 l 2.47002,7.46968 0.14,0.39944 0.2,0.3595 0.26,0.29957 0.32002,0.25965 0.38001,0.19972 0.24999,0.05 0.22,0.04 0.2,0.02 0.17,0.02 h 0.15 l 0.36,-0.02 0.35,-0.0798 0.33001,-0.12981 0.33002,-0.16976 0.31999,-0.22969 0.28,-0.26963 0.22,-0.30957 0.15,-0.32955 0.09,-0.36949 0.04,-0.38947 -0.01,-0.10983 -0.02,-0.0998 -0.02,-0.0998 -0.02,-0.0898 -0.04,-0.0998 -11.000077,-32.99437 -0.240002,-0.54924 -0.350003,-0.4394 -0.460002,-0.30956 -0.560004,-0.17976 -0.660004,-0.0599 -0.630006,0.07 -0.550004,0.2097 -0.460003,0.33954 -0.380003,0.48931 -0.290002,0.62915 -10.950076,32.5949 -0.07,0.16978 -0.05,0.14978 -0.04,0.1398 -0.03,0.12984 -0.01,0.10983 0.04,0.39945 0.09,0.36951 0.150002,0.32953 0.22,0.29959 0.280004,0.26963 0.320001,0.22969 0.330001,0.17974 0.330003,0.11983 0.350003,0.0798 0.360003,0.02 0.660004,-0.06 0.560004,-0.19973 0.460002,-0.31955 0.350004,-0.45937 0.250002,-0.58919 z m 10.980077,-4.27409 h -9.580068 l 4.810034,-15.50855 z m 83.870579,11.03473 0.04,-32.79463 -0.03,-0.32956 -0.06,-0.30957 -0.11,-0.28959 -0.16,-0.2896 -0.2,-0.25964 -0.25,-0.23967 -0.29,-0.17976 -0.34001,-0.12981 -0.39,-0.0798 -0.43,-0.03 -0.32001,0.02 -0.30001,0.05 -0.29,0.0898 -0.27,0.11984 -0.25,0.14979 -0.23,0.16977 -0.21,0.15978 -0.16999,0.15978 -0.14,0.15978 -0.12,0.14978 -13.69009,26.06397 0.03,-25.15521 -0.03,-0.27961 -0.08,-0.26964 -0.13001,-0.25964 -0.19001,-0.24965 -0.23,-0.22969 -0.29,-0.20971 -0.31,-0.15978 -0.35,-0.10986 -0.37999,-0.0698 -0.42,-0.02 -0.47001,0.02 -0.41001,0.0698 -0.37,0.11984 -0.33,0.15979 -0.27,0.21969 -0.22,0.23967 -0.18,0.23967 -0.12,0.25963 -0.08,0.25965 -0.02,0.26964 -0.04,32.79463 0.03,0.46937 0.08,0.42939 0.13,0.38946 0.19,0.34952 0.24,0.30958 0.28,0.26962 0.3,0.19972 0.33,0.1498 0.36,0.0798 0.37003,0.03 0.52999,-0.06 0.48999,-0.17975 0.45,-0.30958 0.42,-0.41941 0.39,-0.55923 13.70012,-26.30363 -0.03,25.15521 0.03,0.4394 0.09,0.38947 0.15,0.3595 0.21,0.30956 0.26999,0.27962 0.31,0.22967 0.32,0.17976 0.33,0.12983 0.35,0.0699 0.36002,0.03 0.4,-0.02 0.37,-0.0798 0.34,-0.11984 0.32001,-0.17975 0.29,-0.2197 0.25,-0.26963 0.2,-0.31956 0.14,-0.3595 0.08,-0.39945 z m 30.01022,-5.48243 0.02,-21.86973 -0.09,-1.11846 -0.28001,-1.07851 -0.46001,-1.03856 -0.65001,-0.98864 -0.82999,-0.94869 -0.89,-0.76892 -1.00002,-0.58919 -1.11,-0.4294 -1.22002,-0.25965 -1.32999,-0.0798 h -7.31006 l -1.34,0.0798 -1.24003,0.26962 -1.13999,0.44939 -1.04002,0.61915 -0.94,0.7989 -0.8,0.90873 -0.63002,0.96866 -0.44,1.01858 -0.27,1.06853 -0.09,1.11846 -0.02,21.86973 0.09,1.29822 0.28,1.21832 0.46,1.12844 0.64002,1.04855 0.83,0.95866 0.96,0.8089 1.05002,0.62912 1.11999,0.44938 1.20002,0.26963 1.28001,0.0898 h 7.31005 l 1.28,-0.0898 1.20002,-0.26963 1.11,-0.44938 1.02002,-0.62912 0.94,-0.8089 0.83999,-0.96866 0.65,-1.04854 0.47002,-1.12844 0.28001,-1.20833 z m -4.84004,0 -0.04,0.65911 -0.12,0.58918 -0.19,0.53926 -0.28,0.48932 -0.35,0.41942 -0.40002,0.34951 -0.4,0.27962 -0.42,0.18974 -0.41,0.11983 -0.43,0.04 h -7.31005 l -0.45001,-0.04 -0.43,-0.10985 -0.41,-0.19972 -0.40002,-0.26962 -0.39,-0.35951 -0.34,-0.41942 -0.27,-0.47933 -0.19,-0.53927 -0.11,-0.59916 -0.04,-0.65911 0.02,-21.86973 0.04,-0.49931 0.1,-0.46936 0.18,-0.42941 0.24,-0.39945 0.31,-0.35949 0.37,-0.31956 0.40003,-0.23967 0.42999,-0.16976 0.47,-0.10985 0.51001,-0.03 h 7.31006 l 0.48999,0.03 0.45,0.10985 0.43,0.16976 0.39001,0.23967 0.37001,0.31956 0.32,0.35949 0.25,0.39945 0.18,0.42941 0.1,0.46936 0.04,0.49931 z m 23.90016,-24.89556 -0.04,30.37799 0.03,0.4394 0.09,0.38947 0.15,0.3595 0.21,0.30956 0.27,0.27962 0.31,0.22967 0.32003,0.17976 0.32999,0.12983 0.35,0.0699 0.36,0.03 0.39,-0.02 0.37,-0.0798 0.35,-0.11984 0.33,-0.17975 0.30003,-0.2197 0.26,-0.26963 0.2,-0.30956 0.15,-0.35952 0.09,-0.40943 0.02,-0.44938 0.04,-30.37799 h 6.67002 l 0.45003,-0.03 0.41,-0.0898 0.36,-0.1498 0.31,-0.21969 0.27,-0.26963 0.22,-0.30956 0.18,-0.31956 0.12,-0.32956 0.07,-0.3395 0.03,-0.35951 -0.02,-0.24967 -0.07,-0.23967 -0.1,-0.24964 -0.15,-0.24967 -0.19,-0.24964 -0.25,-0.2297 -0.31,-0.16975 -0.38,-0.11983 -0.44,-0.0798 -0.51003,-0.02 h -18.21012 l -0.51,0.02 -0.45,0.0798 -0.39,0.12981 -0.32,0.17975 -0.25,0.22969 -0.2,0.24965 -0.15,0.24965 -0.11,0.24966 -0.07,0.23967 -0.02,0.22969 0.02,0.38945 0.08,0.3695 0.14,0.33951 0.19,0.31955 0.24,0.28962 0.29,0.25964 0.32,0.19972 0.36,0.1398 0.4,0.0798 0.43,0.03 z m 25.73019,10.33572 0.02,-10.33572 h 12.22007 l 0.43002,-0.03 0.4,-0.0898 0.35,-0.1498 0.32,-0.2097 0.27,-0.26962 0.23,-0.30957 0.18,-0.31956 0.13,-0.33955 0.08,-0.3395 0.03,-0.35951 -0.03,-0.24967 -0.06,-0.23967 -0.11,-0.24964 -0.14,-0.24967 -0.19,-0.24964 -0.25,-0.2297 -0.31,-0.16975 -0.38,-0.11983 -0.44,-0.0798 -0.51002,-0.02 h -14.63009 l -0.89003,0.0698 -0.68999,0.2197 -0.5,0.37947 -0.28999,0.51928 -0.1,0.66909 -0.04,32.90449 0.1,0.82885 0.3,0.6491 0.48999,0.45936 0.69,0.27962 0.89002,0.0898 h 14.63009 l 0.43,-0.03 0.40002,-0.0898 0.35,-0.1498 0.32,-0.2097 0.28,-0.26963 0.23,-0.30957 0.18,-0.31957 0.13,-0.33953 0.07,-0.33952 0.03,-0.35951 -0.02,-0.23967 -0.07,-0.24965 -0.1,-0.23966 -0.15,-0.23967 -0.2,-0.23967 -0.24,-0.2197 -0.31,-0.15977 -0.38,-0.11984 -0.44,-0.07 -0.51002,-0.03 H 217.7757 l 0.02,-14.01063 h 8.53005 l 0.45,-0.03 0.41001,-0.0898 0.36,-0.13982 0.31002,-0.19973 0.27,-0.25964 0.23,-0.29957 0.17,-0.31956 0.12,-0.33954 0.08,-0.35951 0.02,-0.37947 -0.02,-0.24964 -0.06,-0.23967 -0.11,-0.23967 -0.15,-0.24967 -0.19,-0.22968 -0.25,-0.21969 -0.31002,-0.16977 -0.38,-0.10985 -0.44001,-0.0798 -0.51,-0.02 z m 34.93024,-0.27962 -8.93005,-13.48135 -0.25003,-0.30957 -0.30999,-0.23967 -0.39,-0.16978 -0.46001,-0.0998 -0.53,-0.03 -0.44,0.02 -0.40001,0.0798 -0.37001,0.11983 -0.33,0.16975 -0.29,0.2297 -0.24999,0.24964 -0.2,0.23967 -0.13,0.23967 -0.09,0.2297 -0.02,0.22966 v 0.10984 l 0.01,0.12983 0.01,0.12984 0.02,0.13978 0.03,0.15978 0.04,0.14981 0.05,0.15978 0.07,0.1398 0.09,0.14979 0.1,0.13982 10.13007,15.18898 -10.17007,15.23893 -0.15,0.23967 -0.12,0.2197 -0.08,0.20971 -0.05,0.17974 -0.02,0.15978 0.03,0.39945 0.09,0.36949 0.15,0.34951 0.22,0.32955 0.26999,0.29959 0.32,0.25963 0.32,0.20972 0.35001,0.13981 0.35001,0.0898 0.37,0.03 0.49,-0.05 0.45001,-0.12982 0.4,-0.21968 0.35,-0.31956 0.30002,-0.39946 8.96005,-13.87081 8.88005,13.86083 0.31,0.40944 0.35002,0.30955 0.39,0.22969 0.43,0.12982 0.48,0.05 0.41,-0.03 0.38,-0.0898 0.36,-0.14979 0.34002,-0.19974 0.32,-0.25963 0.27,-0.30957 0.22001,-0.31957 0.15,-0.32952 0.09,-0.35951 0.03,-0.36951 -0.01,-0.19971 -0.05,-0.17976 -0.07,-0.16976 -0.1,-0.1398 -0.14001,-0.13981 -10.23007,-15.4786 10.16007,-15.179 0.17001,-0.27961 0.14,-0.27962 0.09,-0.26964 0.06,-0.26962 0.02,-0.26961 -0.03,-0.24967 -0.08,-0.23967 -0.14,-0.24964 -0.19001,-0.24967 -0.25,-0.24964 -0.29,-0.2297 -0.33001,-0.16975 -0.37001,-0.11983 -0.4,-0.0798 -0.44,-0.02 -0.58,0.04 -0.5,0.11984 -0.41002,0.20971 -0.34,0.28959 -0.26,0.36949 z m 38.45026,0.27962 h -13.38011 l 0.02,-12.75236 -0.03,-0.27961 -0.08,-0.26964 -0.13,-0.25964 -0.19,-0.24965 -0.23,-0.22969 -0.28999,-0.20971 -0.31,-0.15978 -0.35,-0.10986 -0.38,-0.0699 -0.42002,-0.02 -0.47,0.02 -0.41,0.0699 -0.37,0.11984 -0.33,0.15979 -0.27001,0.21969 -0.22,0.23967 -0.18,0.23967 -0.12,0.25963 -0.08,0.25965 -0.02,0.26964 -0.04,32.79463 0.03,0.4394 0.09,0.38947 0.15,0.3595 0.21,0.30956 0.27001,0.27962 0.31,0.22967 0.33,0.17976 0.34,0.12983 0.36,0.0699 0.38,0.03 0.40002,-0.02 0.37,-0.0798 0.34,-0.11984 0.32,-0.17975 0.29,-0.2197 0.24999,-0.26963 0.19,-0.31956 0.14,-0.3595 0.09,-0.39945 0.02,-0.44938 0.02,-15.81812 h 13.38011 l -0.02,15.81812 0.03,0.42942 0.09,0.39945 0.14002,0.34951 0.2,0.29958 0.26,0.26963 0.3,0.21969 0.32,0.16977 0.34,0.12982 0.35999,0.07 0.37999,0.02 0.36002,-0.02 0.34001,-0.0798 0.34,-0.12981 0.32,-0.17976 0.3,-0.22968 0.28,-0.27961 0.21,-0.31956 0.15,-0.35951 0.09,-0.40942 0.03,-0.4494 0.04,-32.79465 -0.03,-0.25961 -0.08,-0.25965 -0.12,-0.24966 -0.18,-0.23967 -0.23,-0.22968 -0.28,-0.20972 -0.31,-0.15977 -0.36,-0.11983 -0.39,-0.0699 -0.44003,-0.02 -0.44999,0.02 -0.39999,0.0699 -0.36,0.11983 -0.32,0.16977 -0.27,0.20971 -0.22,0.23967 -0.18,0.23967 -0.12001,0.24965 -0.08,0.23968 -0.02,0.25961 z m 34.82025,20.04227 0.04,-32.79463 -0.03,-0.32956 -0.06,-0.30957 -0.11,-0.28959 -0.16002,-0.2896 -0.2,-0.25964 -0.25001,-0.23967 -0.28998,-0.17976 -0.34,-0.12981 -0.39,-0.0798 -0.43,-0.03 -0.32,0.02 -0.3,0.05 -0.29002,0.0898 -0.27001,0.11984 -0.24999,0.14979 -0.23,0.16977 -0.21,0.15978 -0.17,0.15978 -0.14,0.15978 -0.12,0.14978 -13.69009,26.06397 0.03,-25.15521 -0.03,-0.27961 -0.08,-0.26964 -0.13,-0.25964 -0.19,-0.24965 -0.23002,-0.22969 -0.29001,-0.20971 -0.30999,-0.15978 -0.35,-0.10986 -0.38,-0.0698 -0.42,-0.02 -0.47,0.02 -0.41002,0.0698 -0.37002,0.11984 -0.32999,0.15979 -0.26999,0.21969 -0.22,0.23967 -0.18,0.23967 -0.12,0.25963 -0.08,0.25965 -0.02,0.26964 -0.04,32.79463 0.03,0.46937 0.08,0.42939 0.13,0.38946 0.19,0.34952 0.24,0.30958 0.27999,0.26962 0.29999,0.19972 0.33001,0.1498 0.36003,0.0798 0.37,0.03 0.53,-0.06 0.49,-0.17975 0.45,-0.30958 0.42,-0.41941 0.39002,-0.55923 13.70009,-26.30363 -0.03,25.15521 0.03,0.4394 0.09,0.38947 0.15,0.3595 0.21,0.30956 0.27,0.27962 0.31,0.22967 0.31999,0.17976 0.33001,0.12983 0.35002,0.0699 0.36,0.03 0.4,-0.02 0.37,-0.0798 0.34,-0.11984 0.31999,-0.17975 0.28999,-0.2197 0.25001,-0.26963 0.20001,-0.31956 0.14001,-0.3595 0.08,-0.39945 z m 11.80008,-19.47306 0.02,-13.32157 -0.03,-0.25965 -0.08,-0.25964 -0.13,-0.23967 -0.19,-0.23967 -0.23,-0.23966 -0.29,-0.19972 -0.31,-0.15978 -0.35002,-0.11984 -0.38001,-0.07 -0.41999,-0.02 -0.44,0.02 -0.4,0.07 -0.36,0.11984 -0.32,0.14978 -0.29002,0.20972 -0.24001,0.22968 -0.18,0.23966 -0.13999,0.24966 -0.08,0.25964 -0.02,0.25965 -0.04,32.79463 0.03,0.4394 0.09,0.38947 0.14999,0.3595 0.21001,0.30956 0.27001,0.27962 0.31001,0.22967 0.33,0.17976 0.34,0.12983 0.36,0.0699 0.38,0.03 0.39999,-0.02 0.37001,-0.0798 0.34002,-0.11984 0.32,-0.17975 0.29,-0.2197 0.25,-0.26963 0.19,-0.31956 0.14,-0.3595 0.09,-0.39945 0.02,-0.44938 0.02,-13.6711 3.59001,-3.90459 10.27007,18.72411 0.31001,0.46935 0.36002,0.37949 0.42,0.25962 0.47,0.15978 0.52,0.06 0.38,-0.03 0.36999,-0.0798 0.35002,-0.12982 0.34001,-0.18975 0.31,-0.23967 0.28,-0.28959 0.21,-0.31956 0.16,-0.33954 0.09,-0.38944 0.03,-0.40946 -0.01,-0.11983 -0.03,-0.12981 -0.05,-0.12983 -0.08,-0.13979 -0.09,-0.13982 -11.14007,-19.8725 10.68007,-10.60534 0.27,-0.31956 0.22,-0.33954 0.15,-0.33952 0.09,-0.34953 0.03,-0.36947 -0.03,-0.22969 -0.07,-0.22968 -0.13,-0.24966 -0.18,-0.24966 -0.24,-0.24965 -0.28,-0.23967 -0.32,-0.17975 -0.36002,-0.12981 -0.41001,-0.0798 -0.44999,-0.02 -0.43,0.02 -0.38,0.0699 -0.34,0.11984 -0.3,0.15979 -0.26002,0.21969 z m 32.55022,12.71242 h 12.3701 l 2.47001,7.46968 0.14,0.39944 0.2,0.3595 0.25999,0.29957 0.32,0.25965 0.38001,0.19972 0.25002,0.05 0.22,0.04 0.2,0.02 0.17,0.02 h 0.15 l 0.36,-0.02 0.35,-0.0798 0.32999,-0.12981 0.33,-0.16976 0.32,-0.22969 0.28002,-0.26963 0.22,-0.30957 0.15001,-0.32955 0.09,-0.36949 0.04,-0.38947 -0.01,-0.10983 -0.02,-0.0998 -0.02,-0.0998 -0.02,-0.0898 -0.04,-0.0998 -11.00008,-32.99437 -0.24002,-0.54924 -0.35001,-0.4394 -0.45998,-0.30956 -0.56,-0.17976 -0.66,-0.0599 -0.63002,0.07 -0.55001,0.2097 -0.45999,0.33954 -0.38,0.48931 -0.29001,0.62915 -10.95007,32.5949 -0.07,0.16978 -0.05,0.14978 -0.04,0.1398 -0.03,0.12984 -0.01,0.10983 0.04,0.39945 0.09,0.36951 0.15,0.32953 0.22,0.29959 0.28,0.26963 0.32,0.22969 0.33,0.17974 0.32999,0.11983 0.35001,0.0798 0.36002,0.02 0.66,-0.06 0.56001,-0.19973 0.46,-0.31955 0.34998,-0.45937 0.25001,-0.58919 z m 10.98008,-4.27409 h -9.58006 l 4.81004,-15.50855 z"
     id="path6"
     style="display:none;fill:#ff0000" />
  <path
     fill="rgb(0,0,0)"
     stroke="#000000"
     stroke-width="0"
     d="m 11.474258,234.03353 0.08,-0.22967 0.130002,-0.17976 0.160002,-0.12981 0.209999,-0.0798 0.240003,-0.02 h 8.160056 l 0.610004,0.05 0.530004,0.16978 0.470004,0.26962 0.400004,0.37947 0.330001,0.48933 0.13,0.24964 0.09,0.25964 0.07,0.26963 0.05,0.27961 0.01,0.2896 v 0.13982 l -0.02,0.1398 -0.01,0.13981 -0.03,0.12982 -0.03,0.13981 -2.120015,7.84913 -0.09,0.21971 -0.130002,0.17974 -0.160002,0.12982 -0.199999,0.07 -0.230002,0.03 -0.130002,-0.01 -0.13,-0.03 -0.120002,-0.05 -0.12,-0.0699 -0.1,-0.0898 -0.100001,-0.0998 -0.07,-0.10984 -0.06,-0.11984 -0.03,-0.11983 -0.01,-0.11984 v -0.05 l 0.01,-0.05 0.01,-0.05 0.01,-0.05 0.01,-0.06 2.000012,-7.36981 0.03,-0.12983 0.02,-0.1298 0.02,-0.12981 0.01,-0.11984 0.01,-0.11983 -0.06,-0.3795 -0.16,-0.29958 -0.280001,-0.20971 -0.390004,-0.12982 -0.500004,-0.04 h -1.760011 l -2.590018,9.50685 -0.09,0.21971 -0.120003,0.17974 -0.160001,0.12982 -0.2,0.07 -0.240002,0.03 -0.130002,-0.01 -0.119999,-0.03 -0.120002,-0.05 -0.120001,-0.07 -0.11,-0.0898 -0.09,-0.0998 -0.08,-0.10984 -0.05,-0.11984 -0.03,-0.11983 -0.01,-0.11983 v -0.05 -0.05 l 0.01,-0.05 0.01,-0.05 0.01,-0.0601 2.480015,-9.05748 h -3.540022 l -2.580019,9.50685 -0.09,0.21971 -0.130002,0.17974 -0.160002,0.12982 -0.2,0.0701 -0.230002,0.03 -0.140002,-0.01 -0.119999,-0.03 -0.120002,-0.05 -0.12,-0.07 -0.100001,-0.0898 -0.100002,-0.10985 -0.07,-0.10985 -0.05,-0.10984 -0.04,-0.11983 -0.01,-0.12983 0.01,-0.04 v -0.05 l 0.01,-0.05 0.01,-0.06 0.01,-0.0598 z m 22.010153,3.48519 0.05,-0.19972 0.04,-0.18974 0.03,-0.17975 0.02,-0.15978 v -0.14979 l -0.08,-0.54926 -0.250001,-0.41941 -0.420005,-0.29959 -0.580003,-0.17975 -0.750005,-0.06 -0.980007,0.0898 -0.820006,0.2896 -0.660004,0.47934 -0.510003,0.66907 -0.360004,0.85882 -0.230001,0.79889 h 5.290038 z m 1.770012,0.04 -0.690004,2.49654 H 27.53437 l -0.460004,1.73759 -0.03,0.12983 -0.03,0.12983 -0.01,0.12981 -0.02,0.11983 v 0.11984 l 0.05,0.39944 0.170003,0.30959 0.280001,0.21967 0.380002,0.12983 0.500003,0.05 h 4.170031 l 0.31,0.03 0.240003,0.10984 0.170002,0.16976 0.1,0.23967 0.03,0.31956 -0.03,0.30958 -0.1,0.23967 -0.170002,0.17975 -0.240003,0.0998 -0.31,0.04 h -4.620033 l -0.430003,-0.03 -0.410004,-0.0998 -0.380001,-0.15978 -0.350003,-0.2197 -0.330004,-0.2896 -0.290001,-0.32953 -0.220001,-0.35951 -0.160001,-0.37948 -0.09,-0.39945 -0.03,-0.42939 v -0.1498 l 0.01,-0.13981 0.02,-0.13981 0.03,-0.1398 0.03,-0.12983 1.140008,-4.24412 0.270002,-0.85882 0.320001,-0.74897 0.380004,-0.65908 0.440002,-0.53925 0.490003,-0.44939 0.550004,-0.34951 0.650006,-0.27962 0.730004,-0.19971 0.820006,-0.10986 0.910007,-0.04 0.550003,0.03 0.510005,0.11984 0.480002,0.18974 0.440003,0.25963 0.400002,0.33952 0.350003,0.38947 0.280001,0.42941 0.190002,0.45935 0.120001,0.49933 0.03,0.53925 v 0.18974 l -0.01,0.17974 -0.03,0.17976 -0.03,0.17974 z m 8.610061,1.96726 1.930013,4.5537 0.02,0.07 0.02,0.0701 0.01,0.0699 0.01,0.0699 v 0.0798 l -0.03,0.29959 -0.100001,0.22969 -0.170001,0.16976 -0.230002,0.0898 -0.300002,0.04 -0.220001,-0.02 -0.180001,-0.0699 -0.160002,-0.0998 -0.129999,-0.1398 -0.100002,-0.18975 -1.640011,-3.89461 -4.000026,4.15426 -0.110002,0.0898 -0.120002,0.07 -0.130001,0.06 -0.130001,0.03 -0.15,0.01 -0.300004,-0.04 -0.23,-0.0998 -0.170001,-0.16977 -0.100001,-0.23967 -0.03,-0.30956 0.01,-0.12983 0.02,-0.11984 0.05,-0.10983 0.07,-0.10985 0.08,-0.0998 4.510031,-4.6935 -1.940012,-4.57369 -0.02,-0.0598 -0.02,-0.07 -0.01,-0.06 -0.01,-0.0699 v -0.0798 l 0.01,-0.12982 0.03,-0.12983 0.05,-0.11981 0.07,-0.10987 0.09,-0.0998 0.1,-0.0898 0.110001,-0.07 0.120002,-0.05 0.129999,-0.03 0.140003,-0.01 0.210001,0.02 0.18,0.06 0.160001,0.0998 0.130001,0.14979 0.100001,0.17974 1.650012,3.92459 4.020027,-4.16426 0.100002,-0.0998 0.12,-0.0798 0.110002,-0.05 0.13,-0.03 0.13,-0.01 0.310004,0.03 0.240001,0.0998 0.17,0.15978 0.110003,0.22968 0.03,0.29958 -0.01,0.14981 -0.03,0.1298 -0.04,0.11984 -0.07,0.11983 -0.08,0.0998 z m 13.870096,0.52928 h -5.280037 l -1.200007,4.5637 -0.09,0.22967 -0.12,0.17975 -0.170002,0.12982 -0.2,0.0798 -0.250002,0.03 -0.130001,-0.01 -0.12,-0.03 -0.120003,-0.05 -0.12,-0.07 -0.100002,-0.0898 -0.1,-0.10985 -0.07,-0.10985 -0.06,-0.10984 -0.03,-0.11983 -0.01,-0.12983 v -0.04 l 0.01,-0.05 v -0.05 l 0.01,-0.0601 0.02,-0.06 2.740018,-10.15596 0.09,-0.22969 0.120002,-0.17973 0.17,-0.11984 0.200002,-0.0798 0.240001,-0.02 0.130002,0.01 0.130001,0.02 0.119999,0.05 0.110001,0.07 0.110001,0.0798 0.09,0.0998 0.08,0.10984 0.05,0.10985 0.03,0.12982 v 0.12983 0.06 0.05 0.04 l -0.01,0.05 -0.01,0.03 -1.080008,3.88463 h 5.300037 l 1.200009,-4.31403 0.08,-0.2197 0.130001,-0.16975 0.160002,-0.12983 0.199992,-0.07 0.240004,-0.02 0.3,0.03 0.24,0.0998 0.17,0.16978 0.10001,0.22967 0.04,0.30957 -0.01,0.05 v 0.06 0.05 l -0.01,0.04 -0.01,0.04 -2.740018,10.16593 -0.09,0.21971 -0.12,0.17974 -0.170002,0.12982 -0.200002,0.0699 -0.230002,0.03 -0.140001,-0.01 -0.120001,-0.03 -0.12,-0.06 -0.11,-0.07 -0.110002,-0.0898 -0.100001,-0.0998 -0.07,-0.11983 -0.05,-0.10985 -0.03,-0.12982 -0.02,-0.12981 0.01,-0.04 v -0.05 l 0.01,-0.06 0.01,-0.05 0.01,-0.0599 z m 14.1601,-6.03166 0.09,-0.22969 0.12,-0.17973 0.16,-0.11984 0.2,-0.0798 0.24,-0.02 0.31,0.03 0.24,0.0998 0.17,0.16978 0.1,0.22967 0.03,0.30957 v 0.05 l -0.01,0.06 v 0.05 l -0.01,0.04 -0.01,0.04 -2.70003,9.94624 -0.12,0.29957 -0.17,0.23967 -0.22,0.16977 -0.27,0.0998 -0.33,0.04 h -4.39003 l -0.43,-0.03 -0.41,-0.0998 -0.37999,-0.15978 -0.35001,-0.2197 -0.33002,-0.2896 -0.29,-0.32953 -0.22,-0.35951 -0.16,-0.37948 -0.09,-0.39945 -0.03,-0.42939 v -0.1498 l 0.01,-0.13981 0.02,-0.13981 0.03,-0.1398 0.03,-0.12983 2.12002,-7.84914 0.09,-0.22969 0.12,-0.17973 0.16,-0.11984 0.2,-0.0798 0.24,-0.02 0.31,0.03 0.24,0.0998 0.16001,0.16978 0.11001,0.22967 0.03,0.29958 v 0.0599 l -0.01,0.05 v 0.05 l -0.01,0.05 -0.01,0.04 -1.99002,7.3698 -0.03,0.12982 -0.03,0.11984 -0.01,0.12981 -0.02,0.10986 v 0.11984 l 0.05,0.38944 0.17,0.29959 0.28,0.2097 0.38,0.12983 0.5,0.05 h 3.53005 z m 11.34008,10.61531 -0.09,0.21971 -0.13,0.17974 -0.16,0.12982 -0.19999,0.07 -0.24001,0.03 -0.13,-0.01 -0.12001,-0.03 -0.12001,-0.06 -0.12,-0.07 -0.11,-0.0898 -0.09,-0.0998 -0.07,-0.11983 -0.06,-0.10985 -0.03,-0.12982 -0.01,-0.12981 v -0.04 l 0.01,-0.05 v -0.06 l 0.01,-0.05 0.02,-0.0599 1.08003,-4.10431 h -3.52005 l -0.44,-0.03 -0.4,-0.0998 -0.38,-0.14978 -0.36,-0.21971 -0.32999,-0.2796 -0.28002,-0.31956 -0.22001,-0.34952 -0.16,-0.36949 -0.09,-0.39945 -0.04,-0.41942 0.01,-0.14978 0.01,-0.13981 0.02,-0.1398 0.02,-0.13982 0.03,-0.12981 0.76003,-2.70627 0.08,-0.22968 0.12999,-0.16975 0.16,-0.11984 0.2,-0.0798 0.24,-0.02 0.3,0.03 0.24,0.0998 0.17,0.15978 0.1,0.22968 0.03,0.28961 v 0.05 0.05 0.05 l -0.01,0.04 -0.01,0.04 -0.62,2.23692 -0.04,0.14978 -0.03,0.12983 -0.02,0.10983 -0.01,0.10986 v 0.0898 l 0.05,0.37949 0.17,0.29958 0.28,0.20971 0.4,0.11982 0.50002,0.05 h 3.52002 l 1.22,-4.31403 0.08,-0.2197 0.13,-0.16975 0.16,-0.12983 0.20002,-0.0699 0.24001,-0.02 0.29999,0.03 0.23999,0.0998 0.17,0.16978 0.1,0.22967 0.04,0.30957 -0.01,0.05 v 0.06 0.05 l -0.01,0.04 -0.01,0.04 z m 12.60011,-7.12014 0.05,-0.19972 0.04,-0.18974 0.03,-0.17975 0.02,-0.15978 v -0.14979 l -0.08,-0.54926 -0.25001,-0.41941 -0.42003,-0.29959 -0.58,-0.17975 -0.75,-0.06 -0.98,0.0898 -0.82002,0.2896 -0.66,0.47934 -0.50999,0.66907 -0.35999,0.85882 -0.23001,0.79889 h 5.29004 z m 1.76998,0.04 -0.69,2.49654 H 89.8848 l -0.46,1.73759 -0.03,0.12983 -0.03,0.12983 -0.01,0.12981 -0.02,0.11983 v 0.11984 l 0.05,0.39944 0.17,0.30959 0.28,0.21967 0.38002,0.12983 0.5,0.05 h 4.17001 l 0.31,0.03 0.24002,0.10984 0.17001,0.16976 0.10001,0.23967 0.03,0.31956 -0.03,0.30958 -0.10001,0.23967 -0.17001,0.17975 -0.24002,0.0998 -0.31,0.04 h -4.62001 l -0.43002,-0.03 -0.41,-0.0998 -0.38,-0.15978 -0.35,-0.2197 -0.33,-0.2896 -0.29,-0.32953 -0.21999,-0.35951 -0.16001,-0.37948 -0.09,-0.39945 -0.03,-0.42939 v -0.1498 l 0.01,-0.13981 0.02,-0.13981 0.03,-0.1398 0.03,-0.12983 1.14001,-4.24412 0.27,-0.85882 0.32,-0.74897 0.38,-0.65908 0.44002,-0.53925 0.49,-0.44939 0.54999,-0.34951 0.65,-0.27962 0.73,-0.19971 0.82002,-0.10986 0.91,-0.04 0.55,0.03 0.51002,0.11984 0.48002,0.18974 0.43998,0.25963 0.4,0.33952 0.35,0.38947 0.28,0.42941 0.19,0.45935 0.12,0.49933 0.03,0.53925 v 0.18974 l -0.01,0.17974 -0.03,0.17976 -0.03,0.17974 z m 8.00006,7.70933 h -2.87003 l -0.43,-0.03 -0.41,-0.0998 -0.37999,-0.15978 -0.34999,-0.2197 -0.33001,-0.2896 -0.29002,-0.32953 -0.22,-0.35951 -0.16,-0.37948 -0.09,-0.39945 -0.03,-0.42939 v -0.1498 l 0.01,-0.13981 0.02,-0.13981 0.03,-0.1398 0.03,-0.12983 1.37002,-5.08296 0.21999,-0.69905 0.26,-0.60915 0.31,-0.51928 0.36,-0.44937 0.4,-0.34952 0.44003,-0.27961 0.51,-0.21971 0.58,-0.14979 0.64,-0.0898 0.72,-0.03 h 2.42001 l 0.30001,0.03 0.24002,0.10986 0.17,0.16975 0.1,0.23967 0.04,0.31956 -0.04,0.30956 -0.1,0.23967 -0.17,0.17976 -0.24002,0.0998 -0.31001,0.04 h -2.87001 l -0.66,0.0601 -0.55,0.20971 -0.44,0.32954 -0.34,0.46936 -0.24002,0.60916 -1.36001,5.04302 -0.03,0.1398 -0.03,0.11984 -0.02,0.10985 -0.01,0.0898 -0.01,0.0701 0.06,0.40942 0.16,0.31956 0.28,0.2297 0.39,0.1398 0.50001,0.05 h 2.42002 l 0.31,0.03 0.24002,0.10984 0.16001,0.16977 0.11,0.23966 0.03,0.31956 -0.03,0.30958 -0.11,0.23967 -0.16001,0.17975 -0.24002,0.0998 z m 9.08007,-5.47244 -2.28002,1.74759 -0.82998,3.09571 -0.09,0.21971 -0.12,0.17974 -0.16002,0.12982 -0.2,0.07 -0.24001,0.03 -0.14,-0.01 -0.12,-0.03 -0.12,-0.05 -0.12,-0.07 -0.1,-0.0898 -0.1,-0.10985 -0.07,-0.10985 -0.05,-0.10984 -0.04,-0.11983 -0.01,-0.12983 0.01,-0.04 v -0.05 l 0.01,-0.05 0.01,-0.06 0.01,-0.06 2.75002,-10.15596 0.08,-0.22969 0.13,-0.17973 0.16,-0.11984 0.2,-0.0798 0.24,-0.02 0.3,0.03 0.24002,0.0998 0.17001,0.16978 0.1,0.22967 0.03,0.30957 v 0.05 0.06 0.05 l -0.01,0.04 -0.01,0.04 -1.18003,4.38393 6.90006,-5.17284 0.09,-0.10984 0.1,-0.0798 0.1,-0.06 0.11,-0.03 0.11,-0.01 0.13,0.01 0.12,0.03 0.12,0.05 0.11,0.07 0.11,0.0998 0.1,0.0998 0.08,0.10985 0.05,0.11983 0.03,0.11984 0.01,0.12982 -0.01,0.15978 -0.05,0.14979 -0.07,0.1398 -0.09,0.11984 -0.13,0.11983 -4.99004,3.81473 2.51001,5.30266 0.03,0.0798 0.02,0.0798 0.02,0.0699 0.01,0.07 0.01,0.07 -0.01,0.12982 -0.03,0.1298 -0.06,0.11984 -0.07,0.10985 -0.09,0.10985 -0.11,0.0898 -0.11,0.0699 -0.12,0.06 -0.13,0.03 -0.14,0.01 -0.2,-0.02 -0.16999,-0.0599 -0.15,-0.0998 -0.13,-0.1398 -0.1,-0.16976 z m 8.59005,1.22831 0.91,-3.3953 0.27,-0.85882 0.32003,-0.74897 0.37999,-0.65908 0.44,-0.53925 0.49,-0.44939 0.55001,-0.34951 0.65002,-0.27962 0.73,-0.19971 0.81999,-0.10986 0.91,-0.04 0.55002,0.04 0.51,0.10986 0.48,0.18974 0.44,0.26962 0.4,0.34951 0.35001,0.39946 0.28002,0.4294 0.18999,0.47933 0.12,0.49932 0.03,0.54924 v 0.18972 l -0.01,0.18975 -0.03,0.18974 -0.03,0.17974 -0.04,0.16978 -0.91002,3.3953 -0.17,0.56921 -0.2,0.52928 -0.23,0.48933 -0.25,0.44935 -0.27,0.39946 -0.61,0.6491 -0.74002,0.50931 -0.89,0.35949 -1.01999,0.20971 -1.18002,0.0798 -0.54001,-0.04 -0.52,-0.11983 -0.48,-0.18974 -0.44001,-0.26962 -0.41001,-0.33954 -0.35,-0.39945 -0.27,-0.43939 -0.19,-0.46935 -0.12,-0.50928 -0.04,-0.53927 0.01,-0.19972 0.01,-0.18974 0.02,-0.17975 0.04,-0.17975 z m 7.04006,-0.02 0.9,-3.35537 0.05,-0.19972 0.04,-0.19972 0.03,-0.18975 0.02,-0.17973 v -0.16977 l -0.08,-0.56921 -0.25,-0.43941 -0.42,-0.31955 -0.57999,-0.18974 -0.75003,-0.0601 -0.98,0.0998 -0.81998,0.29958 -0.67003,0.5093 -0.51001,0.69903 -0.35,0.90874 -0.92,3.35537 -0.05,0.20971 -0.04,0.18973 -0.03,0.18974 -0.02,0.17976 v 0.17974 l 0.08,0.55923 0.25,0.44938 0.42,0.30956 0.58,0.18975 0.75001,0.07 0.99002,-0.0998 0.81999,-0.30956 0.67,-0.49931 0.51002,-0.70903 z m 13.3701,-3.48518 0.05,-0.19972 0.04,-0.18974 0.03,-0.17975 0.02,-0.15978 v -0.14979 l -0.08,-0.54926 -0.25,-0.41941 -0.42001,-0.29959 -0.58001,-0.17975 -0.75001,-0.0601 -0.98,0.0898 -0.82002,0.2896 -0.66,0.47934 -0.50999,0.66907 -0.36,0.85882 -0.23,0.79889 h 5.29004 z m 1.76999,0.04 -0.69,2.49654 h -7.03005 l -0.46,1.73759 -0.03,0.12983 -0.03,0.12983 -0.01,0.12981 -0.02,0.11983 v 0.11984 l 0.05,0.39944 0.17,0.30959 0.28,0.21967 0.38003,0.12983 0.49999,0.05 h 4.17002 l 0.31,0.03 0.24003,0.10984 0.16999,0.16976 0.1,0.23967 0.03,0.31956 -0.03,0.30958 -0.1,0.23967 -0.16999,0.17975 -0.24003,0.0998 -0.31,0.04 h -4.62002 l -0.43002,-0.03 -0.41,-0.0998 -0.38,-0.15978 -0.35,-0.2197 -0.33,-0.2896 -0.29,-0.32953 -0.22,-0.35951 -0.16,-0.37948 -0.09,-0.39945 -0.03,-0.42939 v -0.1498 l 0.01,-0.13981 0.02,-0.13981 0.03,-0.1398 0.03,-0.12983 1.14,-4.24412 0.27,-0.85882 0.32,-0.74897 0.38,-0.65908 0.44003,-0.53925 0.48999,-0.44939 0.54999,-0.34951 0.65,-0.27962 0.73002,-0.19971 0.82,-0.10986 0.91001,-0.04 0.55,0.03 0.51003,0.11984 0.47999,0.18974 0.43999,0.25963 0.4,0.33952 0.35,0.38947 0.28,0.42941 0.19,0.45935 0.12,0.49933 0.03,0.53925 v 0.18974 l -0.01,0.17974 -0.03,0.17976 -0.03,0.17974 z m 10.44007,-3.52514 0.08,-0.22967 0.13,-0.17976 0.16,-0.12981 0.21003,-0.0798 0.23999,-0.02 h 8.16006 l 0.61,0.05 0.53,0.16978 0.47,0.26962 0.4,0.37947 0.33002,0.48933 0.13,0.24964 0.09,0.25964 0.07,0.26963 0.05,0.27961 0.01,0.2896 v 0.13982 l -0.02,0.1398 -0.01,0.13981 -0.03,0.12982 -0.03,0.13981 -2.12001,7.84913 -0.09,0.21971 -0.13001,0.17974 -0.16,0.12982 -0.2,0.0699 -0.23,0.03 -0.12999,-0.01 -0.13001,-0.03 -0.12002,-0.05 -0.12,-0.0701 -0.1,-0.0898 -0.1,-0.0998 -0.07,-0.10984 -0.06,-0.11984 -0.03,-0.11983 -0.01,-0.11984 v -0.05 l 0.01,-0.05 0.01,-0.05 0.01,-0.05 0.01,-0.06 2.00002,-7.36981 0.03,-0.12983 0.02,-0.1298 0.02,-0.12981 0.01,-0.11984 0.01,-0.11983 -0.06,-0.3795 -0.16,-0.29958 -0.27999,-0.20971 -0.39001,-0.12982 -0.49999,-0.04 h -1.76003 l -2.59001,9.50685 -0.09,0.21971 -0.12,0.17974 -0.16,0.12982 -0.2,0.07 -0.24,0.03 -0.12999,-0.01 -0.12001,-0.03 -0.12002,-0.05 -0.12,-0.07 -0.11,-0.0898 -0.09,-0.0998 -0.08,-0.10984 -0.05,-0.11984 -0.03,-0.11983 -0.01,-0.11983 v -0.05 -0.05 l 0.01,-0.05 0.01,-0.05 0.01,-0.06 2.48001,-9.05748 h -3.54002 l -2.58001,9.50685 -0.09,0.21971 -0.13,0.17974 -0.16,0.12982 -0.2,0.0699 -0.23,0.03 -0.13999,-0.01 -0.12001,-0.03 -0.12002,-0.05 -0.12,-0.07 -0.1,-0.0898 -0.1,-0.10985 -0.07,-0.10985 -0.05,-0.10984 -0.04,-0.11982 -0.01,-0.12984 0.01,-0.04 v -0.05 l 0.01,-0.05 0.01,-0.06 0.01,-0.0599 z m 17.70014,-0.0998 0.49,-0.22969 0.46,-0.16975 0.45002,-0.11984 0.43,-0.0798 0.41,-0.02 0.26999,-0.03 0.26,-0.0998 0.27,-0.15977 0.27,-0.22968 0.27,-0.28961 0.24,-0.31956 0.19002,-0.31955 0.14,-0.29958 0.08,-0.29959 0.02,-0.27962 -0.05,-0.38945 -0.17,-0.29958 -0.28002,-0.20972 -0.39,-0.12983 -0.5,-0.04 -0.64999,0.07 -0.55,0.19973 -0.45002,0.33952 -0.34,0.46936 -0.24,0.61914 z m -1.12001,-2.33678 0.21,-0.68905 0.26001,-0.59917 0.31,-0.51927 0.35,-0.44938 0.39,-0.3595 0.46,-0.2896 0.51003,-0.21971 0.58999,-0.15978 0.64999,-0.0998 0.72,-0.03 0.43,0.03 0.41002,0.0898 0.38,0.15978 0.36,0.21968 0.33,0.28961 0.28,0.32954 0.22,0.35951 0.15,0.37946 0.1,0.41944 0.03,0.43938 -0.02,0.33954 -0.05,0.32954 -0.08,0.31957 -0.12,0.31955 -0.15,0.31956 -0.2,0.32954 -0.21,0.26962 -0.23,0.23967 -0.26,0.17976 -0.28,0.1398 0.64,0.39945 0.5,0.49931 0.35,0.58918 0.21,0.68904 0.07,0.78892 v 0.18974 l -0.01,0.18974 -0.03,0.18972 -0.03,0.17977 -0.04,0.17974 -0.91,3.41527 -0.27,0.86881 -0.33,0.75895 -0.39,0.65909 -0.44002,0.54923 -0.5,0.44938 -0.56,0.3595 -0.64999,0.26963 -0.72,0.19973 -0.81002,0.11983 -0.89,0.04 -0.54001,-0.04 -0.52002,-0.11983 -0.48,-0.18974 -0.44,-0.26962 -0.41,-0.34951 -0.34999,-0.39945 -0.27,-0.4394 -0.19,-0.47934 -0.12,-0.5093 -0.04,-0.54923 0.01,-0.18973 0.01,-0.18975 0.02,-0.18974 0.04,-0.17975 0.04,-0.17976 z m 4.53002,9.37703 0.90002,-3.3953 0.05,-0.20971 0.04,-0.19972 0.03,-0.18975 0.02,-0.17973 v -0.16977 l -0.08,-0.57921 -0.25,-0.44936 -0.42002,-0.31957 -0.58,-0.18974 -0.74999,-0.0598 -0.98,0.0998 -0.82002,0.30958 -0.67,0.5093 -0.51,0.70901 -0.35001,0.91873 -0.92002,3.3953 -0.05,0.20972 -0.04,0.19972 -0.03,0.18975 -0.02,0.17974 v 0.17975 l 0.08,0.56922 0.25,0.44936 0.42003,0.31956 0.58,0.18975 0.75,0.07 0.99,-0.10985 0.82002,-0.29959 0.66999,-0.50928 0.51,-0.71902 z m 5.14004,0.05 0.91002,-3.3953 0.27,-0.85882 0.32,-0.74897 0.38,-0.65908 0.44,-0.53925 0.49,-0.44939 0.55003,-0.34951 0.64999,-0.27962 0.72999,-0.19971 0.82,-0.10986 0.91003,-0.04 0.55,0.04 0.51,0.10986 0.48,0.18974 0.44,0.26962 0.40002,0.34951 0.35,0.39946 0.28,0.4294 0.19,0.47933 0.12,0.49932 0.03,0.54924 v 0.18972 l -0.01,0.18975 -0.03,0.18974 -0.03,0.17974 -0.04,0.16978 -0.91,3.3953 -0.16999,0.56921 -0.20003,0.52928 -0.23,0.48933 -0.25,0.44936 -0.27,0.39945 -0.61,0.64911 -0.74,0.5093 -0.89003,0.35949 -1.01999,0.20971 -1.18002,0.0798 -0.54,-0.04 -0.52,-0.11983 -0.48,-0.18974 -0.44,-0.26962 -0.41,-0.33954 -0.35002,-0.39945 -0.27,-0.43939 -0.19,-0.46935 -0.12,-0.50928 -0.04,-0.53927 0.01,-0.19972 0.01,-0.18974 0.02,-0.17975 0.04,-0.17975 z m 7.04006,-0.02 0.9,-3.35537 0.05,-0.19972 0.04,-0.19973 0.03,-0.18974 0.02,-0.17973 v -0.16977 l -0.08,-0.56921 -0.25,-0.43941 -0.42,-0.31955 -0.58,-0.18974 -0.75001,-0.0599 -0.98002,0.0998 -0.81999,0.29958 -0.67,0.5093 -0.51002,0.69903 -0.35,0.90874 -0.92,3.35537 -0.05,0.2097 -0.04,0.18974 -0.03,0.18974 -0.02,0.17976 v 0.17974 l 0.08,0.55923 0.25,0.44938 0.42,0.30956 0.58,0.18975 0.75002,0.07 0.98999,-0.0998 0.82,-0.30956 0.67002,-0.49931 0.51001,-0.70902 z m 7.31006,-6.96037 0.08,-0.23967 0.13,-0.17976 0.16,-0.12981 0.21,-0.0798 0.24,-0.02 h 4.64003 l 0.44,0.03 0.40999,0.0898 0.38,0.15978 0.35,0.21971 0.33,0.28959 0.28003,0.32955 0.22,0.34951 0.16,0.37947 0.09,0.40943 0.03,0.43939 v 0.13982 l -0.01,0.13979 -0.02,0.13982 -0.03,0.13981 -0.03,0.13981 -1.37003,5.08296 -0.22,0.68905 -0.26,0.60917 -0.30999,0.51928 -0.36,0.43939 -0.39,0.3495 -0.46002,0.28961 -0.51,0.20971 -0.58,0.15978 -0.65,0.0998 -0.71,0.03 h -3.52004 l -1.2,4.5637 -0.09,0.22967 -0.12,0.17975 -0.16,0.12981 -0.2,0.0798 -0.24002,0.03 -0.13,-0.01 -0.13,-0.03 -0.12,-0.05 -0.11,-0.0798 -0.11,-0.0898 -0.1,-0.0998 -0.07,-0.10985 -0.06,-0.11983 -0.03,-0.11984 -0.01,-0.11983 v -0.05 l 0.01,-0.05 0.01,-0.05 0.01,-0.06 0.01,-0.05 z m 1.46999,1.08848 -2.30002,8.3984 h 3.53004 l 0.66,-0.07 0.55,-0.19972 0.45,-0.33954 0.34,-0.46933 0.24002,-0.59919 1.34999,-5.04302 0.04,-0.12982 0.02,-0.12982 0.02,-0.11984 0.01,-0.11983 0.01,-0.10985 -0.06,-0.38947 -0.16,-0.29958 -0.27999,-0.20971 -0.39,-0.12982 -0.49,-0.04 z m 16.93013,9.50685 -0.09,0.21971 -0.13,0.17974 -0.16003,0.12982 -0.19999,0.07 -0.24,0.03 -0.13,-0.01 -0.12,-0.03 -0.12,-0.06 -0.12,-0.0699 -0.11,-0.0898 -0.09,-0.0998 -0.07,-0.11983 -0.06,-0.10985 -0.03,-0.12982 -0.01,-0.12981 v -0.04 l 0.01,-0.05 v -0.06 l 0.01,-0.05 0.02,-0.06 1.07999,-4.10431 h -3.52002 l -0.44,-0.03 -0.4,-0.0998 -0.38,-0.14978 -0.36003,-0.21971 -0.32999,-0.2796 -0.28,-0.31956 -0.22,-0.34952 -0.16,-0.36949 -0.09,-0.39945 -0.04,-0.41942 0.01,-0.14978 0.01,-0.13981 0.02,-0.1398 0.02,-0.13982 0.03,-0.12981 0.76,-2.70627 0.08,-0.22968 0.13,-0.16975 0.16002,-0.11984 0.2,-0.0798 0.24,-0.02 0.3,0.03 0.24,0.0998 0.17,0.15978 0.1,0.22968 0.03,0.28961 v 0.05 0.05 0.05 l -0.01,0.04 -0.01,0.04 -0.62,2.23691 -0.04,0.14978 -0.03,0.12983 -0.02,0.10983 -0.01,0.10986 v 0.0898 l 0.05,0.37949 0.17,0.29958 0.28,0.20971 0.4,0.11982 0.5,0.05 h 3.52004 l 1.22,-4.31403 0.08,-0.2197 0.13,-0.16975 0.16,-0.12983 0.2,-0.0699 0.24,-0.02 0.3,0.03 0.24002,0.0998 0.17,0.16978 0.1,0.22967 0.04,0.30957 -0.01,0.05 v 0.06 0.05 l -0.01,0.04 -0.01,0.04 z m 12.60008,-7.12014 0.05,-0.19972 0.04,-0.18974 0.03,-0.17975 0.02,-0.15978 v -0.14979 l -0.08,-0.54926 -0.25,-0.41941 -0.42001,-0.29959 -0.58,-0.17975 -0.75,-0.0599 -0.98002,0.0898 -0.81999,0.2896 -0.66,0.47934 -0.51,0.66907 -0.36002,0.85882 -0.23,0.79889 h 5.29004 z m 1.77001,0.04 -0.68999,2.49654 h -7.03006 l -0.46,1.73759 -0.03,0.12983 -0.03,0.12983 -0.01,0.12981 -0.02,0.11983 v 0.11984 l 0.05,0.39944 0.17,0.30959 0.28,0.21967 0.38,0.12983 0.5,0.05 h 4.17003 l 0.31,0.03 0.24,0.10984 0.17001,0.16976 0.1,0.23967 0.03,0.31956 -0.03,0.30958 -0.1,0.23967 -0.17001,0.17975 -0.24,0.0998 -0.31,0.04 h -4.62003 l -0.43,-0.03 -0.41,-0.0998 -0.38,-0.15978 -0.35,-0.2197 -0.33,-0.2896 -0.29002,-0.32953 -0.22,-0.35951 -0.16001,-0.37948 -0.09,-0.39945 -0.03,-0.42939 v -0.1498 l 0.01,-0.13981 0.02,-0.13981 0.03,-0.1398 0.03,-0.12983 1.14003,-4.24412 0.27,-0.85882 0.32,-0.74897 0.38,-0.65908 0.44,-0.53925 0.49,-0.44939 0.55002,-0.34951 0.65,-0.27962 0.72999,-0.19971 0.82,-0.10986 0.91002,-0.04 0.55,0.03 0.51,0.11984 0.48001,0.18974 0.44002,0.25963 0.4,0.33952 0.35,0.38947 0.28,0.42941 0.19,0.45935 0.11999,0.49933 0.03,0.53925 v 0.18974 l -0.01,0.17974 -0.03,0.17976 -0.03,0.17974 z m 8.00006,7.70933 h -2.87002 l -0.43,-0.03 -0.41,-0.0998 -0.38,-0.15978 -0.35002,-0.2197 -0.33,-0.2896 -0.29,-0.32953 -0.22,-0.35951 -0.16,-0.37948 -0.09,-0.39945 -0.03,-0.42939 v -0.1498 l 0.01,-0.13981 0.02,-0.13981 0.03,-0.1398 0.03,-0.12983 1.37002,-5.08296 0.22,-0.69905 0.26,-0.60915 0.31,-0.51928 0.36,-0.44937 0.39999,-0.34952 0.44001,-0.27961 0.51,-0.21971 0.58002,-0.14979 0.64,-0.0898 0.72,-0.03 h 2.42001 l 0.3,0.03 0.24,0.10986 0.17,0.16975 0.1,0.23967 0.04,0.31956 -0.04,0.30956 -0.1,0.23967 -0.17,0.17976 -0.24,0.0998 -0.31,0.04 h -2.87001 l -0.66,0.0601 -0.55,0.20971 -0.44002,0.32954 -0.34,0.46936 -0.24,0.60916 -1.36,5.04302 -0.03,0.1398 -0.03,0.11984 -0.02,0.10985 -0.01,0.0898 -0.01,0.0701 0.06,0.40942 0.16,0.31956 0.28,0.2297 0.39,0.1398 0.49999,0.05 h 2.42003 l 0.31,0.03 0.24,0.10984 0.16,0.16977 0.11,0.23966 0.03,0.31956 -0.03,0.30958 -0.11,0.23967 -0.16,0.17975 -0.24,0.0998 z m 7.08006,-11.23447 0.08,-0.22967 0.13,-0.17976 0.16,-0.12981 0.21,-0.0798 0.24,-0.02 h 8.16005 l 0.61,0.05 0.53002,0.16978 0.47,0.26962 0.4,0.37947 0.33,0.48933 0.13,0.24964 0.09,0.25964 0.07,0.26963 0.05,0.27961 0.01,0.2896 v 0.13982 l -0.02,0.1398 -0.01,0.13981 -0.03,0.12982 -0.03,0.13981 -2.12001,7.84913 -0.09,0.21971 -0.13,0.17974 -0.16,0.12982 -0.2,0.07 -0.23,0.03 -0.13,-0.01 -0.13,-0.03 -0.12,-0.05 -0.12,-0.07 -0.1,-0.0898 -0.1,-0.0998 -0.07,-0.10984 -0.06,-0.11984 -0.03,-0.11983 -0.01,-0.11984 v -0.05 l 0.01,-0.05 0.01,-0.05 0.01,-0.05 0.01,-0.06 2,-7.36981 0.03,-0.12982 0.02,-0.12981 0.02,-0.12981 0.01,-0.11984 0.01,-0.11984 -0.06,-0.37949 -0.16001,-0.29958 -0.27999,-0.20971 -0.39,-0.12982 -0.5,-0.04 h -1.76002 l -2.59002,9.50685 -0.09,0.21971 -0.12,0.17974 -0.16,0.12982 -0.2,0.07 -0.24,0.03 -0.13,-0.01 -0.12,-0.03 -0.12,-0.05 -0.12,-0.0698 -0.11,-0.0898 -0.09,-0.0998 -0.08,-0.10984 -0.05,-0.11984 -0.03,-0.11983 -0.01,-0.11984 v -0.05 -0.05 l 0.01,-0.05 0.01,-0.05 0.01,-0.0601 2.48002,-9.05748 h -3.54004 l -2.58001,9.50685 -0.09,0.21971 -0.13,0.17974 -0.16,0.12982 -0.2,0.07 -0.23001,0.03 -0.14,-0.01 -0.12,-0.03 -0.12,-0.05 -0.12,-0.0701 -0.1,-0.0898 -0.1,-0.10985 -0.07,-0.10985 -0.05,-0.10984 -0.04,-0.11983 -0.01,-0.12983 0.01,-0.04 v -0.05 l 0.01,-0.05 0.01,-0.06 0.01,-0.0599 z m 17.70009,-0.0998 0.49003,-0.22969 0.46,-0.16975 0.45,-0.11984 0.43,-0.0798 0.41,-0.02 0.27,-0.03 0.26,-0.0998 0.27002,-0.15977 0.27,-0.22968 0.27,-0.28961 0.24001,-0.31956 0.19,-0.31955 0.14,-0.29958 0.08,-0.29959 0.02,-0.27962 -0.05,-0.38945 -0.17,-0.29958 -0.28001,-0.20972 -0.39,-0.12984 -0.5,-0.04 -0.65002,0.07 -0.55,0.19973 -0.45,0.33952 -0.34,0.46936 -0.24,0.61914 z m -1.11998,-2.33678 0.21,-0.68905 0.25999,-0.59917 0.31,-0.51927 0.34999,-0.44938 0.39003,-0.3595 0.46,-0.2896 0.51,-0.21971 0.59,-0.15978 0.64999,-0.0998 0.72003,-0.03 0.43,0.03 0.41001,0.0898 0.37999,0.15978 0.36,0.21968 0.32999,0.28961 0.28003,0.32954 0.22,0.35951 0.15,0.37945 0.1,0.41945 0.03,0.43938 -0.02,0.33954 -0.05,0.32954 -0.08,0.31957 -0.12,0.31955 -0.15,0.31956 -0.20002,0.32954 -0.21001,0.26962 -0.22999,0.23967 -0.26,0.17976 -0.27999,0.1398 0.63999,0.39945 0.50002,0.49931 0.35,0.58918 0.21,0.68904 0.07,0.78892 v 0.18974 l -0.01,0.18974 -0.03,0.18972 -0.03,0.17977 -0.04,0.17974 -0.91003,3.41527 -0.26999,0.86881 -0.33,0.75895 -0.38999,0.65909 -0.44001,0.54923 -0.5,0.44938 -0.56002,0.3595 -0.65,0.26963 -0.72,0.19973 -0.81,0.11983 -0.89002,0.04 -0.53999,-0.04 -0.52,-0.11983 -0.48,-0.18974 -0.44,-0.26962 -0.41002,-0.34951 -0.35,-0.39945 -0.27,-0.4394 -0.19,-0.47934 -0.12,-0.5093 -0.04,-0.54923 0.01,-0.18973 0.01,-0.18975 0.02,-0.18974 0.04,-0.17975 0.04,-0.17976 z m 4.53003,9.37703 0.90001,-3.3953 0.05,-0.20971 0.04,-0.19972 0.03,-0.18975 0.02,-0.17973 v -0.16977 l -0.08,-0.57921 -0.25,-0.44936 -0.42001,-0.31957 -0.58,-0.18974 -0.75002,-0.0598 -0.98,0.0998 -0.82,0.30958 -0.67003,0.5093 -0.50999,0.70901 -0.34999,0.91873 -0.92,3.3953 -0.05,0.20972 -0.04,0.19972 -0.03,0.18975 -0.02,0.17974 v 0.17975 l 0.08,0.56922 0.25,0.44936 0.42,0.31956 0.57999,0.18975 0.75,0.07 0.99002,-0.10985 0.82,-0.29959 0.66999,-0.50928 0.51003,-0.71902 z m 5.14004,0.05 0.91,-3.3953 0.27,-0.85882 0.31999,-0.74897 0.37999,-0.65908 0.44003,-0.53925 0.49,-0.44939 0.55001,-0.34951 0.65,-0.27962 0.73,-0.19971 0.82002,-0.10986 0.91,-0.04 0.54999,0.04 0.51002,0.10986 0.48,0.18974 0.44,0.26962 0.4,0.34951 0.35,0.39946 0.28,0.4294 0.19,0.47933 0.11999,0.49932 0.03,0.54924 v 0.18972 l -0.01,0.18975 -0.03,0.18974 -0.03,0.17974 -0.04,0.16978 -0.91,3.3953 -0.17,0.56921 -0.2,0.52928 -0.23,0.48933 -0.25,0.44936 -0.27,0.39945 -0.61002,0.64911 -0.73999,0.5093 -0.89,0.35949 -1.02002,0.20971 -1.18,0.0798 -0.54001,-0.04 -0.52001,-0.11983 -0.48001,-0.18974 -0.44,-0.26962 -0.40999,-0.33954 -0.35,-0.39945 -0.27,-0.43939 -0.19,-0.46935 -0.12,-0.50928 -0.04,-0.53927 0.01,-0.19972 0.01,-0.18974 0.02,-0.17975 0.04,-0.17975 z m 7.04003,-0.02 0.90002,-3.35537 0.05,-0.19972 0.04,-0.19973 0.03,-0.18974 0.02,-0.17973 v -0.16977 l -0.08,-0.56921 -0.25,-0.43941 -0.42002,-0.31955 -0.58,-0.18974 -0.74999,-0.06 -0.98,0.0998 -0.82002,0.29958 -0.67,0.5093 -0.51,0.69903 -0.35001,0.90874 -0.92002,3.35537 -0.05,0.2097 -0.04,0.18974 -0.03,0.18974 -0.02,0.17975 v 0.17975 l 0.08,0.55923 0.24999,0.44938 0.42003,0.30956 0.58,0.18975 0.75001,0.07 0.99,-0.0998 0.82002,-0.30956 0.67,-0.49931 0.50999,-0.70902 z m 16.64013,6.02166 0.46,-1.75756 h -3.52003 l -0.43,-0.03 -0.4,-0.0998 -0.38,-0.15978 -0.36,-0.2197 -0.33,-0.2896 -0.28001,-0.32953 -0.22,-0.35951 -0.16001,-0.37948 -0.09,-0.39945 -0.03,-0.42939 v -0.1498 l 0.01,-0.13981 0.02,-0.13981 0.02,-0.1398 0.04,-0.12983 2.12003,-7.84914 0.08,-0.22969 0.12999,-0.17973 0.16001,-0.11984 0.20001,-0.0798 0.24001,-0.02 0.3,0.03 0.24,0.0998 0.17,0.16978 0.1,0.22967 0.03,0.29958 v 0.0599 0.05 0.05 l -0.01,0.05 -0.01,0.04 -1.99002,7.3698 -0.03,0.12983 -0.03,0.11983 -0.01,0.12981 -0.01,0.10986 -0.01,0.11984 0.06,0.38944 0.16,0.29959 0.27,0.2097 0.39,0.12983 0.50002,0.05 h 3.53001 l 2.59003,-9.50686 0.08,-0.22969 0.13,-0.17973 0.16,-0.11984 0.2,-0.0798 0.23999,-0.02 0.29999,0.03 0.24001,0.0998 0.17002,0.16978 0.1,0.23966 0.04,0.29959 -0.01,0.06 v 0.05 0.05 l -0.01,0.05 -0.01,0.03 -3.37004,12.59257 -0.3,0.88878 -0.38,0.74896 -0.47,0.60917 -0.54,0.47934 -0.62003,0.33951 -0.35999,0.11983 -0.38999,0.0998 -0.42,0.0699 -0.45,0.04 -0.49,0.02 h -3.32006 l -0.30999,-0.04 -0.23,-0.0998 -0.16999,-0.17975 -0.11,-0.23966 -0.03,-0.30959 0.03,-0.31955 0.11,-0.23967 0.16999,-0.16976 0.23,-0.10985 0.30999,-0.03 h 3.74006 l 0.65,-0.0699 0.54999,-0.20972 0.44999,-0.33952 0.34003,-0.47934 z m 14.87009,-2.3867 -0.09,0.21971 -0.12999,0.17974 -0.16,0.12982 -0.2,0.07 -0.24,0.03 -0.13,-0.01 -0.12,-0.03 -0.12,-0.0601 -0.12,-0.0699 -0.11,-0.0898 -0.09,-0.0998 -0.07,-0.11983 -0.06,-0.10985 -0.03,-0.12982 -0.01,-0.12981 v -0.04 l 0.01,-0.05 v -0.06 l 0.01,-0.05 0.02,-0.06 1.08,-4.10431 h -3.52002 l -0.44,-0.03 -0.40004,-0.0998 -0.37999,-0.14978 -0.35999,-0.21971 -0.33,-0.2796 -0.28,-0.31956 -0.22,-0.34952 -0.16,-0.36949 -0.09,-0.39945 -0.04,-0.41942 0.01,-0.14978 0.01,-0.13981 0.02,-0.1398 0.02,-0.13982 0.03,-0.12981 0.76,-2.70627 0.08,-0.22968 0.13,-0.16975 0.16,-0.11984 0.19999,-0.0798 0.24,-0.02 0.3,0.03 0.24001,0.0998 0.17002,0.15978 0.1,0.22968 0.03,0.28961 v 0.05 0.05 0.05 l -0.01,0.04 -0.01,0.04 -0.62004,2.2369 -0.04,0.14979 -0.03,0.12983 -0.02,0.10983 -0.01,0.10986 v 0.0898 l 0.05,0.37949 0.17001,0.29958 0.28003,0.20971 0.4,0.11982 0.5,0.05 h 3.52001 l 1.22002,-4.31403 0.08,-0.2197 0.13,-0.16975 0.16,-0.12983 0.2,-0.07 0.24,-0.02 0.3,0.03 0.24,0.0998 0.17,0.16978 0.1,0.22967 0.04,0.30957 -0.01,0.05 v 0.06 0.05 l -0.01,0.04 -0.01,0.04 z m 7.48006,-1.10845 h 1.76002 l 0.27,-0.02 0.27,-0.0698 0.27,-0.0998 0.28,-0.13981 0.27999,-0.18972 0.24999,-0.20973 0.22002,-0.2197 0.17001,-0.23966 0.14001,-0.23967 0.09,-0.24966 1.82,-6.72071 h -3.52002 l -0.66,0.06 -0.55002,0.20971 -0.44001,0.32954 -0.33999,0.46936 -0.24,0.60916 -1.36,5.04303 -0.03,0.12981 -0.03,0.11984 -0.01,0.11983 -0.02,0.10986 v 0.10983 l 0.06,0.38946 0.16,0.30958 0.28,0.2097 0.38,0.12983 z m -0.45,1.73759 -0.43,-0.03 -0.41,-0.0998 -0.38002,-0.15978 -0.35,-0.20971 -0.32999,-0.28961 -0.29,-0.31956 -0.22,-0.35949 -0.16,-0.3695 -0.09,-0.40942 -0.03,-0.42942 v -0.14979 l 0.01,-0.14977 0.02,-0.14981 0.03,-0.1398 0.03,-0.12983 1.36999,-5.08296 0.22001,-0.69905 0.26001,-0.60914 0.31,-0.51929 0.36,-0.44937 0.4,-0.34952 0.44,-0.27961 0.50999,-0.21971 0.58003,-0.14979 0.64,-0.0898 0.72,-0.03 h 4.40004 l 0.14,0.01 0.13,0.03 0.11,0.04 0.09,0.0699 0.09,0.0898 0.06,0.0998 0.05,0.10984 0.02,0.11984 -0.01,0.12981 -0.02,0.13981 -2.30002,8.44831 -0.02,0.05 -0.01,0.04 v 0.05 l -0.01,0.05 v 0.04 l 0.03,0.21972 0.08,0.17973 0.13,0.11983 0.18999,0.07 0.25,0.03 0.30002,0.03 0.21001,0.10984 0.13,0.16977 0.05,0.23966 -0.04,0.31956 -0.11,0.30958 -0.16,0.23967 -0.22002,0.17975 -0.28001,0.0998 -0.32999,0.04 -0.52,-0.04 -0.44,-0.11983 -0.35,-0.19973 -0.26,-0.27961 -0.19,-0.34952 -0.34002,0.34952 -0.44001,0.27961 -0.52999,0.19973 -0.62,0.11983 -0.72,0.04 z m 23.02017,0 h -8.83008 l -0.42999,-0.03 -0.41,-0.0998 -0.38,-0.1498 -0.36,-0.21969 -0.32,-0.27961 -0.29002,-0.31955 -0.22001,-0.34952 -0.15001,-0.37948 -0.1,-0.39945 -0.02,-0.4394 v -0.14977 l 0.01,-0.15978 0.02,-0.13983 0.02,-0.13979 0.04,-0.13982 2.12003,-7.84914 0.08,-0.22969 0.13,-0.17973 0.16,-0.11984 0.19998,-0.0798 0.24,-0.02 0.13001,0.01 0.12,0.03 0.12001,0.04 0.12001,0.0699 0.11,0.0898 0.09,0.0998 0.08,0.10984 0.05,0.10984 0.03,0.12983 0.01,0.12981 v 0.04 l -0.01,0.05 v 0.05 l -0.01,0.0599 -0.02,0.06 -1.99001,7.3698 -0.03,0.12983 -0.03,0.12981 -0.01,0.12981 -0.01,0.11984 -0.01,0.12982 0.06,0.36951 0.16,0.29956 0.27,0.20972 0.38999,0.12982 0.5,0.04 h 1.77002 l 2.59002,-9.50686 0.09,-0.22969 0.12,-0.17973 0.16,-0.11984 0.19999,-0.0798 0.24,-0.02 0.13001,0.01 0.12,0.03 0.12001,0.04 0.12001,0.0699 0.1,0.0898 0.1,0.0998 0.07,0.10984 0.05,0.10984 0.03,0.12983 0.01,0.12981 v 0.06 0.0599 l -0.01,0.05 v 0.05 l -0.01,0.04 -2.46002,9.05747 h 3.52002 l 2.59002,-9.50686 0.09,-0.22969 0.12,-0.17973 0.16,-0.11984 0.19998,-0.0798 0.23,-0.02 0.13001,0.01 0.13,0.03 0.12001,0.04 0.11001,0.0699 0.11,0.0898 0.09,0.0998 0.08,0.10984 0.05,0.10984 0.03,0.12983 0.01,0.12981 v 0.04 l -0.01,0.05 v 0.05 l -0.02,0.06 -0.01,0.06 -2.46001,9.05747 h 0.89 l 0.13,0.01 0.11,0.03 0.11,0.05 0.09,0.0798 0.09,0.0998 0.07,0.10985 0.05,0.10985 0.02,0.11984 0.01,0.12981 -0.02,0.12981 -0.73998,2.8261 -0.08,0.22969 -0.13,0.17975 -0.16,0.12982 -0.2,0.0798 -0.24,0.03 -0.13,-0.01 -0.13,-0.03 -0.12,-0.06 -0.11,-0.07 -0.11,-0.0898 -0.09,-0.0998 -0.08,-0.11984 -0.05,-0.10985 -0.03,-0.12983 -0.01,-0.12981 v -0.04 -0.05 l 0.01,-0.0598 0.01,-0.05 0.01,-0.0599 z m 15.45009,-11.24445 0.09,-0.22969 0.12001,-0.17973 0.16001,-0.11984 0.2,-0.0798 0.24,-0.02 0.31,0.03 0.24,0.0998 0.17,0.16978 0.1,0.22967 0.03,0.30957 v 0.05 l -0.01,0.06 v 0.05 l -0.01,0.04 -0.01,0.04 -2.70002,9.94624 -0.12,0.29957 -0.17,0.23967 -0.22,0.16977 -0.27,0.0998 -0.33,0.04 h -4.39004 l -0.43,-0.03 -0.41,-0.0998 -0.38001,-0.15978 -0.35002,-0.2197 -0.32998,-0.2896 -0.29,-0.32953 -0.22,-0.35951 -0.16,-0.37948 -0.09,-0.39945 -0.03,-0.42939 v -0.1498 l 0.01,-0.13982 0.02,-0.1398 0.03,-0.1398 0.03,-0.12983 2.12001,-7.84914 0.09,-0.22969 0.12,-0.17973 0.16,-0.11984 0.2,-0.0798 0.24,-0.02 0.31,0.03 0.23999,0.0998 0.16,0.16978 0.11001,0.22967 0.03,0.29958 v 0.06 l -0.01,0.05 v 0.05 l -0.01,0.05 -0.01,0.04 -1.99,7.3698 -0.03,0.12982 -0.03,0.11983 -0.01,0.12982 -0.02,0.10986 v 0.11984 l 0.06,0.38944 0.16,0.29959 0.28,0.2097 0.38,0.12983 0.5,0.05 h 3.53002 z m 9.38007,5.50238 1.93002,4.5537 0.02,0.0699 0.02,0.0699 0.01,0.07 0.01,0.0699 v 0.0798 l -0.03,0.29959 -0.1,0.22969 -0.17,0.16976 -0.23001,0.0898 -0.30001,0.04 -0.22001,-0.02 -0.18,-0.0699 -0.15999,-0.0998 -0.13,-0.1398 -0.1,-0.18975 -1.64001,-3.89461 -4.00003,4.15426 -0.11,0.0898 -0.12,0.07 -0.13,0.06 -0.13,0.03 -0.15,0.01 -0.3,-0.04 -0.23,-0.0998 -0.17002,-0.16977 -0.1,-0.23967 -0.03,-0.30956 0.01,-0.12983 0.02,-0.11984 0.05,-0.10983 0.07,-0.10985 0.08,-0.0998 4.51004,-4.6935 -1.94001,-4.57369 -0.02,-0.0599 -0.02,-0.0699 -0.01,-0.06 -0.01,-0.07 v -0.0798 l 0.01,-0.12982 0.03,-0.12982 0.05,-0.11983 0.07,-0.10986 0.09,-0.0998 0.1,-0.0898 0.11,-0.07 0.12,-0.05 0.13,-0.03 0.14,-0.01 0.21,0.02 0.18,0.06 0.16,0.0998 0.13,0.14979 0.1,0.17974 1.65001,3.92459 4.02002,-4.16426 0.1,-0.0998 0.11999,-0.0798 0.11,-0.05 0.13001,-0.03 0.13,-0.01 0.31002,0.03 0.24,0.0998 0.17,0.15978 0.11,0.22968 0.03,0.29958 -0.01,0.1498 -0.03,0.12981 -0.04,0.11984 -0.07,0.11983 -0.08,0.0998 z m 11.86008,5.74207 h -2.87003 l -0.42999,-0.03 -0.41,-0.0998 -0.38,-0.15978 -0.35,-0.2197 -0.33,-0.2896 -0.29,-0.32953 -0.22002,-0.35951 -0.16,-0.37948 -0.09,-0.39945 -0.03,-0.42939 v -0.1498 l 0.01,-0.13981 0.02,-0.13981 0.03,-0.1398 0.03,-0.12983 1.37002,-5.08296 0.22,-0.69905 0.26,-0.60914 0.31,-0.51929 0.35998,-0.44937 0.40002,-0.34952 0.44001,-0.27961 0.51,-0.21971 0.58001,-0.14979 0.63999,-0.0898 0.72003,-0.03 h 2.42 l 0.30001,0.03 0.24,0.10986 0.17,0.16975 0.1,0.23967 0.04,0.31956 -0.04,0.30956 -0.1,0.23967 -0.17,0.17976 -0.24,0.0998 -0.31001,0.04 h -2.87002 l -0.66,0.06 -0.55,0.20971 -0.44001,0.32954 -0.34,0.46936 -0.24,0.60916 -1.36001,5.04302 -0.03,0.1398 -0.03,0.11984 -0.02,0.10985 -0.01,0.0898 -0.01,0.07 0.06,0.40942 0.16,0.31956 0.28,0.2297 0.38998,0.1398 0.50003,0.05 h 2.42001 l 0.31002,0.03 0.24,0.10984 0.16,0.16976 0.11,0.23967 0.03,0.31956 -0.03,0.30958 -0.11,0.23967 -0.16,0.17975 -0.24,0.0998 z m 10.41007,-5.21279 -4.65002,4.94316 -0.1,0.0998 -0.11,0.0699 -0.12001,0.06 -0.13001,0.03 -0.14,0.01 -0.31001,-0.04 -0.24,-0.0998 -0.16999,-0.16977 -0.1,-0.22967 -0.05,-0.30957 0.01,-0.13982 0.03,-0.12981 0.05,-0.12982 0.07,-0.11983 0.09,-0.10986 3.61003,-3.85466 -0.33001,-0.11984 -0.3,-0.15978 -0.27999,-0.18973 -0.25,-0.22968 -0.22,-0.25965 -0.19,-0.2896 -0.15,-0.29959 -0.1,-0.31955 -0.06,-0.32954 -0.02,-0.33953 v -0.14981 l 0.01,-0.14979 0.01,-0.1398 0.03,-0.11983 0.02,-0.11983 0.23,-0.67907 0.26,-0.59916 0.3,-0.50931 0.33999,-0.4294 0.39,-0.34952 0.44002,-0.26962 0.51,-0.21971 0.58,-0.14979 0.65999,-0.0898 0.73002,-0.03 h 4.18003 l 0.13,0.01 0.12999,0.03 0.12,0.05 0.11,0.06 0.11,0.0898 0.09,0.0998 0.08,0.10984 0.05,0.11984 0.03,0.11983 0.01,0.12981 v 0.05 l -0.01,0.05 -0.01,0.05 -0.01,0.05 -0.01,0.0601 -2.75003,10.16592 -0.09,0.21971 -0.12999,0.17975 -0.16,0.12981 -0.19999,0.07 -0.24,0.03 -0.3,-0.04 -0.24,-0.0998 -0.17,-0.16976 -0.1,-0.23968 -0.04,-0.30956 0.01,-0.06 v -0.06 -0.05 l 0.01,-0.04 0.01,-0.04 1.08,-4.10431 z m -1.02,-1.7376 h 3.52 l 0.93003,-3.1856 h -3.53003 l -0.64,0.06 -0.54,0.18974 -0.45,0.31955 -0.36,0.44939 -0.26001,0.56922 -0.02,0.0998 -0.03,0.10985 -0.01,0.10985 -0.01,0.12982 v 0.12981 l 0.05,0.36951 0.17001,0.27961 0.28,0.19972 0.4,0.12982 z"
     id="path7"
     style="display:none;fill:#ff0000" />
  <path
     style="font-size:53.5001px;line-height:0;font-family:'GOST type B';-inkscape-font-specification:'GOST type B';stroke:#120000;stroke-width:1.07311;paint-order:fill markers stroke"
     d="m 14.77794,192.41499 v -14.60553 h 10.967521 q 1.498002,0 2.568004,1.07 1.070002,1.0165 1.070002,2.56801 v 7.32951 q 0,1.5515 -1.070002,2.62151 -1.070002,1.0165 -2.568004,1.0165 z m 0,3.6915 h 10.967521 q 3.049505,0 5.136009,-2.14 2.140004,-2.14 2.140004,-5.18951 v -7.32951 q 0,-3.04951 -2.140004,-5.18951 -2.086504,-2.14001 -5.136009,-2.14001 H 12.958937 q -1.872504,0 -1.872504,1.87251 v 32.90256 q 0,0.856 0.535001,1.3375 0.588502,0.4815 1.337503,0.4815 0.802501,0 1.284002,-0.428 0.535001,-0.4815 0.535001,-1.391 z M 46.771046,201.51 h 13.268025 l 2.621505,7.91802 q 0.214,0.8025 0.909501,1.1235 0.535001,0.107 0.802502,0.107 0.695501,0 1.284002,-0.4815 0.588501,-0.4815 0.588501,-1.2305 0,-0.2675 -0.107,-0.6955 l -11.02102,-32.90256 q -0.481501,-1.55151 -1.712004,-1.55151 -1.123502,0 -1.712003,1.55151 l -10.96752,32.90256 q -0.1605,0.321 -0.1605,0.6955 0,0.749 0.588501,1.2305 0.588501,0.4815 1.284002,0.4815 1.337503,0 1.712003,-1.2305 z m 12.037522,-3.6915 h -10.80702 l 5.40351,-16.15703 z"
     id="text15"
     transform="scale(1.0160014,0.98425061)"
     aria-label="РА" />
  <path
     style="font-size:53.7308px;line-height:0;font-family:'GOST type B';-inkscape-font-specification:'GOST type B';stroke:#120000;stroke-width:1.07774;paint-order:fill markers stroke"
     d="m 143.31057,209.65707 v -33.04444 q 0,-1.02089 -0.48358,-1.5582 -0.48358,-0.59103 -1.18208,-0.59103 -0.48358,0 -0.96715,0.32238 -0.48358,0.32239 -0.80597,0.91342 l -14.88343,26.8654 v -25.95197 q 0,-0.91343 -0.59104,-1.397 -0.5373,-0.48358 -1.2358,-0.48358 -0.80597,0 -1.34327,0.53731 -0.53731,0.48357 -0.53731,1.34327 v 33.04444 q 0,0.96715 0.48357,1.55819 0.53731,0.53731 1.23581,0.53731 1.02089,0 1.77312,-1.23581 l 14.88343,-26.81167 v 25.95198 q 0,0.85969 0.53731,1.34327 0.59104,0.48358 1.28954,0.48358 0.80596,0 1.28954,-0.42985 0.53731,-0.48358 0.53731,-1.397 z m 29.39079,-5.53427 v -22.02963 q 0,-3.06266 -2.14923,-5.21189 -2.0955,-2.14923 -5.15816,-2.14923 h -7.36112 q -3.06265,0 -5.21189,2.14923 -2.14923,2.14923 -2.14923,5.21189 v 22.02963 q 0,3.11638 2.14923,5.26562 2.14924,2.0955 5.21189,2.0955 h 7.36112 q 3.06266,0 5.15816,-2.0955 2.14923,-2.14924 2.14923,-5.26562 z m -3.65369,0 q 0,1.55819 -1.07462,2.63281 -1.07462,1.07461 -2.57908,1.07461 h -7.36112 q -1.55819,0 -2.63281,-1.07461 -1.02088,-1.07462 -1.02088,-2.63281 v -22.02963 q 0,-1.55819 1.02088,-2.57908 1.07462,-1.07462 2.63281,-1.07462 h 7.36112 q 1.50446,0 2.57908,1.07462 1.07462,1.02089 1.07462,2.57908 z"
     id="text15-45"
     transform="scale(1.0205117,0.97990058)"
     aria-label="ИО" />
  <path
     style="font-size:53.6921px;line-height:0;font-family:'GOST type B';-inkscape-font-specification:'GOST type B';stroke:#120000;stroke-width:1.07696;paint-order:fill markers stroke"
     d="m 188.91029,178.33374 v 31.19511 q 0,0.85908 0.53692,1.34231 0.59062,0.48323 1.28861,0.48323 0.80539,0 1.34231,-0.42954 0.53692,-0.48323 0.53692,-1.396 v -31.19511 h 7.30212 q 0.91277,0 1.34231,-0.53692 0.48322,-0.59061 0.48322,-1.28861 0,-0.80538 -0.48322,-1.3423 -0.42954,-0.53692 -1.34231,-0.53692 h -18.309 q -0.91277,0 -1.396,0.59061 -0.48323,0.53692 -0.48323,1.28861 0,0.75169 0.48323,1.28861 0.53692,0.53692 1.396,0.53692 z m 23.89304,11.00688 v -11.00688 h 12.8861 q 0.85907,0 1.3423,-0.53692 0.48323,-0.59061 0.48323,-1.28861 0,-0.80538 -0.48323,-1.3423 -0.42953,-0.53692 -1.3423,-0.53692 h -14.71164 q -1.87922,0 -1.87922,1.87922 v 33.12803 q 0,1.71815 1.87922,1.71815 h 14.71164 q 0.85907,0 1.3423,-0.53693 0.48323,-0.59061 0.48323,-1.28861 0,-0.80538 -0.48323,-1.28861 -0.42953,-0.53692 -1.3423,-0.53692 h -12.8861 v -14.71163 h 9.18134 q 0.91277,0 1.34231,-0.53692 0.48323,-0.53693 0.48323,-1.28861 0,-0.80539 -0.48323,-1.28861 -0.42954,-0.53693 -1.34231,-0.53693 z m 34.8462,0.32216 -9.5035,-14.17472 q -0.53692,-0.85907 -1.44969,-0.85907 -0.75169,0 -1.3423,0.53692 -0.59061,0.53692 -0.59061,1.28861 0,0.21477 0.0537,0.53692 0.0537,0.26846 0.26846,0.53692 l 10.30888,15.46333 -10.30888,15.51701 q -0.32215,0.48323 -0.32215,1.02015 0,0.75169 0.59061,1.34231 0.59061,0.53692 1.28861,0.53692 0.96646,0 1.50338,-0.85908 l 9.5035,-14.2284 9.44981,14.2284 q 0.53692,0.85908 1.44969,0.85908 0.80538,0 1.39599,-0.53692 0.59062,-0.59062 0.59062,-1.28861 0,-0.698 -0.37585,-1.07385 l -10.30888,-15.51701 10.30888,-15.46333 q 0.37585,-0.53692 0.37585,-1.02015 0,-0.80538 -0.59062,-1.3423 -0.59061,-0.53692 -1.3423,-0.53692 -1.02015,0 -1.50338,0.85907 z m 38.49723,-0.32216 h -14.65795 v -12.83241 q 0,-0.91276 -0.59061,-1.39599 -0.53692,-0.48323 -1.23492,-0.48323 -0.80538,0 -1.3423,0.53692 -0.53692,0.48323 -0.53692,1.3423 v 33.02064 q 0,0.85908 0.53692,1.34231 0.59061,0.48323 1.3423,0.48323 0.80538,0 1.28861,-0.42954 0.53692,-0.48323 0.53692,-1.396 v -16.53716 h 14.65795 v 16.53716 q 0,0.85908 0.53692,1.34231 0.53692,0.42953 1.28861,0.42953 0.698,0 1.23492,-0.48323 0.59061,-0.48322 0.59061,-1.39599 v -33.02064 q 0,-0.85908 -0.53692,-1.3423 -0.53692,-0.48323 -1.28861,-0.48323 -0.75169,0 -1.28861,0.53692 -0.53692,0.48323 -0.53692,1.28861 z m 33.02069,20.18823 v -33.02064 q 0,-1.02015 -0.48323,-1.55707 -0.48323,-0.59061 -1.18123,-0.59061 -0.48323,0 -0.96645,0.32215 -0.48323,0.32215 -0.80539,0.91277 l -14.87271,26.84605 v -25.93329 q 0,-0.91276 -0.59061,-1.39599 -0.53692,-0.48323 -1.23492,-0.48323 -0.80538,0 -1.3423,0.53692 -0.53692,0.48323 -0.53692,1.3423 v 33.02064 q 0,0.96646 0.48323,1.55707 0.53692,0.53693 1.23491,0.53693 1.02015,0 1.77184,-1.23492 l 14.87272,-26.79236 v 25.93328 q 0,0.85908 0.53692,1.34231 0.59061,0.48323 1.28861,0.48323 0.80538,0 1.28861,-0.42954 0.53692,-0.48323 0.53692,-1.396 z m 11.06062,-19.007 v -14.01364 q 0,-0.85907 -0.59061,-1.3423 -0.53692,-0.48323 -1.23492,-0.48323 -0.75169,0 -1.3423,0.48323 -0.53692,0.48323 -0.53692,1.3423 v 33.02064 q 0,0.85908 0.53692,1.34231 0.59061,0.48323 1.3423,0.48323 0.80538,0 1.28861,-0.42954 0.53692,-0.48323 0.53692,-1.396 v -14.01363 l 4.34906,-4.29537 10.73842,19.16808 q 0.53692,1.02015 1.55707,1.02015 0.75169,0 1.3423,-0.48323 0.59062,-0.53692 0.59062,-1.3423 0,-0.42954 -0.26846,-0.96646 l -11.22165,-19.91977 10.89949,-10.8995 q 0.59062,-0.59061 0.59062,-1.28861 0,-0.75169 -0.59062,-1.28861 -0.53692,-0.59061 -1.28861,-0.59061 -0.69799,0 -1.28861,0.59061 z m 32.10793,11.59749 h 13.31564 l 2.63091,7.94643 q 0.21477,0.80539 0.91277,1.12754 0.53692,0.10738 0.80538,0.10738 0.698,0 1.28861,-0.48323 0.59061,-0.48322 0.59061,-1.23491 0,-0.26846 -0.10738,-0.698 l -11.06058,-33.02064 q -0.48322,-1.55707 -1.71814,-1.55707 -1.12754,0 -1.71815,1.55707 l -11.00688,33.02064 q -0.16108,0.32215 -0.16108,0.698 0,0.75169 0.59062,1.23491 0.59061,0.48323 1.28861,0.48323 1.3423,0 1.71814,-1.23492 z m 12.08072,-3.70475 h -10.8458 l 5.4229,-16.21502 z"
     id="text15-4"
     transform="scale(1.0197553,0.98062742)"
     aria-label="ТЕХНИКА" />
  <polyline
     points="129.67 223.50 110.22 257.18"
     fill="none"
     stroke="#000000"
     stroke-width="2"
     id="polyline7"
     transform="matrix(1.000007,0,0,0.99861896,-40.1561,-39.887658)" />
  <polyline
     points="134.00 226.00 114.55 259.68"
     fill="none"
     stroke="#000000"
     stroke-width="2"
     id="polyline8"
     transform="matrix(1.000007,0,0,0.99861896,-40.1561,-39.887658)" />
  <polyline
     points="138.33 228.50 118.88 262.18"
     fill="none"
     stroke="#000000"
     stroke-width="2"
     id="polyline9"
     transform="matrix(1.000007,0,0,0.99861896,-40.1561,-39.887658)" />
  <polyline
     points="106.95 259.18 50.22 259.18"
     fill="none"
     stroke="#000000"
     stroke-width="2"
     id="polyline10"
     transform="matrix(1.000007,0,0,0.99861896,-40.1561,-39.887658)" />
  <polyline
     points="430.22 259.18 127.26 259.18"
     fill="none"
     stroke="#000000"
     stroke-width="2"
     id="polyline11"
     transform="matrix(1.000007,0,0,0.99861896,-40.1561,-39.887658)" />
  <ellipse
     cx="9.8442497"
     cy="218.75462"
     fill="#000000"
     stroke="none"
     stroke-width="1.99937"
     id="circle11"
     rx="4.0000281"
     ry="3.9944761" />
  <ellipse
     cx="389.84689"
     cy="218.75462"
     fill="#000000"
     stroke="none"
     stroke-width="1.99937"
     id="circle12"
     rx="4.0000281"
     ry="3.9944761" />
  <polyline
     points="221.00 141.99 221.00 203.10"
     fill="none"
     stroke="#d6d6d6"
     stroke-width="4"
     id="polyline12"
     transform="matrix(1.000007,0,0,0.99861896,-40.1561,-39.887658)" />
  <polyline
     points="240.66 141.99 240.66 203.10"
     fill="none"
     stroke="#d6d6d6"
     stroke-width="4"
     id="polyline13"
     transform="matrix(1.000007,0,0,0.99861896,-40.1561,-39.887658)" />
  <polyline
     points="260.33 141.99 260.33 203.10"
     fill="none"
     stroke="#d6d6d6"
     stroke-width="4"
     id="polyline14"
     transform="matrix(1.000007,0,0,0.99861896,-40.1561,-39.887658)" />
  <polygon
     points="197,142 285,142 285,130 197,130 "
     fill="#d6d6d6"
     stroke="#d6d6d6"
     stroke-width="4"
     id="polygon14"
     transform="matrix(1.000007,0,0,0.99861896,-40.1561,-39.887658)" />
  <polygon
     points="211,130 211,116 211,107 212,102 214,99 216,96 219,95 222,94 225,93 227,93 254,93 259,94 263,95 266,97 268,100 269,102 270,105 270,107 270,130 256,130 254,130 227,130 "
     fill="#d6d6d6"
     stroke="#d6d6d6"
     stroke-width="4"
     id="polygon15"
     transform="matrix(1.000007,0,0,0.99861896,-40.1561,-39.887658)" />
  <polygon
     points="120,218 146,233 150,226 124,211 "
     fill="#ff0000"
     stroke="#800000"
     stroke-width="1"
     id="polygon9-2"
     style="stroke-linecap:round;stroke-linejoin:round"
     transform="matrix(1.0020646,0,0,1.0006738,-39.370674,-40.397077)" />
  <path
     id="polygon17-7-2-1"
     style="fill:#ff0000;stroke:#800000;stroke-linecap:round;stroke-linejoin:round"
     d="M 188.70864,166.00942 192.5,166 l 2.79702,0.004 A 6.6081721,6.6081721 44.100143 0 1 202,172.5 V 189 h -9 -11 v -12 l 0.004,-4.27667 a 6.7209108,6.7209108 134.95855 0 1 6.7042,-6.71391 z"
     sodipodi:nodetypes="ccccccccc"
     transform="matrix(0.86738881,0.50009207,-0.51113536,0.88408361,28.122661,-84.805279)"
     inkscape:original-d="M 182.0114,166.02607 192.5,166 201.99428,166.0147 202,172.5 V 189 h -9 -11 v -12 z"
     inkscape:path-effect="#path-effect1-5-1-5" />
  <path
     style="font-size:23.8317px;font-family:'GOST Common';-inkscape-font-specification:'GOST Common, Normal';stroke:#120000;stroke-width:0.3"
     d="m 11.40414,234.89936 q 0.16792,-0.64585 0.826683,-0.64585 h 8.176404 q 1.601697,0 2.350877,1.36919 0.348757,0.62002 0.348757,1.35628 0,0.34876 -0.09042,0.6846 l -2.118374,7.89223 q -0.180836,0.63293 -0.813765,0.63293 -0.33584,0 -0.607095,-0.24543 -0.258338,-0.25833 -0.258338,-0.58126 0,-0.11625 0.03875,-0.25833 l 1.989204,-7.44014 q 0.09042,-0.33584 0.09042,-0.63293 0,-1.07211 -1.382109,-1.07211 h -1.769617 l -2.583382,9.59727 q -0.180837,0.63293 -0.813765,0.63293 -0.33584,0 -0.607095,-0.24543 -0.258338,-0.25833 -0.258338,-0.58126 0,-0.11625 0.03875,-0.25833 l 2.467129,-9.14518 h -3.539233 l -2.583382,9.59727 q -0.180837,0.63293 -0.8137654,0.63293 -0.3358397,0 -0.6070948,-0.24543 -0.2583382,-0.25833 -0.2583382,-0.58126 0,-0.11625 0.038751,-0.25833 z m 21.971649,3.61673 q 0.142086,-0.55543 0.142086,-0.94293 0,-1.61462 -2.092539,-1.61462 -2.63505,0 -3.332563,2.55755 l -0.232505,0.85252 h 5.295934 z m 1.769617,0 -0.684597,2.55755 h -7.052632 l -0.452092,1.70503 q -0.09042,0.33584 -0.09042,0.62001 0,1.08502 1.38211,1.08502 h 4.185079 q 0.852516,0 0.852516,0.85252 0,0.85252 -0.852516,0.85252 h -4.637171 q -1.110854,0 -1.911703,-0.80085 -0.787931,-0.80085 -0.787931,-1.91171 0,-0.36167 0.09042,-0.69751 l 1.136688,-4.26258 q 0.607095,-2.28629 1.898786,-3.26798 1.291691,-0.9946 3.668402,-0.9946 1.42086,0 2.389629,0.96877 0.981685,0.95585 0.981685,2.36379 0,0.49085 -0.116252,0.93002 z m 8.499339,1.89879 1.937536,4.5855 q 0.06459,0.155 0.06459,0.36167 0,0.82669 -0.839599,0.82669 -0.568345,0 -0.787932,-0.51668 l -1.653365,-3.91382 -4.004242,4.17216 q -0.258338,0.25834 -0.632928,0.25834 -0.839599,0 -0.839599,-0.86544 0,-0.32292 0.232504,-0.56834 l 4.520919,-4.71467 -1.950454,-4.59842 q -0.06458,-0.15501 -0.06458,-0.33584 0,-0.34876 0.245421,-0.59418 0.245421,-0.25834 0.607095,-0.25834 0.555427,0 0.775014,0.51668 l 1.666282,3.93965 4.017159,-4.18507 q 0.258338,-0.27126 0.594178,-0.27126 0.865433,0 0.865433,0.82668 0,0.37459 -0.232505,0.62001 z m 13.769435,0.65876 h -5.295933 l -1.201273,4.48217 q -0.16792,0.63293 -0.826682,0.63293 -0.33584,0 -0.607095,-0.24543 -0.258338,-0.25833 -0.258338,-0.58126 0,-0.11625 0.03875,-0.25833 l 2.738385,-10.21728 q 0.167919,-0.63293 0.813765,-0.63293 0.348756,0 0.607095,0.24542 0.258338,0.24542 0.258338,0.59418 0,0.155 -0.02583,0.24542 l -1.08502,4.03008 h 5.30885 l 1.201272,-4.48217 q 0.16792,-0.63293 0.813766,-0.63293 0.852516,0 0.852516,0.8396 0,0.155 -0.02583,0.24542 l -2.738385,10.21728 q -0.16792,0.63293 -0.813765,0.63293 -0.33584,0 -0.607095,-0.24543 -0.258338,-0.25833 -0.258338,-0.58126 0,-0.11625 0.03875,-0.25833 z m 14.040694,-6.1872 q 0.16792,-0.63293 0.813766,-0.63293 0.852516,0 0.852516,0.8396 0,0.155 -0.02583,0.24542 l -2.699634,9.99769 q -0.232505,0.85252 -1.110855,0.85252 h -4.404666 q -1.110854,0 -1.911703,-0.80085 -0.787931,-0.80085 -0.787931,-1.91171 0,-0.36167 0.09042,-0.69751 l 2.118373,-7.89223 q 0.16792,-0.63293 0.813766,-0.63293 0.852516,0 0.852516,0.8396 0,0.155 -0.02583,0.24542 l -1.989204,7.44014 q -0.09042,0.33584 -0.09042,0.62001 0,1.08502 1.38211,1.08502 h 3.539233 z m 11.237725,10.66937 q -0.180837,0.63293 -0.813765,0.63293 -0.33584,0 -0.607095,-0.24543 -0.258338,-0.25833 -0.258338,-0.58126 0,-0.11625 0.03875,-0.25833 l 1.085021,-4.03008 h -3.539233 q -1.110855,0 -1.911703,-0.78793 -0.787932,-0.80085 -0.787932,-1.9117 0,-0.3746 0.09042,-0.71043 l 0.74918,-2.77714 q 0.16792,-0.63293 0.813766,-0.63293 0.852516,0 0.852516,0.8396 0,0.14209 -0.02583,0.24542 l -0.620012,2.32505 q -0.103335,0.3875 -0.103335,0.60709 0,1.09794 1.407943,1.09794 h 3.526317 l 1.214189,-4.48217 q 0.16792,-0.63293 0.813766,-0.63293 0.852516,0 0.852516,0.8396 0,0.155 -0.02583,0.24542 z m 12.490657,-7.03972 q 0.142086,-0.55543 0.142086,-0.94293 0,-1.61462 -2.092539,-1.61462 -2.63505,0 -3.332563,2.55755 l -0.232504,0.85252 h 5.295933 z m 1.769617,0 -0.684596,2.55755 h -7.052633 l -0.452092,1.70503 q -0.09042,0.33584 -0.09042,0.62001 0,1.08502 1.382109,1.08502 h 4.185079 q 0.852516,0 0.852516,0.85252 0,0.85252 -0.852516,0.85252 h -4.637171 q -1.110854,0 -1.911702,-0.80085 -0.787932,-0.80085 -0.787932,-1.91171 0,-0.36167 0.09042,-0.69751 l 1.136689,-4.26258 q 0.607094,-2.28629 1.898785,-3.26798 1.291691,-0.9946 3.668403,-0.9946 1.42086,0 2.389628,0.96877 0.981685,0.95585 0.981685,2.36379 0,0.49085 -0.116252,0.93002 z m 7.892247,7.67265 h -2.88047 q -1.11086,0 -1.91171,-0.80085 -0.787927,-0.80085 -0.787927,-1.91171 0,-0.36167 0.09042,-0.69751 l 1.369189,-5.11509 q 0.49085,-1.84712 1.55003,-2.63505 1.02044,-0.77502 2.89339,-0.77502 h 2.42838 q 0.85252,0 0.85252,0.85252 0,0.85251 -0.85252,0.85251 h -2.88047 q -1.78253,0 -2.23463,1.70504 l -1.35627,5.11509 q -0.10334,0.38751 -0.10334,0.54251 0,1.16252 1.39503,1.16252 h 2.42838 q 0.85251,0 0.85251,0.85252 0,0.85252 -0.85251,0.85252 z m 9.22268,-5.48969 -2.28629,1.7567 -0.82669,3.10006 q -0.16792,0.63293 -0.81376,0.63293 -0.33584,0 -0.6071,-0.24543 -0.25833,-0.25833 -0.25833,-0.58126 0,-0.11625 0.0387,-0.25833 l 2.73838,-10.21728 q 0.16792,-0.63293 0.81377,-0.63293 0.85251,0 0.85251,0.8396 0,0.155 -0.0258,0.24542 l -1.17544,4.40467 6.89763,-5.30885 q 0.2325,-0.18084 0.51668,-0.18084 0.32292,0 0.59417,0.25834 0.27126,0.25834 0.27126,0.58126 0,0.42626 -0.34876,0.69751 l -4.99884,3.83633 2.5188,5.33468 q 0.0904,0.19375 0.0904,0.36167 0,0.34876 -0.25833,0.6071 -0.25834,0.25834 -0.6071,0.25834 -0.52959,0 -0.7621,-0.49085 z m 8.4735,1.22711 0.90419,-3.41007 q 0.60709,-2.28629 1.89878,-3.26798 1.2917,-0.9946 3.66841,-0.9946 1.42086,0 2.38963,0.96877 0.98168,0.95585 0.98168,2.36379 0,0.49085 -0.11625,0.93002 l -0.90419,3.41007 q -0.40042,1.48544 -1.12377,2.45421 -1.33044,1.80837 -4.44341,1.80837 -1.42086,0 -2.40255,-0.95586 -0.96877,-0.96876 -0.96877,-2.37671 0,-0.49084 0.11625,-0.93001 z m 7.05264,0 0.90418,-3.41007 q 0.14209,-0.52959 0.14209,-0.95585 0,-1.6017 -2.09254,-1.6017 -2.64797,0 -3.33256,2.55755 l -0.91711,3.41007 q -0.14208,0.52959 -0.14208,0.95585 0,1.60169 2.09254,1.60169 2.66088,0 3.34548,-2.55754 z m 13.26567,-3.41007 q 0.14209,-0.55543 0.14209,-0.94293 0,-1.61462 -2.09254,-1.61462 -2.63505,0 -3.33257,2.55755 l -0.2325,0.85252 h 5.29593 z m 1.76962,0 -0.6846,2.55755 H 136.892 l -0.45209,1.70503 q -0.0904,0.33584 -0.0904,0.62001 0,1.08502 1.38211,1.08502 h 4.18508 q 0.85251,0 0.85251,0.85252 0,0.85252 -0.85251,0.85252 h -4.63718 q -1.11085,0 -1.9117,-0.80085 -0.78793,-0.80085 -0.78793,-1.91171 0,-0.36167 0.0904,-0.69751 l 1.13669,-4.26258 q 0.60709,-2.28629 1.89878,-3.26798 1.29169,-0.9946 3.66841,-0.9946 1.42086,0 2.38962,0.96877 0.98169,0.95585 0.98169,2.36379 0,0.49085 -0.11625,0.93002 z m 10.35938,-3.61673 q 0.16792,-0.64585 0.82669,-0.64585 h 8.1764 q 1.6017,0 2.35088,1.36919 0.34875,0.62002 0.34875,1.35628 0,0.34876 -0.0904,0.6846 l -2.11838,7.89223 q -0.18083,0.63293 -0.81376,0.63293 -0.33584,0 -0.6071,-0.24543 -0.25834,-0.25833 -0.25834,-0.58126 0,-0.11625 0.0388,-0.25833 l 1.98921,-7.44014 q 0.0904,-0.33584 0.0904,-0.63293 0,-1.07211 -1.38211,-1.07211 h -1.76962 l -2.58338,9.59727 q -0.18084,0.63293 -0.81377,0.63293 -0.33584,0 -0.60709,-0.24543 -0.25834,-0.25833 -0.25834,-0.58126 0,-0.11625 0.0387,-0.25833 l 2.46713,-9.14518 h -3.53923 l -2.58338,9.59727 q -0.18084,0.63293 -0.81377,0.63293 -0.33584,0 -0.60709,-0.24543 -0.25834,-0.25833 -0.25834,-0.58126 0,-0.11625 0.0387,-0.25833 z m 17.64449,-0.0258 q 1.24002,-0.62001 2.24754,-0.62001 0.65876,0 1.33044,-0.81376 0.6846,-0.81377 0.6846,-1.5242 0,-1.0721 -1.39503,-1.0721 -1.76961,0 -2.23462,1.70503 z m -1.12377,-2.32504 q 0.47792,-1.80837 1.52419,-2.60922 1.04627,-0.80085 2.93214,-0.80085 1.12377,0 1.91171,0.78794 0.78793,0.78793 0.78793,1.92462 0,0.83959 -0.42626,1.62753 -0.45209,0.86543 -1.17544,1.1496 1.78253,0.89127 1.78253,2.95797 0,0.49085 -0.11625,0.93002 l -0.90418,3.41007 q -0.62001,2.29921 -1.93754,3.28089 -1.30461,0.98169 -3.62965,0.98169 -1.42086,0 -2.40255,-0.95586 -0.96876,-0.96876 -0.96876,-2.37671 0,-0.49084 0.11625,-0.93001 z m 4.54675,9.37768 0.90418,-3.41007 q 0.14209,-0.52959 0.14209,-0.95585 0,-1.6017 -2.09254,-1.6017 -2.64797,0 -3.33256,2.55755 l -0.9171,3.41007 q -0.14209,0.52959 -0.14209,0.95585 0,1.60169 2.09254,1.60169 2.66088,0 3.34548,-2.55754 z m 5.29595,0 0.90419,-3.41007 q 0.60709,-2.28629 1.89878,-3.26798 1.2917,-0.9946 3.66841,-0.9946 1.42086,0 2.38963,0.96877 0.98168,0.95585 0.98168,2.36379 0,0.49085 -0.11625,0.93002 l -0.90419,3.41007 q -0.40042,1.48544 -1.12377,2.45421 -1.33044,1.80837 -4.44341,1.80837 -1.42086,0 -2.40255,-0.95586 -0.96877,-0.96876 -0.96877,-2.37671 0,-0.49084 0.11625,-0.93001 z m 7.05264,0 0.90418,-3.41007 q 0.14209,-0.52959 0.14209,-0.95585 0,-1.6017 -2.09254,-1.6017 -2.64797,0 -3.33256,2.55755 l -0.91711,3.41007 q -0.14208,0.52959 -0.14208,0.95585 0,1.60169 2.09254,1.60169 2.66088,0 3.34548,-2.55754 z m 7.18181,-7.0268 q 0.16792,-0.64585 0.82669,-0.64585 h 4.65008 q 1.12377,0 1.91171,0.80085 0.78793,0.78793 0.78793,1.9117 0,0.36168 -0.0904,0.69752 l -1.36919,5.11509 q -0.49085,1.8342 -1.55003,2.62213 -1.04627,0.78794 -2.90631,0.78794 h -3.52631 l -1.20128,4.48216 q -0.16792,0.63293 -0.81376,0.63293 -0.33584,0 -0.6071,-0.25834 -0.25834,-0.24542 -0.25834,-0.56834 0,-0.11625 0.0388,-0.25834 z m 1.48545,1.05918 -2.29921,8.52516 h 3.53923 q 1.78253,0 2.23463,-1.70503 l 1.35627,-5.11509 q 0.0904,-0.33584 0.0904,-0.62002 0,-1.08502 -1.38211,-1.08502 z m 16.83074,9.59727 q -0.18083,0.63293 -0.81376,0.63293 -0.33584,0 -0.6071,-0.24543 -0.25833,-0.25833 -0.25833,-0.58126 0,-0.11625 0.0387,-0.25833 l 1.08502,-4.03008 h -3.53924 q -1.11085,0 -1.9117,-0.78793 -0.78793,-0.80085 -0.78793,-1.9117 0,-0.3746 0.0904,-0.71043 l 0.74918,-2.77714 q 0.16792,-0.63293 0.81376,-0.63293 0.85252,0 0.85252,0.8396 0,0.14209 -0.0258,0.24542 l -0.62002,2.32505 q -0.10333,0.3875 -0.10333,0.60709 0,1.09794 1.40794,1.09794 h 3.52632 l 1.21419,-4.48217 q 0.16792,-0.63293 0.81376,-0.63293 0.85252,0 0.85252,0.8396 0,0.155 -0.0258,0.24542 z m 12.49067,-7.03972 q 0.14209,-0.55543 0.14209,-0.94293 0,-1.61462 -2.09254,-1.61462 -2.63505,0 -3.33257,2.55755 l -0.2325,0.85252 h 5.29593 z m 1.76962,0 -0.6846,2.55755 h -7.05263 l -0.45209,1.70503 q -0.0904,0.33584 -0.0904,0.62001 0,1.08502 1.38211,1.08502 h 4.18508 q 0.85251,0 0.85251,0.85252 0,0.85252 -0.85251,0.85252 h -4.63718 q -1.11085,0 -1.9117,-0.80085 -0.78793,-0.80085 -0.78793,-1.91171 0,-0.36167 0.0904,-0.69751 l 1.13669,-4.26258 q 0.60709,-2.28629 1.89878,-3.26798 1.29169,-0.9946 3.6684,-0.9946 1.42086,0 2.38963,0.96877 0.98169,0.95585 0.98169,2.36379 0,0.49085 -0.11625,0.93002 z m 7.89224,7.67265 h -2.88047 q -1.11085,0 -1.9117,-0.80085 -0.78793,-0.80085 -0.78793,-1.91171 0,-0.36167 0.0904,-0.69751 l 1.3692,-5.11509 q 0.49084,-1.84712 1.55003,-2.63505 1.02043,-0.77502 2.89338,-0.77502 h 2.42838 q 0.85252,0 0.85252,0.85252 0,0.85251 -0.85252,0.85251 h -2.88047 q -1.78253,0 -2.23462,1.70504 l -1.35628,5.11509 q -0.10333,0.38751 -0.10333,0.54251 0,1.16252 1.39502,1.16252 h 2.42838 q 0.85252,0 0.85252,0.85252 0,0.85252 -0.85252,0.85252 z m 7.20764,-11.28938 q 0.16792,-0.64585 0.82669,-0.64585 h 8.1764 q 1.6017,0 2.35088,1.36919 0.34875,0.62002 0.34875,1.35628 0,0.34876 -0.0904,0.6846 l -2.11838,7.89223 q -0.18083,0.63293 -0.81376,0.63293 -0.33584,0 -0.6071,-0.24543 -0.25834,-0.25833 -0.25834,-0.58126 0,-0.11625 0.0388,-0.25833 l 1.9892,-7.44014 q 0.0904,-0.33584 0.0904,-0.63293 0,-1.07211 -1.38211,-1.07211 h -1.76962 l -2.58338,9.59727 q -0.18084,0.63293 -0.81377,0.63293 -0.33584,0 -0.60709,-0.24543 -0.25834,-0.25833 -0.25834,-0.58126 0,-0.11625 0.0387,-0.25833 l 2.46713,-9.14518 h -3.53923 l -2.58338,9.59727 q -0.18084,0.63293 -0.81377,0.63293 -0.33584,0 -0.60709,-0.24543 -0.25834,-0.25833 -0.25834,-0.58126 0,-0.11625 0.0387,-0.25833 z m 17.64448,-0.0258 q 1.24002,-0.62001 2.24754,-0.62001 0.65876,0 1.33044,-0.81376 0.6846,-0.81377 0.6846,-1.5242 0,-1.0721 -1.39503,-1.0721 -1.76962,0 -2.23463,1.70503 z m -1.12378,-2.32504 q 0.47793,-1.80837 1.5242,-2.60922 1.04627,-0.80085 2.93214,-0.80085 1.12377,0 1.9117,0.78794 0.78793,0.78793 0.78793,1.92462 0,0.83959 -0.42626,1.62753 -0.45209,0.86543 -1.17543,1.1496 1.78253,0.89127 1.78253,2.95797 0,0.49085 -0.11625,0.93002 l -0.90419,3.41007 q -0.62001,2.29921 -1.93753,3.28089 -1.30461,0.98169 -3.62966,0.98169 -1.42086,0 -2.40254,-0.95586 -0.96877,-0.96876 -0.96877,-2.37671 0,-0.49084 0.11625,-0.93001 z m 4.54676,9.37768 0.90418,-3.41007 q 0.14209,-0.52959 0.14209,-0.95585 0,-1.6017 -2.09254,-1.6017 -2.64797,0 -3.33257,2.55755 l -0.9171,3.41007 q -0.14208,0.52959 -0.14208,0.95585 0,1.60169 2.09254,1.60169 2.66088,0 3.34548,-2.55754 z m 5.29595,0 0.90418,-3.41007 q 0.6071,-2.28629 1.89879,-3.26798 1.29169,-0.9946 3.6684,-0.9946 1.42086,0 2.38963,0.96877 0.98169,0.95585 0.98169,2.36379 0,0.49085 -0.11626,0.93002 l -0.90418,3.41007 q -0.40042,1.48544 -1.12377,2.45421 -1.33044,1.80837 -4.44342,1.80837 -1.42086,0 -2.40254,-0.95586 -0.96877,-0.96876 -0.96877,-2.37671 0,-0.49084 0.11625,-0.93001 z m 7.05263,0 0.90419,-3.41007 q 0.14208,-0.52959 0.14208,-0.95585 0,-1.6017 -2.09254,-1.6017 -2.64796,0 -3.33256,2.55755 l -0.9171,3.41007 q -0.14209,0.52959 -0.14209,0.95585 0,1.60169 2.09254,1.60169 2.66089,0 3.34548,-2.55754 z m 16.58533,5.99344 0.46501,-1.73086 h -3.52631 q -1.11086,0 -1.91171,-0.80085 -0.78793,-0.80085 -0.78793,-1.91171 0,-0.36167 0.0904,-0.69751 l 2.11837,-7.89223 q 0.16792,-0.63293 0.81377,-0.63293 0.85251,0 0.85251,0.8396 0,0.155 -0.0258,0.24542 l -1.9892,7.44014 q -0.0904,0.33584 -0.0904,0.62001 0,1.08502 1.38211,1.08502 h 3.53923 l 2.58338,-9.59726 q 0.16792,-0.63293 0.81377,-0.63293 0.85251,0 0.85251,0.8396 0,0.155 -0.0258,0.24542 l -3.37131,12.55524 q -0.64585,2.38963 -2.31213,3.06131 -0.85252,0.34875 -2.10546,0.34875 h -3.33256 q -0.85252,0 -0.85252,-0.85251 0,-0.85252 0.85252,-0.85252 h 3.7459 q 1.76962,0 2.22171,-1.6792 z m 14.76406,-2.36379 q -0.18084,0.63293 -0.81377,0.63293 -0.33584,0 -0.60709,-0.24543 -0.25834,-0.25833 -0.25834,-0.58126 0,-0.11625 0.0387,-0.25833 l 1.08502,-4.03008 h -3.53923 q -1.11086,0 -1.9117,-0.78793 -0.78794,-0.80085 -0.78794,-1.9117 0,-0.3746 0.0904,-0.71043 l 0.74918,-2.77714 q 0.16792,-0.63293 0.81377,-0.63293 0.85252,0 0.85252,0.8396 0,0.14209 -0.0258,0.24542 l -0.62001,2.32505 q -0.10334,0.3875 -0.10334,0.60709 0,1.09794 1.40795,1.09794 h 3.52631 l 1.21419,-4.48217 q 0.16792,-0.63293 0.81377,-0.63293 0.85252,0 0.85252,0.8396 0,0.155 -0.0258,0.24542 z m 7.36264,-1.07211 h 1.76961 q 0.67168,0 1.35628,-0.51667 0.69751,-0.5296 0.87835,-1.18836 l 1.82128,-6.82013 h -3.52631 q -1.78254,0 -2.23463,1.70504 l -1.35628,5.11509 q -0.0904,0.33584 -0.0904,0.6071 0,1.09793 1.38211,1.09793 z m -0.4521,1.70504 q -1.11085,0 -1.9117,-0.78794 -0.78793,-0.78793 -0.78793,-1.89878 0,-0.38751 0.0904,-0.72335 l 1.36919,-5.11509 q 0.49084,-1.84712 1.55003,-2.63505 1.02044,-0.77502 2.89339,-0.77502 h 4.41758 q 0.36167,0 0.55543,0.24542 0.19375,0.24542 0.10333,0.6071 l -2.29921,8.52516 q -0.0387,0.11625 -0.0387,0.2325 0,0.62001 0.6846,0.62001 0.85252,0 0.65876,0.85252 -0.20667,0.85252 -1.11085,0.85252 -1.40795,0 -1.7567,-0.96877 -0.74918,0.96877 -2.66089,0.96877 z m 22.95333,0 h -8.84808 q -1.12377,0 -1.9117,-0.77502 -0.78793,-0.77501 -0.78793,-1.89878 0,-0.40043 0.0904,-0.73627 l 2.11837,-7.89223 q 0.16792,-0.63293 0.81376,-0.63293 0.33584,0 0.59418,0.24542 0.27126,0.24542 0.27126,0.58126 0,0.11626 -0.0387,0.25834 l -1.98921,7.44014 q -0.0904,0.33584 -0.0904,0.64585 0,1.05918 1.38211,1.05918 h 1.78254 l 2.58338,-9.59726 q 0.16792,-0.63293 0.80085,-0.63293 0.33584,0 0.59418,0.24542 0.27125,0.24542 0.27125,0.58126 0,0.16792 -0.0258,0.25834 l -2.45422,9.14517 h 3.52632 l 2.58338,-9.59726 q 0.16792,-0.63293 0.80085,-0.63293 0.33584,0 0.59418,0.24542 0.27125,0.24542 0.27125,0.58126 0,0.11626 -0.0387,0.25834 l -2.45421,9.14517 h 0.89127 q 0.32292,0 0.52959,0.27126 0.20667,0.25834 0.12917,0.58126 l -0.73626,2.77714 q -0.16792,0.63292 -0.81377,0.63292 -0.33584,0 -0.6071,-0.25833 -0.25833,-0.24543 -0.25833,-0.56835 0,-0.11625 0.0387,-0.25834 z m 15.39696,-11.3023 q 0.16791,-0.63293 0.81376,-0.63293 0.85252,0 0.85252,0.8396 0,0.155 -0.0258,0.24542 l -2.69963,9.99769 q -0.23251,0.85252 -1.11086,0.85252 h -4.40466 q -1.11086,0 -1.9117,-0.80085 -0.78794,-0.80085 -0.78794,-1.91171 0,-0.36167 0.0904,-0.69751 l 2.11838,-7.89223 q 0.16792,-0.63293 0.81376,-0.63293 0.85252,0 0.85252,0.8396 0,0.155 -0.0258,0.24542 l -1.9892,7.44014 q -0.0904,0.33584 -0.0904,0.62001 0,1.08502 1.38211,1.08502 h 3.53923 z m 9.27436,5.52844 1.93754,4.5855 q 0.0646,0.155 0.0646,0.36167 0,0.82669 -0.8396,0.82669 -0.56835,0 -0.78793,-0.51668 l -1.65337,-3.91382 -4.00424,4.17216 q -0.25834,0.25834 -0.63293,0.25834 -0.8396,0 -0.8396,-0.86544 0,-0.32292 0.23251,-0.56834 l 4.52091,-4.71467 -1.95045,-4.59842 q -0.0646,-0.15501 -0.0646,-0.33584 0,-0.34876 0.24542,-0.59418 0.24542,-0.25834 0.60709,-0.25834 0.55543,0 0.77502,0.51668 l 1.66628,3.93965 4.01716,-4.18507 q 0.25834,-0.27126 0.59417,-0.27126 0.86544,0 0.86544,0.82668 0,0.37459 -0.23251,0.62001 z m 11.75439,5.77386 h -2.88047 q -1.11085,0 -1.9117,-0.80085 -0.78793,-0.80085 -0.78793,-1.91171 0,-0.36167 0.0904,-0.69751 l 1.3692,-5.11509 q 0.49084,-1.84712 1.55003,-2.63505 1.02043,-0.77502 2.89338,-0.77502 h 2.42838 q 0.85252,0 0.85252,0.85252 0,0.85251 -0.85252,0.85251 h -2.88047 q -1.78253,0 -2.23462,1.70504 l -1.35628,5.11509 q -0.10333,0.38751 -0.10333,0.54251 0,1.16252 1.39502,1.16252 h 2.42838 q 0.85252,0 0.85252,0.85252 0,0.85252 -0.85252,0.85252 z m 10.55314,-5.1151 -4.65009,4.85676 q -0.24542,0.25834 -0.60709,0.25834 -0.8396,0 -0.86544,-0.82669 -0.0129,-0.34875 0.24542,-0.62001 l 3.61674,-3.78465 q -0.86543,-0.25834 -1.39503,-0.98169 -0.51667,-0.72334 -0.51667,-1.61461 0,-0.41334 0.0775,-0.69751 0.50376,-1.84712 1.51128,-2.62214 1.00752,-0.78793 2.93214,-0.78793 h 4.18507 q 0.33584,0 0.59418,0.24542 0.27126,0.24542 0.27126,0.58126 0,0.11626 -0.0387,0.25834 l -2.75131,10.21728 q -0.18083,0.63293 -0.81376,0.63293 -0.85252,0 -0.85252,-0.8396 0,-0.15501 0.0258,-0.24542 l 1.08502,-4.03008 z m -1.02044,-1.70503 h 3.52632 l 0.93002,-3.41007 h -3.53924 q -1.71795,0 -2.24754,1.70504 -0.0775,0.24542 -0.0775,0.62001 0,1.08502 1.40794,1.08502 z"
     id="text1"
     transform="scale(1.0036661,0.99634729)"
     aria-label="техническое творчество учащихся" />
  <metadata
     id="metadata1">
    <rdf:RDF>
      <cc:Work
         rdf:about="">
        <dc:title>logo</dc:title>
      </cc:Work>
    </rdf:RDF>
  </metadata>
</svg>
