<?xml version="1.0" encoding="UTF-8" standalone="no"?>
<!-- Created with "sPlan" (http://www.abacom-online.de) -->

<svg
   version="1.1"
   width="40mm"
   height="40.000004mm"
   viewBox="0 0 400 400.00003"
   id="svg15"
   xmlns="http://www.w3.org/2000/svg"
   xmlns:svg="http://www.w3.org/2000/svg"
   xmlns:rdf="http://www.w3.org/1999/02/22-rdf-syntax-ns#"
   xmlns:cc="http://creativecommons.org/ns#"
   xmlns:dc="http://purl.org/dc/elements/1.1/">
  <title
     id="title1">logo</title>
  <defs
     id="defs1">
    <style
       type="text/css"
       id="style1"><![CDATA[
polyline {stroke-linecap:round; stroke-linejoin:round}
polygon {stroke-linecap:round; stroke-linejoin:round}
path {stroke-linecap:round; stroke-linejoin:round}
circle {stroke-linecap:round; stroke-linejoin:round}
]]></style>
  </defs>
  <path
     id="rect1"
     style="display:inline;fill:#00c22d;fill-opacity:1;stroke:#00c22d;stroke-width:1.84493;stroke-dasharray:none;stroke-opacity:1"
     d="M 199.99812,0.9250081 C 89.709169,0.9250081 0.9250081,89.709169 0.9250081,199.99812 c 0,110.28895 88.7841609,199.07828 199.0731119,199.07828 110.28895,0 199.07828,-88.78933 199.07828,-199.07828 0,-110.288951 -88.78933,-199.0731119 -199.07828,-199.0731119 z m -43.3772,34.2149649 h 84.24809 a 46.328021,45.741958 0 0 1 46.32792,45.743976 v 68.021681 h 36.3647 a 5.6168988,6.1578385 0 0 1 5.61206,6.15467 v 36.94348 a 5.6168988,6.1578385 0 0 1 -5.61206,6.15983 H 284.055 v 151.11738 a 17.398092,15.718327 0 0 1 -17.39945,15.71997 17.398092,15.718327 0 0 1 -17.39946,-15.71997 V 198.16361 h -32.81453 v 151.11738 a 17.398092,15.718327 0 0 1 -17.39429,15.71997 17.398092,15.718327 0 0 1 -17.40462,-15.71997 V 198.16361 h -32.77836 v 151.11738 a 17.398092,15.718327 0 0 1 -17.40462,15.71997 17.398092,15.718327 0 0 1 -17.39945,-15.71997 V 198.16361 H 76.439776 a 5.6168988,6.1578385 0 0 1 -5.617228,-6.15983 V 155.0603 a 5.6168988,6.1578385 0 0 1 5.617228,-6.15467 H 110.2775 V 80.894284 a 46.338914,45.752713 0 0 1 46.34342,-45.754311 z" />
  <metadata
     id="metadata1">
    <rdf:RDF>
      <cc:Work
         rdf:about="">
        <dc:title>logo</dc:title>
      </cc:Work>
    </rdf:RDF>
  </metadata>
</svg>
