<?xml version="1.0" encoding="UTF-8" standalone="no"?>
<!-- Created with "sPlan" (http://www.abacom-online.de) -->

<svg
   version="1.1"
   width="40mm"
   height="40mm"
   viewBox="0 0 400 400"
   id="svg15"
   sodipodi:docname="logo1.svg"
   inkscape:version="1.4.2 (f4327f4, 2025-05-13)"
   inkscape:export-filename="logo1.svg"
   inkscape:export-xdpi="300"
   inkscape:export-ydpi="300"
   inkscape:export-batch-path="C:\Users\User\Desktop"
   inkscape:export-batch-name="logo1"
   xmlns:inkscape="http://www.inkscape.org/namespaces/inkscape"
   xmlns:sodipodi="http://sodipodi.sourceforge.net/DTD/sodipodi-0.dtd"
   xmlns="http://www.w3.org/2000/svg"
   xmlns:svg="http://www.w3.org/2000/svg"
   xmlns:rdf="http://www.w3.org/1999/02/22-rdf-syntax-ns#"
   xmlns:cc="http://creativecommons.org/ns#"
   xmlns:dc="http://purl.org/dc/elements/1.1/">
  <sodipodi:namedview
     id="namedview15"
     pagecolor="#ffffff"
     bordercolor="#000000"
     borderopacity="0.25"
     inkscape:showpageshadow="2"
     inkscape:pageopacity="0.0"
     inkscape:pagecheckerboard="true"
     inkscape:deskcolor="#d1d1d1"
     inkscape:document-units="mm"
     inkscape:zoom="7.2407734"
     inkscape:cx="58.004853"
     inkscape:cy="74.922936"
     inkscape:window-width="1920"
     inkscape:window-height="1124"
     inkscape:window-x="1590"
     inkscape:window-y="-10"
     inkscape:window-maximized="1"
     inkscape:current-layer="svg15" />
  <title
     id="title1">logo</title>
  <defs
     id="defs1">
    <style
       type="text/css"
       id="style1"><![CDATA[
polyline {stroke-linecap:round; stroke-linejoin:round}
polygon {stroke-linecap:round; stroke-linejoin:round}
path {stroke-linecap:round; stroke-linejoin:round}
circle {stroke-linecap:round; stroke-linejoin:round}
]]></style>
    <inkscape:path-effect
       effect="fillet_chamfer"
       id="path-effect1-5-1"
       is_visible="true"
       lpeversion="1"
       nodesatellites_param="F,0,1,1,0,6.6972654,0,1 @ F,0,0,1,0,0,0,1 @ F,0,1,1,0,6.6972654,0,1 @ F,0,0,1,0,0,0,1 @ F,0,0,1,0,0,0,1 @ F,0,0,1,0,0,0,1 @ F,0,0,1,0,0,0,1 @ F,0,0,1,0,0,0,1"
       radius="2.5"
       unit="px"
       method="auto"
       mode="F"
       chamfer_steps="1"
       flexible="false"
       use_knot_distance="true"
       apply_no_radius="true"
       apply_with_radius="true"
       only_selected="true"
       hide_knots="false" />
    <inkscape:path-effect
       effect="fillet_chamfer"
       id="path-effect1-5-1-9"
       is_visible="true"
       lpeversion="1"
       nodesatellites_param="F,0,1,1,0,6.6972654,0,1 @ F,0,0,1,0,0,0,1 @ F,0,1,1,0,6.6972654,0,1 @ F,0,0,1,0,0,0,1 @ F,0,0,1,0,0,0,1 @ F,0,0,1,0,0,0,1 @ F,0,0,1,0,0,0,1 @ F,0,0,1,0,0,0,1"
       radius="2.5"
       unit="px"
       method="auto"
       mode="F"
       chamfer_steps="1"
       flexible="false"
       use_knot_distance="true"
       apply_no_radius="true"
       apply_with_radius="true"
       only_selected="true"
       hide_knots="false" />
    <inkscape:path-effect
       effect="fillet_chamfer"
       id="path-effect1-5-1-5"
       is_visible="true"
       lpeversion="1"
       nodesatellites_param="F,0,1,1,0,6.6972654,0,1 @ F,0,0,1,0,0,0,1 @ F,0,1,1,0,6.6972654,0,1 @ F,0,0,1,0,0,0,1 @ F,0,0,1,0,0,0,1 @ F,0,0,1,0,0,0,1 @ F,0,0,1,0,0,0,1 @ F,0,0,1,0,0,0,1"
       radius="2.5"
       unit="px"
       method="auto"
       mode="F"
       chamfer_steps="1"
       flexible="false"
       use_knot_distance="true"
       apply_no_radius="true"
       apply_with_radius="true"
       only_selected="true"
       hide_knots="false" />
  </defs>
  <path
     fill="#00c131"
     stroke="none"
     stroke-width="3"
     d="M 0,0 H 400 V 400 H 0 Z"
     id="path1"
     inkscape:export-filename="path1.png"
     inkscape:export-xdpi="322.13"
     inkscape:export-ydpi="322.13" />
  <polyline
     points="240.63 319.08 240.63 438.18"
     fill="none"
     stroke="#d6d6d6"
     stroke-width="4"
     id="polyline1"
     transform="matrix(1.0000114,0,0,0.99776592,-40.002705,-39.818266)" />
  <ellipse
     cx="200.62"
     cy="199.71541"
     fill="none"
     stroke="#d6d6d6"
     stroke-width="5.99333"
     id="circle1"
     rx="157.23178"
     ry="156.87872" />
  <polyline
     points="180.08 291.84 104.32 171.85"
     fill="none"
     stroke="#d6d6d6"
     stroke-width="4"
     id="polyline2"
     transform="matrix(1.0000114,0,0,0.99776592,-40.002705,-39.818266)" />
  <polyline
     points="279.93 329.08 374.27 171.85"
     fill="none"
     stroke="#d6d6d6"
     stroke-width="4"
     id="polyline3"
     transform="matrix(1.0000114,0,0,0.99776592,-40.002705,-39.818266)" />
  <polyline
     points="42.61 171.85 104.32 171.85"
     fill="none"
     stroke="#d6d6d6"
     stroke-width="4"
     id="polyline4"
     transform="matrix(1.0000114,0,0,0.99776592,-40.002705,-39.818266)" />
  <polyline
     points="374.27 171.85 437.70 171.85"
     fill="none"
     stroke="#d6d6d6"
     stroke-width="4"
     id="polyline5"
     transform="matrix(1.0000114,0,0,0.99776592,-40.002705,-39.818266)" />
  <polygon
     points="314,301 314,332 160,332 160,301 "
     fill="#d6d6d6"
     stroke="#d6d6d6"
     stroke-width="2"
     id="polygon5"
     transform="matrix(1.0000114,0,0,0.99776592,-40.002705,-39.818266)" />
  <polygon
     points="185,301 178,262 155,277 "
     fill="#d6d6d6"
     stroke="#d6d6d6"
     stroke-width="1"
     id="polygon6"
     transform="matrix(1.0000114,0,0,0.99776592,-40.002705,-39.818266)" />
  <path
     style="font-size:53.7679px;line-height:0;font-family:'GOST type B';-inkscape-font-specification:'GOST type B';stroke:#120000;stroke-width:1.07728;paint-order:fill markers stroke"
     d="m 15.203268,189.23206 v -14.36145 h 11.240824 q 1.535333,0 2.631999,1.05211 1.096665,0.99953 1.096665,2.5251 v 7.20703 q 0,1.52557 -1.096665,2.57768 -1.096666,0.99953 -2.631999,0.99953 z m 0,3.6298 h 11.240824 q 3.125499,0 5.263997,-2.10423 2.193331,-2.10425 2.193331,-5.10278 v -7.20703 q 0,-2.99854 -2.193331,-5.10279 -2.138498,-2.10423 -5.263997,-2.10423 H 13.338936 q -1.919165,0 -1.919165,1.8412 v 32.35269 q 0,0.8417 0.548333,1.31516 0.603166,0.47346 1.370832,0.47346 0.8225,0 1.316,-0.42085 0.548332,-0.47348 0.548332,-1.36777 z m 32.790358,5.31321 h 13.598656 l 2.686836,7.78569 q 0.219332,0.78909 0.932162,1.10473 0.548334,0.10522 0.822501,0.10522 0.712831,0 1.316,-0.47346 0.603159,-0.47347 0.603159,-1.20995 0,-0.26302 -0.10966,-0.68388 l -11.29566,-32.3527 q -0.493498,-1.52557 -1.754665,-1.52557 -1.1515,0 -1.754666,1.52557 l -11.240825,32.3527 q -0.1645,0.31565 -0.1645,0.68388 0,0.73648 0.603167,1.20995 0.603166,0.47346 1.316,0.47346 1.370831,0 1.754664,-1.20995 z m 12.337492,-3.62981 H 49.254791 l 5.538164,-15.88702 z m 82.249892,10.88943 V 173.082 q 0,-0.99951 -0.49349,-1.52558 -0.4935,-0.57866 -1.20632,-0.57866 -0.49349,0 -0.98701,0.31564 -0.4935,0.31563 -0.8225,0.8943 l -15.18883,26.30301 V 173.082 q 0,-0.8943 -0.60316,-1.36776 -0.54832,-0.47344 -1.26115,-0.47344 -0.82252,0 -1.37085,0.52605 -0.54832,0.47346 -0.54832,1.31515 v 32.35269 q 0,0.94691 0.49349,1.52558 0.54833,0.52606 1.26118,0.52606 1.04182,0 1.80948,-1.20994 L 138.85236,180.026 v 25.40869 q 0,0.8417 0.54833,1.31516 0.60315,0.47346 1.31602,0.47346 0.82248,0 1.31598,-0.42085 0.54832,-0.47348 0.54832,-1.36777 z m 29.99388,-5.4184 v -21.56847 q 0,-2.99854 -2.19333,-5.10279 -2.1385,-2.10423 -5.264,-2.10423 h -7.51216 q -3.1255,0 -5.31883,2.10423 -2.19335,2.10425 -2.19335,5.10279 v 21.56847 q 0,3.05115 2.19335,5.15538 2.19333,2.05164 5.31883,2.05164 h 7.51216 q 3.1255,0 5.264,-2.05164 2.19333,-2.10423 2.19333,-5.15538 z m -3.72868,0 q 0,1.52558 -1.09665,2.57768 -1.09668,1.05213 -2.632,1.05213 h -7.51216 q -1.59018,0 -2.68683,-1.05213 -1.04183,-1.0521 -1.04183,-2.57768 v -21.56847 q 0,-1.52557 1.04183,-2.5251 1.09665,-1.05211 2.68683,-1.05211 h 7.51216 q 1.53532,0 2.632,1.05211 1.09665,0.99953 1.09665,2.5251 z m 23.63312,-25.14568 v 30.56408 q 0,0.8417 0.54832,1.31516 0.6032,0.47346 1.31602,0.47346 0.82249,0 1.37082,-0.42085 0.54836,-0.47348 0.54836,-1.36777 v -30.56408 h 7.4573 q 0.93219,0 1.37084,-0.52606 0.4935,-0.57867 0.4935,-1.26255 0,-0.78909 -0.4935,-1.31515 -0.43865,-0.52605 -1.37084,-0.52605 H 185.022 q -0.93215,0 -1.42566,0.57865 -0.49349,0.52606 -0.49349,1.26255 0,0.73648 0.49349,1.26255 0.54833,0.52606 1.42566,0.52606 z m 24.40086,10.78424 v -10.78424 h 13.15999 q 0.87736,0 1.37085,-0.52606 0.49349,-0.57867 0.49349,-1.26255 0,-0.78909 -0.49349,-1.31515 -0.43866,-0.52605 -1.37085,-0.52605 h -15.0243 q -1.91918,0 -1.91918,1.8412 v 32.45791 q 0,1.6834 1.91918,1.6834 h 15.0243 q 0.87736,0 1.37085,-0.52606 0.49349,-0.57868 0.49349,-1.26256 0,-0.78908 -0.49349,-1.26255 -0.43866,-0.52604 -1.37085,-0.52604 h -13.15999 v -14.41404 h 9.37651 q 0.93215,0 1.37081,-0.52607 0.4935,-0.52606 0.4935,-1.26254 0,-0.7891 -0.4935,-1.26256 -0.43866,-0.52604 -1.37081,-0.52604 z m 35.58686,0.31562 -9.7055,-13.88798 q -0.54833,-0.84169 -1.48051,-0.84169 -0.76766,0 -1.37082,0.52605 -0.60315,0.52606 -0.60315,1.26254 0,0.21042 0.0549,0.52607 0.0549,0.26302 0.27417,0.52606 l 10.52799,15.15054 -10.52799,15.20313 q -0.32899,0.47344 -0.32899,0.9995 0,0.73649 0.60315,1.31516 0.60316,0.52607 1.31598,0.52607 0.98702,0 1.53535,-0.8417 l 9.7055,-13.9406 9.65064,13.9406 q 0.54833,0.8417 1.48051,0.8417 0.8225,0 1.42566,-0.52607 0.60319,-0.57867 0.60319,-1.26255 0,-0.68388 -0.38386,-1.05211 l -10.52798,-15.20313 10.52798,-15.15054 q 0.38386,-0.52606 0.38386,-0.99952 0,-0.78909 -0.60319,-1.31515 -0.60316,-0.52605 -1.37082,-0.52605 -1.04185,0 -1.53535,0.84169 z m 39.31543,-0.31562 H 276.813 V 173.082 q 0,-0.8943 -0.60316,-1.36776 -0.54835,-0.47344 -1.26118,-0.47344 -0.82249,0 -1.37081,0.52605 -0.54836,0.47346 -0.54836,1.31515 v 32.35269 q 0,0.8417 0.54836,1.31516 0.60315,0.47346 1.37081,0.47346 0.82249,0 1.31602,-0.42085 0.54832,-0.47348 0.54832,-1.36777 v -16.20263 h 14.96948 v 16.20263 q 0,0.8417 0.54836,1.31516 0.54832,0.42086 1.31598,0.42086 0.71282,0 1.26118,-0.47346 0.60315,-0.47347 0.60315,-1.36777 v -32.35269 q 0,-0.84169 -0.54832,-1.31515 -0.54835,-0.47346 -1.31601,-0.47346 -0.76766,0 -1.31598,0.52606 -0.54836,0.47346 -0.54836,1.26255 z m 33.72255,19.77984 V 173.082 q 0,-0.99951 -0.4935,-1.52558 -0.4935,-0.57866 -1.20635,-0.57866 -0.49349,0 -0.98699,0.31564 -0.49349,0.31563 -0.82249,0.8943 l -15.18883,26.30301 V 173.082 q 0,-0.8943 -0.60316,-1.36776 -0.54832,-0.47344 -1.26119,-0.47344 -0.82248,0 -1.3708,0.52605 -0.54833,0.47346 -0.54833,1.31515 v 32.35269 q 0,0.94691 0.49349,1.52558 0.54833,0.52606 1.26115,0.52606 1.04185,0 1.80951,-1.20994 L 321.77637,180.026 v 25.40869 q 0,0.8417 0.54833,1.31516 0.60316,0.47346 1.31598,0.47346 0.82253,0 1.31602,-0.42085 0.54833,-0.47348 0.54833,-1.36777 z m 11.29571,-18.62252 V 173.082 q 0,-0.84169 -0.60316,-1.31515 -0.54833,-0.47345 -1.26115,-0.47345 -0.76769,0 -1.37085,0.47345 -0.54833,0.47346 -0.54833,1.31515 v 32.35269 q 0,0.8417 0.54833,1.31516 0.60316,0.47346 1.37085,0.47346 0.82249,0 1.31598,-0.42085 0.54833,-0.47348 0.54833,-1.36777 v -13.73016 l 4.44151,-4.20848 10.96665,18.78034 q 0.54832,0.99953 1.59017,0.99953 0.76766,0 1.37082,-0.47346 0.60316,-0.52607 0.60316,-1.31516 0,-0.42083 -0.27416,-0.9469 l -11.46015,-19.51683 11.13115,-10.67902 q 0.60316,-0.57867 0.60316,-1.26255 0,-0.73649 -0.60316,-1.26255 -0.54833,-0.57865 -1.31598,-0.57865 -0.71286,0 -1.31602,0.57865 z m 32.79036,11.3629 h 13.59865 l 2.68684,7.78569 q 0.21933,0.78909 0.93215,1.10473 0.54833,0.10522 0.82249,0.10522 0.71285,0 1.31601,-0.47346 0.60317,-0.47347 0.60317,-1.20995 0,-0.26302 -0.10967,-0.68388 l -11.29566,-32.3527 q -0.49349,-1.52557 -1.75467,-1.52557 -1.15149,0 -1.75465,1.52557 l -11.24084,32.3527 q -0.16451,0.31565 -0.16451,0.68388 0,0.73648 0.60318,1.20995 0.60318,0.47346 1.316,0.47346 1.37083,0 1.75467,-1.20995 z m 12.33747,-3.62981 h -11.07632 l 5.53816,-15.88702 z"
     id="text15"
     aria-label="РА  ИОТЕХНИКА" />
  <path
     fill="rgb(0,0,0)"
     stroke="#000000"
     stroke-width="0"
     d="m 11.627877,233.86893 0.08,-0.22949 0.130002,-0.1796 0.160002,-0.1297 0.210002,-0.0797 0.240003,-0.02 h 8.160092 l 0.610007,0.05 0.530006,0.16962 0.470005,0.2694 0.400004,0.37915 0.330004,0.4889 0.130002,0.24943 0.09,0.25943 0.07,0.2694 0.05,0.27937 0.01,0.28936 v 0.13968 l -0.02,0.13969 -0.01,0.13968 -0.03,0.12972 -0.03,0.13968 -2.120024,7.84245 -0.09,0.21949 -0.130001,0.17961 -0.160002,0.1297 -0.200002,0.07 -0.230003,0.03 -0.130001,-0.01 -0.130002,-0.03 -0.120001,-0.05 -0.120002,-0.0698 -0.100001,-0.0897 -0.100001,-0.0997 -0.07,-0.10976 -0.06,-0.11973 -0.03,-0.11973 -0.01,-0.11973 v -0.05 l 0.01,-0.05 0.01,-0.05 0.01,-0.05 0.01,-0.06 2.000022,-7.3635 0.03,-0.12971 0.02,-0.12972 0.02,-0.1297 0.01,-0.11973 0.01,-0.11973 -0.06,-0.37916 -0.160002,-0.29933 -0.280004,-0.20953 -0.390004,-0.12971 -0.500005,-0.04 h -1.76002 l -2.590029,9.49874 -0.09,0.21949 -0.120001,0.17961 -0.160002,0.1297 -0.200002,0.0699 -0.240002,0.03 -0.130002,-0.01 -0.120001,-0.03 -0.120002,-0.05 -0.120001,-0.0698 -0.110001,-0.0897 -0.09,-0.0997 -0.08,-0.10976 -0.05,-0.11973 -0.03,-0.11973 -0.01,-0.11973 v -0.05 -0.05 l 0.01,-0.05 0.01,-0.05 0.01,-0.06 2.480028,-9.04973 h -3.54004 l -2.580029,9.49874 -0.09,0.21949 -0.130001,0.17961 -0.160002,0.1297 -0.2000024,0.07 -0.2300025,0.03 -0.1400017,-0.01 -0.1200013,-0.03 -0.1200014,-0.05 -0.1200013,-0.0699 -0.1000011,-0.0897 -0.1000012,-0.10974 -0.07,-0.10976 -0.05,-0.10976 -0.04,-0.11973 -0.01,-0.1297 0.01,-0.04 v -0.05 l 0.01,-0.05 0.01,-0.0599 0.01,-0.0599 z m 22.010247,3.48221 0.05,-0.19956 0.04,-0.18957 0.03,-0.17961 0.02,-0.15964 v -0.14967 l -0.08,-0.54877 -0.250003,-0.41905 -0.420005,-0.29933 -0.580007,-0.17961 -0.750008,-0.0599 -0.980011,0.0897 -0.82001,0.28935 -0.660007,0.47893 -0.510006,0.66851 -0.360004,0.85808 -0.230002,0.7982 h 5.29006 z m 1.77002,0.04 -0.690007,2.49441 h -7.03008 l -0.460005,1.73611 -0.03,0.1297 -0.03,0.12973 -0.01,0.1297 -0.02,0.11973 v 0.11973 l 0.05,0.3991 0.170002,0.30931 0.280003,0.21952 0.380004,0.1297 0.500006,0.05 h 4.170047 l 0.310003,0.03 0.240003,0.10976 0.170002,0.16961 0.100001,0.23946 0.03,0.31931 -0.03,0.30929 -0.100001,0.23948 -0.170002,0.17958 -0.240003,0.0997 -0.310003,0.04 h -4.620052 l -0.430005,-0.03 -0.410005,-0.0997 -0.380004,-0.15965 -0.350004,-0.21949 -0.330004,-0.28937 -0.290003,-0.32925 -0.220002,-0.35919 -0.160002,-0.37916 -0.09,-0.3991 -0.03,-0.42904 v -0.14967 l 0.01,-0.13969 0.02,-0.13968 0.03,-0.1397 0.03,-0.1297 1.140012,-4.2405 0.270003,-0.85808 0.320004,-0.74833 0.380005,-0.65852 0.440004,-0.53879 0.490006,-0.44901 0.550006,-0.34922 0.650008,-0.27937 0.730007,-0.19955 0.82001,-0.10976 0.91001,-0.04 0.550006,0.03 0.510006,0.11973 0.480006,0.18958 0.440004,0.25942 0.400005,0.33923 0.350004,0.38913 0.280003,0.42904 0.190002,0.45898 0.120001,0.49888 0.03,0.5388 v 0.18956 l -0.01,0.17961 -0.03,0.1796 -0.03,0.17959 z m 8.610097,1.96559 1.930023,4.54981 0.02,0.0697 0.02,0.07 0.01,0.0699 0.01,0.07 v 0.0797 l -0.03,0.29931 -0.100002,0.22949 -0.170001,0.16962 -0.230003,0.0897 -0.300003,0.04 -0.220003,-0.02 -0.180002,-0.0699 -0.160001,-0.0997 -0.130002,-0.1397 -0.100001,-0.18956 -1.640018,-3.89129 -4.000046,4.1507 -0.110001,0.0897 -0.120001,0.0697 -0.130002,0.06 -0.130001,0.03 -0.150002,0.01 -0.300004,-0.04 -0.230002,-0.0997 -0.170002,-0.16961 -0.100001,-0.23946 -0.03,-0.30931 0.01,-0.12971 0.02,-0.11974 0.05,-0.10974 0.07,-0.10976 0.08,-0.0997 4.510051,-4.6895 -1.940022,-4.56976 -0.02,-0.0599 -0.02,-0.07 -0.01,-0.0599 -0.01,-0.0699 v -0.0797 l 0.01,-0.12971 0.03,-0.12971 0.05,-0.11973 0.07,-0.10976 0.09,-0.0997 0.100002,-0.0897 0.11,-0.0698 0.120002,-0.05 0.130001,-0.03 0.140002,-0.01 0.210002,0.02 0.180002,0.0599 0.160003,0.0997 0.130001,0.14966 0.100001,0.17959 1.650019,3.92123 4.020045,-4.16069 0.100001,-0.0997 0.120002,-0.0797 0.11,-0.05 0.130002,-0.03 0.130001,-0.01 0.310004,0.03 0.240002,0.0997 0.170003,0.15964 0.110001,0.22949 0.03,0.29932 -0.01,0.14967 -0.03,0.1297 -0.04,0.11975 -0.07,0.11973 -0.08,0.0997 z m 13.870156,0.52882 h -5.280058 l -1.200014,4.55978 -0.09,0.22949 -0.120002,0.17961 -0.170001,0.1297 -0.200003,0.0797 -0.250003,0.03 -0.130001,-0.01 -0.120002,-0.03 -0.12,-0.05 -0.120002,-0.0699 -0.100001,-0.0897 -0.100002,-0.10973 -0.07,-0.10976 -0.06,-0.10976 -0.03,-0.11973 -0.01,-0.1297 v -0.04 l 0.01,-0.05 v -0.05 l 0.01,-0.06 0.02,-0.0599 2.740031,-10.14729 0.09,-0.22947 0.12,-0.1796 0.170003,-0.11973 0.200001,-0.0797 0.240003,-0.02 0.130002,0.01 0.130001,0.02 0.120002,0.05 0.110001,0.0699 0.110002,0.0797 0.09,0.0997 0.08,0.10976 0.05,0.10974 0.03,0.12972 v 0.12971 0.0599 0.05 0.04 l -0.01,0.05 -0.01,0.03 -1.080012,3.8813 h 5.30006 l 1.200014,-4.31034 0.08,-0.21952 0.130003,-0.16961 0.160001,-0.12971 0.200002,-0.0699 0.240003,-0.02 0.300003,0.03 0.240003,0.0997 0.170001,0.16962 0.100002,0.22949 0.04,0.3093 -0.01,0.05 v 0.0599 0.05 l -0.01,0.04 -0.01,0.04 -2.74003,10.15726 -0.09,0.21949 -0.120001,0.17961 -0.170002,0.1297 -0.200003,0.07 -0.230001,0.03 -0.140003,-0.01 -0.12,-0.03 -0.120002,-0.06 -0.110001,-0.0697 -0.110002,-0.0897 -0.100001,-0.0997 -0.07,-0.11973 -0.05,-0.10976 -0.03,-0.12973 -0.02,-0.1297 0.01,-0.04 v -0.05 l 0.01,-0.06 0.01,-0.05 0.01,-0.0599 z m 14.160161,-6.02652 0.09,-0.22947 0.120001,-0.1796 0.160002,-0.11973 0.200003,-0.0797 0.240003,-0.02 0.310003,0.03 0.240003,0.0997 0.170001,0.16962 0.100002,0.22949 0.03,0.3093 v 0.05 l -0.01,0.0599 v 0.05 l -0.01,0.04 -0.01,0.04 -2.70003,9.93774 -0.120002,0.29934 -0.170002,0.23946 -0.220002,0.16961 -0.270003,0.0997 -0.330005,0.04 h -4.390049 l -0.430005,-0.03 -0.410004,-0.0997 -0.380005,-0.15965 -0.350004,-0.21949 -0.330003,-0.28937 -0.290003,-0.32925 -0.220003,-0.35919 -0.160002,-0.37916 -0.09,-0.3991 -0.03,-0.42904 v -0.14967 l 0.01,-0.13969 0.02,-0.13968 0.03,-0.1397 0.03,-0.1297 2.120024,-7.84245 0.09,-0.22947 0.120002,-0.1796 0.160002,-0.11973 0.200002,-0.0797 0.240003,-0.02 0.310003,0.03 0.240003,0.0997 0.160002,0.16962 0.110001,0.22949 0.03,0.29933 v 0.0599 l -0.01,0.05 v 0.05 l -0.01,0.05 -0.01,0.04 -1.990022,7.3635 -0.03,0.12972 -0.03,0.11974 -0.01,0.1297 -0.02,0.10976 v 0.11973 l 0.05,0.38913 0.170001,0.29931 0.280003,0.20955 0.380005,0.1297 0.500006,0.05 h 3.530039 z m 11.340127,10.60627 -0.09,0.21949 -0.130002,0.17961 -0.160001,0.1297 -0.200003,0.07 -0.240002,0.03 -0.130001,-0.01 -0.120002,-0.03 -0.120001,-0.06 -0.120002,-0.0697 -0.110001,-0.0897 -0.09,-0.0997 -0.07,-0.11973 -0.06,-0.10976 -0.03,-0.12973 -0.01,-0.1297 v -0.04 l 0.01,-0.05 v -0.06 l 0.01,-0.05 0.02,-0.0599 1.080012,-4.10081 h -3.520039 l -0.440005,-0.03 -0.400004,-0.0997 -0.380005,-0.14967 -0.360004,-0.21949 -0.330003,-0.27938 -0.280003,-0.31928 -0.220003,-0.34922 -0.160002,-0.36918 -0.09,-0.3991 -0.04,-0.41907 0.01,-0.14967 0.01,-0.13967 0.02,-0.1397 0.02,-0.13968 0.03,-0.12972 0.760009,-2.70394 0.08,-0.22949 0.130002,-0.16961 0.160001,-0.11973 0.200002,-0.0797 0.240003,-0.02 0.300004,0.03 0.240002,0.0997 0.170003,0.15964 0.1,0.22949 0.03,0.28935 v 0.05 0.05 0.05 l -0.01,0.04 -0.01,0.04 -0.620006,2.23499 -0.04,0.14967 -0.03,0.1297 -0.02,0.10976 -0.01,0.10976 v 0.0897 l 0.05,0.37916 0.170002,0.29932 0.280003,0.20954 0.400005,0.11973 0.500005,0.05 h 3.52004 l 1.220013,-4.31034 0.08,-0.21952 0.130001,-0.16961 0.160002,-0.12971 0.200002,-0.0699 0.240002,-0.02 0.300004,0.03 0.240003,0.0997 0.170002,0.16962 0.100001,0.22949 0.04,0.3093 -0.01,0.05 v 0.0599 0.05 l -0.01,0.04 -0.01,0.04 z m 12.600142,-7.11407 0.05,-0.19956 0.04,-0.18957 0.03,-0.17961 0.02,-0.15964 v -0.14967 l -0.08,-0.54877 -0.250003,-0.41905 -0.420005,-0.29933 -0.580007,-0.17961 -0.750008,-0.0599 -0.980011,0.0897 -0.820009,0.28935 -0.660008,0.47893 -0.510006,0.66851 -0.360003,0.85808 -0.230003,0.7982 h 5.29006 z m 1.77002,0.04 -0.690008,2.49441 H 90.03876 l -0.460006,1.73611 -0.03,0.1297 -0.03,0.12973 -0.01,0.1297 -0.02,0.11973 v 0.11973 l 0.05,0.3991 0.170002,0.30931 0.280003,0.21952 0.380004,0.1297 0.500006,0.05 h 4.170047 l 0.310004,0.03 0.240002,0.10976 0.170002,0.16961 0.100001,0.23946 0.03,0.31931 -0.03,0.30929 -0.100001,0.23948 -0.170002,0.17958 -0.240002,0.0997 -0.310004,0.04 h -4.620052 l -0.430005,-0.03 -0.410005,-0.0997 -0.380004,-0.15965 -0.350003,-0.21949 -0.330004,-0.28937 -0.290004,-0.32925 -0.220002,-0.35919 -0.160002,-0.37916 -0.09,-0.3991 -0.03,-0.42904 v -0.14967 l 0.01,-0.13969 0.02,-0.13968 0.03,-0.1397 0.03,-0.1297 1.140013,-4.2405 0.270003,-0.85808 0.320003,-0.74833 0.380005,-0.65852 0.440004,-0.53879 0.490006,-0.44901 0.550006,-0.34922 0.650008,-0.27937 0.730008,-0.19955 0.820009,-0.10976 0.91001,-0.04 0.550006,0.03 0.510006,0.11973 0.480006,0.18958 0.440005,0.25942 0.400004,0.33923 0.350004,0.38913 0.280003,0.42904 0.190002,0.45898 0.120002,0.49888 0.03,0.5388 v 0.18956 l -0.01,0.17961 -0.03,0.1796 -0.03,0.17959 z m 8.000103,7.70275 h -2.87005 l -0.43001,-0.03 -0.41,-0.0997 -0.38,-0.15965 -0.35,-0.21949 -0.33,-0.28937 -0.29,-0.32925 -0.22,-0.35919 -0.16001,-0.37916 -0.09,-0.3991 -0.03,-0.42904 v -0.14967 l 0.01,-0.13969 0.02,-0.13968 0.03,-0.1397 0.03,-0.1297 1.37001,-5.07863 0.22,-0.69844 0.26,-0.60863 0.31,-0.51885 0.36,-0.44898 0.40003,-0.34922 0.44,-0.27937 0.51,-0.21952 0.58,-0.14967 0.64,-0.0897 0.72003,-0.03 h 2.42003 l 0.3,0.03 0.24,0.10976 0.17,0.16961 0.1,0.23946 0.04,0.3193 -0.04,0.3093 -0.1,0.23947 -0.17,0.17959 -0.24,0.0997 -0.31,0.04 h -2.87004 l -0.66002,0.06 -0.55,0.20954 -0.44,0.32926 -0.34,0.46895 -0.24,0.60864 -1.36003,5.03871 -0.03,0.13969 -0.03,0.11973 -0.02,0.10976 -0.01,0.0897 -0.01,0.0699 0.06,0.40908 0.16,0.3193 0.28,0.22948 0.39001,0.13968 0.50002,0.05 h 2.42003 l 0.31,0.03 0.24,0.10976 0.16,0.16961 0.11,0.23946 0.03,0.31931 -0.03,0.30929 -0.11,0.23948 -0.16,0.17958 -0.24,0.0997 z m 9.08009,-5.46776 -2.28003,1.74609 -0.83,3.09308 -0.09,0.21949 -0.12,0.17961 -0.16,0.1297 -0.2,0.0699 -0.24002,0.03 -0.14001,-0.01 -0.12,-0.03 -0.12,-0.05 -0.12,-0.0698 -0.1,-0.0897 -0.1,-0.10973 -0.07,-0.10976 -0.05,-0.10976 -0.04,-0.11973 -0.01,-0.1297 0.01,-0.04 v -0.05 l 0.01,-0.05 0.01,-0.0598 0.01,-0.0599 2.75003,-10.14729 0.08,-0.22947 0.13,-0.1796 0.16,-0.11973 0.2,-0.0797 0.24002,-0.02 0.30001,0.03 0.24,0.0997 0.17,0.16962 0.1,0.22949 0.03,0.3093 v 0.05 0.0599 0.05 l -0.01,0.04 -0.01,0.04 -1.18003,4.38019 6.90009,-5.16843 0.09,-0.10975 0.1,-0.0797 0.1,-0.06 0.11,-0.03 0.11,-0.01 0.13,0.01 0.12,0.03 0.12,0.05 0.11,0.0698 0.11,0.0997 0.1,0.0997 0.08,0.10974 0.05,0.11973 0.03,0.11974 0.01,0.12971 -0.01,0.15965 -0.05,0.14966 -0.07,0.13968 -0.09,0.11973 -0.13,0.11973 -4.99005,3.81148 2.51002,5.29812 0.03,0.0797 0.02,0.0797 0.02,0.0699 0.01,0.07 0.01,0.07 -0.01,0.1297 -0.03,0.12971 -0.06,0.11975 -0.07,0.10973 -0.09,0.10976 -0.11,0.0897 -0.11,0.0697 -0.12,0.06 -0.13,0.03 -0.14,0.01 -0.2,-0.02 -0.17,-0.0598 -0.15,-0.0997 -0.13,-0.13967 -0.1,-0.16964 z m 8.59009,1.22724 0.91003,-3.39239 0.27,-0.85808 0.32,-0.74833 0.38,-0.65852 0.44,-0.53879 0.49,-0.44901 0.55,-0.34922 0.65003,-0.27937 0.73,-0.19955 0.82,-0.10976 0.91003,-0.04 0.55,0.04 0.51,0.10976 0.48,0.18958 0.44,0.2694 0.40002,0.34922 0.35001,0.3991 0.28,0.42904 0.19,0.47892 0.12,0.49889 0.03,0.54877 v 0.18958 l -0.01,0.18958 -0.03,0.18957 -0.03,0.17959 -0.04,0.16963 -0.91002,3.39239 -0.17001,0.56874 -0.2,0.5288 -0.23,0.48892 -0.25,0.44898 -0.27,0.39913 -0.61,0.64853 -0.74,0.50886 -0.89003,0.35919 -1.02,0.20955 -1.18003,0.0797 -0.54,-0.04 -0.52,-0.11973 -0.48,-0.18958 -0.44,-0.2694 -0.41001,-0.33925 -0.35002,-0.3991 -0.27,-0.43901 -0.19,-0.46895 -0.12,-0.50886 -0.04,-0.5388 0.01,-0.19955 0.01,-0.18958 0.02,-0.17959 0.04,-0.1796 z m 7.04009,-0.02 0.9,-3.3525 0.05,-0.19955 0.04,-0.19955 0.03,-0.18958 0.02,-0.17961 v -0.16961 l -0.08,-0.56872 -0.25,-0.43903 -0.42,-0.31928 -0.58,-0.18958 -0.75003,-0.0599 -0.98,0.0997 -0.82,0.29934 -0.67001,0.50886 -0.51002,0.69844 -0.35,0.90796 -0.92,3.3525 -0.05,0.20952 -0.04,0.18958 -0.03,0.18958 -0.02,0.17959 v 0.1796 l 0.08,0.55874 0.25,0.44901 0.42,0.30931 0.58,0.18958 0.75003,0.0697 0.99,-0.0997 0.82,-0.30931 0.67002,-0.49889 0.51001,-0.70841 z m 13.37015,-3.4822 0.05,-0.19956 0.04,-0.18957 0.03,-0.17961 0.02,-0.15964 v -0.14967 l -0.08,-0.54877 -0.25,-0.41905 -0.42,-0.29933 -0.58003,-0.17961 -0.75,-0.0599 -0.98,0.0897 -0.82003,0.28935 -0.66,0.47893 -0.51,0.66851 -0.36,0.85808 -0.23,0.7982 h 5.29006 z m 1.77003,0.04 -0.69003,2.49441 h -7.03006 l -0.46003,1.73611 -0.03,0.1297 -0.03,0.12973 -0.01,0.1297 -0.02,0.11973 v 0.11973 l 0.05,0.3991 0.17001,0.30931 0.28002,0.21952 0.38,0.1297 0.5,0.05 h 4.17004 l 0.31002,0.03 0.24,0.10976 0.17,0.16961 0.1,0.23946 0.03,0.31931 -0.03,0.30929 -0.1,0.23948 -0.17,0.17958 -0.24,0.0997 -0.31002,0.04 h -4.62004 l -0.43,-0.03 -0.41003,-0.0997 -0.38,-0.15965 -0.35,-0.21949 -0.33,-0.28937 -0.29,-0.32925 -0.22,-0.35919 -0.16,-0.37916 -0.09,-0.3991 -0.03,-0.42904 v -0.14967 l 0.01,-0.13969 0.02,-0.13968 0.03,-0.1397 0.03,-0.1297 1.14,-4.2405 0.27,-0.85808 0.32,-0.74833 0.38003,-0.65852 0.44,-0.53879 0.49,-0.44901 0.55,-0.34922 0.65,-0.27937 0.73003,-0.19955 0.82,-0.10976 0.91,-0.04 0.55002,0.03 0.51001,0.11973 0.48,0.18958 0.44,0.25942 0.4,0.33923 0.35,0.38913 0.28,0.42904 0.19002,0.45898 0.12001,0.49888 0.03,0.5388 v 0.18956 l -0.01,0.17961 -0.03,0.1796 -0.03,0.17959 z m 10.44009,-3.52212 0.08,-0.22949 0.13003,-0.1796 0.16,-0.1297 0.21,-0.0797 0.24,-0.02 h 8.16009 l 0.61,0.05 0.53,0.16962 0.47,0.2694 0.40003,0.37915 0.33,0.4889 0.13,0.24943 0.09,0.25943 0.07,0.2694 0.05,0.27937 0.01,0.28936 v 0.13968 l -0.02,0.13969 -0.01,0.13968 -0.03,0.12972 -0.03,0.13968 -2.12003,7.84245 -0.09,0.21949 -0.13,0.17961 -0.16,0.1297 -0.2,0.0699 -0.23,0.03 -0.13,-0.01 -0.13,-0.03 -0.12,-0.05 -0.12001,-0.0698 -0.10002,-0.0897 -0.1,-0.0997 -0.07,-0.10976 -0.06,-0.11973 -0.03,-0.11973 -0.01,-0.11973 v -0.05 l 0.01,-0.05 0.01,-0.05 0.01,-0.05 0.01,-0.06 2.00003,-7.3635 0.03,-0.12971 0.02,-0.12972 0.02,-0.1297 0.01,-0.11973 0.01,-0.11973 -0.06,-0.37916 -0.16,-0.29933 -0.28,-0.20953 -0.39,-0.12971 -0.5,-0.04 h -1.76003 l -2.59003,9.49874 -0.09,0.21949 -0.12,0.17961 -0.16,0.1297 -0.2,0.0699 -0.24,0.03 -0.13,-0.01 -0.12,-0.03 -0.12,-0.05 -0.12,-0.0699 -0.11003,-0.0897 -0.09,-0.0997 -0.08,-0.10976 -0.05,-0.11973 -0.03,-0.11973 -0.01,-0.11973 v -0.05 -0.05 l 0.01,-0.05 0.01,-0.05 0.01,-0.06 2.48003,-9.04973 h -3.54003 l -2.58003,9.49874 -0.09,0.21949 -0.13,0.17961 -0.16,0.1297 -0.2,0.0699 -0.23,0.03 -0.14,-0.01 -0.12,-0.03 -0.12,-0.05 -0.12,-0.0699 -0.10002,-0.0897 -0.10001,-0.10973 -0.07,-0.10976 -0.05,-0.10976 -0.04,-0.11973 -0.01,-0.1297 0.01,-0.04 v -0.05 l 0.01,-0.05 0.01,-0.0598 0.01,-0.0599 z m 17.70021,-0.0997 0.49,-0.22949 0.46,-0.16961 0.45003,-0.11973 0.43,-0.0797 0.41,-0.02 0.27,-0.03 0.26,-0.0997 0.27,-0.15964 0.27,-0.22949 0.27,-0.28935 0.24003,-0.3193 0.19,-0.31928 0.14,-0.29932 0.08,-0.29933 0.02,-0.27938 -0.05,-0.38913 -0.17,-0.29933 -0.28002,-0.20953 -0.39001,-0.1297 -0.5,-0.04 -0.65,0.0698 -0.55,0.19955 -0.45,0.33925 -0.34003,0.46895 -0.24,0.61862 z m -1.12,-2.33478 0.21,-0.68845 0.26,-0.59866 0.31,-0.51884 0.35,-0.44899 0.39,-0.35919 0.46,-0.28936 0.51003,-0.2195 0.59,-0.15966 0.65,-0.0997 0.72,-0.03 0.43001,0.03 0.41002,0.0897 0.38,0.15964 0.36,0.21951 0.33,0.28935 0.28,0.32927 0.22,0.35919 0.15,0.37916 0.1,0.41905 0.03,0.43903 -0.02,0.33923 -0.05,0.32927 -0.08,0.31928 -0.12,0.31929 -0.15,0.31928 -0.2,0.32927 -0.21,0.26938 -0.23,0.23948 -0.26,0.17959 -0.28,0.13969 0.64,0.39911 0.5,0.49888 0.35,0.58868 0.21,0.68845 0.07,0.78825 v 0.18956 l -0.01,0.18958 -0.03,0.18958 -0.03,0.1796 -0.04,0.17959 -0.91,3.41237 -0.27,0.86806 -0.33,0.75829 -0.39,0.65853 -0.44003,0.54877 -0.5,0.449 -0.56,0.3592 -0.65,0.2694 -0.72,0.19955 -0.81003,0.11973 -0.89,0.04 -0.54,-0.04 -0.52,-0.11973 -0.48003,-0.18958 -0.44,-0.2694 -0.41,-0.34922 -0.35,-0.3991 -0.27,-0.43901 -0.19,-0.47895 -0.12,-0.50886 -0.04,-0.54877 0.01,-0.18957 0.01,-0.18957 0.02,-0.18957 0.04,-0.17961 0.04,-0.17959 z m 4.53003,9.36903 0.90003,-3.39241 0.05,-0.20952 0.04,-0.19955 0.03,-0.18958 0.02,-0.17961 v -0.16961 l -0.08,-0.57871 -0.25,-0.44899 -0.42003,-0.31928 -0.58,-0.18958 -0.75,-0.06 -0.98,0.0997 -0.82003,0.30931 -0.67,0.50886 -0.51,0.70842 -0.35,0.91793 -0.92003,3.39241 -0.05,0.20952 -0.04,0.19957 -0.03,0.18956 -0.02,0.17961 v 0.1796 l 0.08,0.56872 0.25,0.44901 0.42003,0.31928 0.58,0.18958 0.75,0.0697 0.99,-0.10973 0.82003,-0.29934 0.67,-0.50886 0.51,-0.71839 z m 5.14006,0.05 0.91003,-3.39239 0.27,-0.85808 0.32,-0.74833 0.38,-0.65852 0.44,-0.53879 0.49,-0.44901 0.55003,-0.34922 0.65,-0.27937 0.73,-0.19955 0.82,-0.10976 0.91003,-0.04 0.55,0.04 0.51,0.10976 0.48,0.18958 0.44,0.2694 0.40003,0.34922 0.35,0.3991 0.28,0.42904 0.19,0.47892 0.12,0.49889 0.03,0.54877 v 0.18958 l -0.01,0.18958 -0.03,0.18957 -0.03,0.17959 -0.04,0.16963 -0.91,3.39239 -0.17,0.56874 -0.20003,0.5288 -0.23,0.48892 -0.25,0.44898 -0.27,0.39913 -0.61,0.64853 -0.74,0.50886 -0.89003,0.35919 -1.02,0.20955 -1.18,0.0797 -0.54003,-0.04 -0.52,-0.11973 -0.48,-0.18958 -0.44,-0.2694 -0.41,-0.33925 -0.35003,-0.3991 -0.27,-0.43901 -0.19,-0.46895 -0.12,-0.50886 -0.04,-0.5388 0.01,-0.19955 0.01,-0.18958 0.02,-0.17959 0.04,-0.1796 z m 7.04009,-0.02 0.9,-3.3525 0.05,-0.19955 0.04,-0.19955 0.03,-0.18958 0.02,-0.17961 v -0.16961 l -0.08,-0.56872 -0.25,-0.43903 -0.42,-0.31928 -0.58,-0.18958 -0.75,-0.0598 -0.98003,0.0997 -0.82,0.29934 -0.67,0.50886 -0.51003,0.69844 -0.35,0.90796 -0.92,3.3525 -0.05,0.20952 -0.04,0.18958 -0.03,0.18958 -0.02,0.17959 v 0.1796 l 0.08,0.55874 0.25,0.44901 0.42,0.30931 0.58,0.18958 0.75003,0.0697 0.99,-0.0997 0.82,-0.30931 0.67003,-0.49889 0.51,-0.70841 z m 7.31009,-6.95443 0.08,-0.23947 0.13,-0.1796 0.16,-0.1297 0.21,-0.0797 0.24,-0.02 h 4.64006 l 0.44,0.03 0.41,0.0897 0.38,0.15965 0.35,0.21951 0.33,0.28936 0.28003,0.32926 0.22,0.34922 0.16,0.37915 0.09,0.40908 0.03,0.43901 v 0.1397 l -0.01,0.13967 -0.02,0.1397 -0.03,0.13969 -0.03,0.13968 -1.37003,5.07863 -0.22,0.68847 -0.26,0.60862 -0.31,0.51884 -0.36,0.43903 -0.39,0.34922 -0.46003,0.28934 -0.51,0.20952 -0.58,0.15965 -0.65,0.0997 -0.71,0.03 h -3.52006 l -1.2,4.55979 -0.09,0.22947 -0.12,0.17961 -0.16,0.1297 -0.2,0.0797 -0.24003,0.03 -0.13,-0.01 -0.13,-0.03 -0.12,-0.05 -0.11,-0.0797 -0.11,-0.0897 -0.1,-0.0997 -0.07,-0.10976 -0.06,-0.11973 -0.03,-0.11973 -0.01,-0.11973 v -0.05 l 0.01,-0.05 0.01,-0.05 0.01,-0.0599 0.01,-0.05 z m 1.47,1.08756 -2.30003,8.3912 H 199.35 l 0.66,-0.0697 0.55,-0.19957 0.45,-0.33923 0.34,-0.46895 0.24003,-0.59867 1.35,-5.03871 0.04,-0.12972 0.02,-0.1297 0.02,-0.11973 0.01,-0.11973 0.01,-0.10976 -0.06,-0.38913 -0.16,-0.29934 -0.28,-0.20952 -0.39,-0.12971 -0.49,-0.04 z m 16.93021,9.49874 -0.09,0.21949 -0.13,0.17961 -0.16003,0.1297 -0.2,0.07 -0.24,0.03 -0.13,-0.01 -0.12,-0.03 -0.12,-0.06 -0.12,-0.0697 -0.11,-0.0897 -0.09,-0.0997 -0.07,-0.11973 -0.06,-0.10976 -0.03,-0.12973 -0.01,-0.1297 v -0.04 l 0.01,-0.05 v -0.06 l 0.01,-0.05 0.02,-0.0599 1.08,-4.10081 h -3.52003 l -0.44,-0.03 -0.4,-0.0997 -0.38,-0.14967 -0.36003,-0.21949 -0.33,-0.27938 -0.28,-0.31928 -0.22,-0.34922 -0.16,-0.36918 -0.09,-0.3991 -0.04,-0.41907 0.01,-0.14967 0.01,-0.13967 0.02,-0.1397 0.02,-0.13968 0.03,-0.12972 0.76,-2.70394 0.08,-0.22949 0.13,-0.16961 0.16003,-0.11973 0.2,-0.0797 0.24,-0.02 0.3,0.03 0.24,0.0997 0.17,0.15964 0.1,0.22949 0.03,0.28935 v 0.05 0.05 0.05 l -0.01,0.04 -0.01,0.04 -0.62,2.23499 -0.04,0.14967 -0.03,0.1297 -0.02,0.10976 -0.01,0.10976 v 0.0897 l 0.05,0.37916 0.17,0.29932 0.28,0.20954 0.4,0.11973 0.5,0.05 h 3.52006 l 1.22,-4.31034 0.08,-0.21952 0.13,-0.16961 0.16,-0.12971 0.2,-0.0699 0.24,-0.02 0.3,0.03 0.24003,0.0997 0.17,0.16962 0.1,0.22949 0.04,0.3093 -0.01,0.05 v 0.0599 0.05 l -0.01,0.04 -0.01,0.04 z m 12.60012,-7.11407 0.05,-0.19956 0.04,-0.18957 0.03,-0.17961 0.02,-0.15964 v -0.14967 l -0.08,-0.54877 -0.25,-0.41905 -0.42,-0.29933 -0.58,-0.17961 -0.75,-0.0598 -0.98003,0.0897 -0.82,0.28935 -0.66,0.47893 -0.51003,0.66851 -0.36,0.85808 -0.23,0.7982 h 5.29006 z m 1.77003,0.04 -0.69,2.49441 h -7.03009 l -0.46,1.73611 -0.03,0.1297 -0.03,0.12973 -0.01,0.1297 -0.02,0.11973 v 0.11973 l 0.05,0.3991 0.17,0.30931 0.28,0.21952 0.38,0.1297 0.5,0.05 h 4.17006 l 0.31,0.03 0.24,0.10976 0.17,0.16961 0.1,0.23946 0.03,0.31931 -0.03,0.30929 -0.1,0.23948 -0.17,0.17958 -0.24,0.0997 -0.31,0.04 h -4.62006 l -0.43,-0.03 -0.41,-0.0997 -0.38,-0.15965 -0.35,-0.21949 -0.33,-0.28937 -0.29003,-0.32925 -0.22,-0.35919 -0.16,-0.37916 -0.09,-0.3991 -0.03,-0.42904 v -0.14967 l 0.01,-0.13969 0.02,-0.13968 0.03,-0.1397 0.03,-0.1297 1.14003,-4.2405 0.27,-0.85808 0.32,-0.74833 0.38,-0.65852 0.44,-0.53879 0.49,-0.44901 0.55003,-0.34922 0.65,-0.27937 0.73,-0.19955 0.82,-0.10976 0.91003,-0.04 0.55,0.03 0.51,0.11973 0.48,0.18958 0.44003,0.25942 0.4,0.33923 0.35,0.38913 0.28,0.42904 0.19,0.45898 0.12,0.49888 0.03,0.5388 v 0.18956 l -0.01,0.17961 -0.03,0.1796 -0.03,0.17959 z m 8.00009,7.70275 h -2.87003 l -0.43,-0.03 -0.41,-0.0997 -0.38003,-0.15965 -0.35,-0.21949 -0.33,-0.28937 -0.29,-0.32925 -0.22,-0.35919 -0.16,-0.37916 -0.09,-0.3991 -0.03,-0.42904 v -0.14967 l 0.01,-0.13969 0.02,-0.13968 0.03,-0.1397 0.03,-0.1297 1.37,-5.07863 0.22003,-0.69844 0.26,-0.60863 0.31,-0.51885 0.36,-0.44898 0.4,-0.34922 0.44,-0.27937 0.51,-0.21952 0.58003,-0.14967 0.64,-0.0897 0.72,-0.03 h 2.42003 l 0.3,0.03 0.24,0.10976 0.17,0.16961 0.1,0.23946 0.04,0.3193 -0.04,0.30929 -0.1,0.23948 -0.17,0.17959 -0.24,0.0997 -0.31,0.04 h -2.87003 l -0.66,0.06 -0.55002,0.20954 -0.44001,0.32926 -0.34,0.46895 -0.24,0.60864 -1.36,5.03871 -0.03,0.13969 -0.03,0.11973 -0.02,0.10976 -0.01,0.0897 -0.01,0.0699 0.06,0.40908 0.16,0.3193 0.28,0.22948 0.39,0.13968 0.5,0.05 h 2.42003 l 0.31,0.03 0.24,0.10976 0.16,0.16961 0.11,0.23946 0.03,0.31931 -0.03,0.30929 -0.11,0.23948 -0.16,0.17958 -0.24,0.0997 z m 7.08009,-11.22487 0.08,-0.22949 0.13,-0.1796 0.16,-0.1297 0.21,-0.0797 0.24,-0.02 h 8.16009 l 0.61,0.05 0.53,0.16962 0.47003,0.2694 0.4,0.37915 0.33,0.4889 0.13,0.24943 0.09,0.25943 0.07,0.2694 0.05,0.27937 0.01,0.28935 v 0.13969 l -0.02,0.13969 -0.01,0.13968 -0.03,0.12972 -0.03,0.13968 -2.12003,7.84245 -0.09,0.21949 -0.13,0.17961 -0.16,0.1297 -0.2,0.07 -0.23,0.03 -0.13,-0.01 -0.13,-0.03 -0.12,-0.05 -0.12,-0.0698 -0.1,-0.0897 -0.1,-0.0997 -0.07,-0.10976 -0.06,-0.11973 -0.03,-0.11973 -0.01,-0.11973 v -0.05 l 0.01,-0.05 0.01,-0.05 0.01,-0.05 0.01,-0.06 2,-7.3635 0.03,-0.12971 0.02,-0.12972 0.02,-0.1297 0.01,-0.11973 0.01,-0.11973 -0.06,-0.37916 -0.16,-0.29934 -0.28,-0.20952 -0.39,-0.12971 -0.5,-0.04 h -1.76003 l -2.59003,9.49874 -0.09,0.21949 -0.12,0.17961 -0.16,0.1297 -0.2,0.07 -0.24,0.03 -0.13,-0.01 -0.12,-0.03 -0.12,-0.05 -0.12,-0.0698 -0.11,-0.0897 -0.09,-0.0997 -0.08,-0.10976 -0.05,-0.11973 -0.03,-0.11973 -0.01,-0.11973 v -0.05 -0.05 l 0.01,-0.05 0.01,-0.05 0.01,-0.06 2.48003,-9.04973 h -3.54006 l -2.58003,9.49874 -0.09,0.21949 -0.13,0.17961 -0.16,0.1297 -0.2,0.0699 -0.23,0.03 -0.14,-0.01 -0.12,-0.03 -0.12,-0.05 -0.12,-0.0699 -0.1,-0.0897 -0.1,-0.10973 -0.07,-0.10976 -0.05,-0.10976 -0.04,-0.11973 -0.01,-0.1297 0.01,-0.04 v -0.05 l 0.01,-0.05 0.01,-0.0599 0.01,-0.0599 z m 17.70018,-0.0997 0.49,-0.22949 0.46003,-0.16961 0.45,-0.11973 0.43,-0.0797 0.41,-0.02 0.27,-0.03 0.26,-0.0997 0.27,-0.15964 0.27003,-0.22949 0.27,-0.28935 0.24,-0.3193 0.19,-0.31928 0.14,-0.29932 0.08,-0.29933 0.02,-0.27938 -0.05,-0.38913 -0.17,-0.29933 -0.28,-0.20953 -0.39,-0.1297 -0.50003,-0.04 -0.65,0.0698 -0.55,0.19955 -0.45,0.33925 -0.34,0.46895 -0.24,0.61862 z m -1.12,-2.33478 0.21,-0.68845 0.26,-0.59866 0.31,-0.51884 0.35,-0.44899 0.39,-0.35919 0.46003,-0.28936 0.51,-0.2195 0.59,-0.15966 0.65,-0.0997 0.72003,-0.03 0.43,0.03 0.41,0.0897 0.38,0.15964 0.36,0.21951 0.33,0.28935 0.28,0.32927 0.22,0.35919 0.15002,0.37916 0.10001,0.41905 0.03,0.43903 -0.02,0.33923 -0.05,0.32927 -0.08,0.31928 -0.12001,0.31929 -0.15,0.31928 -0.2,0.32927 -0.21,0.26938 -0.23,0.23948 -0.26,0.17959 -0.28,0.13969 0.64,0.39911 0.5,0.49888 0.35002,0.58868 0.21001,0.68845 0.07,0.78825 v 0.18956 l -0.01,0.18958 -0.03,0.18958 -0.03,0.1796 -0.04,0.17959 -0.91003,3.41237 -0.27,0.86806 -0.33,0.75829 -0.39,0.65853 -0.44,0.54877 -0.50001,0.449 -0.56002,0.3592 -0.65,0.2694 -0.72,0.19955 -0.81002,0.11973 -0.89001,0.04 -0.54,-0.04 -0.52,-0.11973 -0.48,-0.18958 -0.44003,-0.2694 -0.41,-0.34922 -0.35,-0.3991 -0.27,-0.43901 -0.19,-0.47895 -0.12,-0.50886 -0.04,-0.54877 0.01,-0.18957 0.01,-0.18957 0.02,-0.18957 0.04,-0.17961 0.04,-0.17959 z m 4.53006,9.36903 0.9,-3.39241 0.05,-0.20952 0.04,-0.19955 0.03,-0.18958 0.02,-0.17961 v -0.16961 l -0.08,-0.57871 -0.25,-0.44899 -0.42,-0.31928 -0.58003,-0.18958 -0.75,-0.06 -0.98,0.0997 -0.82001,0.30931 -0.67002,0.50886 -0.51,0.70842 -0.35,0.91793 -0.92,3.39241 -0.05,0.20952 -0.04,0.19957 -0.03,0.18956 -0.02,0.17961 v 0.1796 l 0.08,0.56872 0.25,0.44901 0.42,0.31928 0.58,0.18958 0.75,0.0697 0.99003,-0.10973 0.82,-0.29934 0.67,-0.50886 0.51,-0.71839 z m 5.14005,0.05 0.91001,-3.39239 0.27,-0.85808 0.32,-0.74833 0.38,-0.65852 0.44,-0.53879 0.49003,-0.44901 0.55,-0.34922 0.65,-0.27937 0.73,-0.19955 0.82003,-0.10976 0.91,-0.04 0.55,0.04 0.51,0.10976 0.48002,0.18958 0.44001,0.2694 0.4,0.34922 0.35,0.3991 0.28,0.42904 0.19,0.47892 0.12,0.49889 0.03,0.54877 v 0.18958 l -0.01,0.18958 -0.03,0.18957 -0.03,0.17959 -0.04,0.16963 -0.91,3.39239 -0.17,0.56874 -0.2,0.5288 -0.23,0.48892 -0.25002,0.44898 -0.27001,0.39913 -0.61,0.64853 -0.74,0.50886 -0.89,0.35919 -1.02003,0.20955 -1.18,0.0797 -0.54001,-0.04 -0.52002,-0.11973 -0.48,-0.18958 -0.44,-0.2694 -0.41,-0.33925 -0.35,-0.3991 -0.27,-0.43901 -0.19001,-0.46895 -0.12002,-0.50886 -0.04,-0.5388 0.01,-0.19955 0.01,-0.18958 0.02,-0.17959 0.04,-0.1796 z m 7.04007,-0.02 0.90001,-3.3525 0.05,-0.19955 0.04,-0.19955 0.03,-0.18958 0.02,-0.17961 v -0.16961 l -0.08,-0.56872 -0.25002,-0.43903 -0.42,-0.31928 -0.58,-0.18958 -0.75,-0.0599 -0.98003,0.0997 -0.82,0.29934 -0.67,0.50886 -0.51,0.69844 -0.35001,0.90796 -0.92002,3.3525 -0.05,0.20952 -0.04,0.18958 -0.03,0.18958 -0.02,0.17959 v 0.1796 l 0.08,0.55874 0.25,0.44901 0.42,0.30931 0.58003,0.18958 0.75,0.0697 0.99,-0.0997 0.82003,-0.30931 0.67,-0.49889 0.51,-0.70841 z m 16.64018,6.01653 0.46003,-1.75607 h -3.52006 l -0.43,-0.03 -0.4,-0.0997 -0.38,-0.15965 -0.36,-0.21949 -0.33001,-0.28937 -0.28002,-0.32925 -0.22,-0.35919 -0.16,-0.37916 -0.09,-0.3991 -0.03,-0.42904 v -0.14967 l 0.01,-0.13969 0.02,-0.13968 0.02,-0.1397 0.04,-0.1297 2.12003,-7.84245 0.08,-0.22947 0.13,-0.1796 0.16,-0.11973 0.2,-0.0797 0.24,-0.02 0.30001,0.03 0.24002,0.0997 0.17,0.16962 0.1,0.22949 0.03,0.29933 v 0.0598 0.05 0.05 l -0.01,0.05 -0.01,0.04 -1.99003,7.3635 -0.03,0.12972 -0.03,0.11974 -0.01,0.1297 -0.01,0.10976 -0.01,0.11973 0.06,0.38913 0.16,0.29931 0.27,0.20955 0.39,0.1297 0.5,0.05 h 3.53006 l 2.59003,-9.49873 0.08,-0.22947 0.13,-0.1796 0.16,-0.11973 0.2,-0.0797 0.24,-0.02 0.3,0.03 0.24,0.0997 0.17,0.16962 0.1,0.23946 0.04,0.29933 -0.01,0.0599 v 0.05 0.05 l -0.01,0.05 -0.01,0.03 -3.37003,12.58183 -0.3,0.88799 -0.38,0.74834 -0.47,0.60863 -0.54003,0.47893 -0.62,0.33924 -0.36,0.11973 -0.39,0.0997 -0.42,0.0698 -0.45,0.04 -0.49003,0.02 h -3.32003 l -0.31,-0.04 -0.23,-0.0997 -0.17,-0.1796 -0.11,-0.23946 -0.03,-0.30931 0.03,-0.31928 0.11,-0.23947 0.17,-0.16963 0.23,-0.10976 0.31,-0.03 h 3.74006 l 0.65,-0.07 0.55,-0.20953 0.45,-0.33924 0.34,-0.47893 z m 14.87018,-2.38466 -0.09,0.21949 -0.13,0.17961 -0.16,0.1297 -0.2,0.0699 -0.24,0.03 -0.13,-0.01 -0.12,-0.03 -0.12001,-0.06 -0.12001,-0.0697 -0.11001,-0.0897 -0.09,-0.0997 -0.07,-0.11973 -0.06,-0.10976 -0.03,-0.12973 -0.01,-0.1297 v -0.04 l 0.01,-0.05 v -0.06 l 0.01,-0.05 0.02,-0.0599 1.08003,-4.10081 h -3.52006 l -0.44,-0.03 -0.4,-0.0997 -0.38,-0.14967 -0.36,-0.21949 -0.33,-0.27938 -0.28,-0.31929 -0.22,-0.34921 -0.16002,-0.36918 -0.09,-0.3991 -0.04,-0.41907 0.01,-0.14967 0.01,-0.13967 0.02,-0.1397 0.02,-0.13968 0.03,-0.12972 0.76003,-2.70394 0.08,-0.22949 0.13,-0.16961 0.16,-0.11973 0.2,-0.0797 0.24,-0.02 0.3,0.03 0.24,0.0997 0.17,0.15964 0.1,0.22949 0.03,0.28935 v 0.05 0.05 0.05 l -0.01,0.04 -0.01,0.04 -0.62,2.23499 -0.04,0.14967 -0.03,0.1297 -0.02,0.10976 -0.01,0.10976 v 0.0897 l 0.05,0.37916 0.17,0.29932 0.28,0.20954 0.4,0.11973 0.50003,0.05 h 3.52003 l 1.22,-4.31034 0.08,-0.21952 0.13001,-0.16961 0.16001,-0.12971 0.20001,-0.0699 0.24,-0.02 0.3,0.03 0.24,0.0997 0.17,0.16962 0.1,0.22949 0.04,0.3093 -0.01,0.05 v 0.0599 0.05 l -0.01,0.04 -0.01,0.04 z m 7.48009,-1.10754 h 1.76 l 0.27003,-0.02 0.27,-0.0699 0.27,-0.0997 0.28,-0.13969 0.28,-0.18958 0.25,-0.20952 0.22,-0.21952 0.17,-0.23946 0.14,-0.23946 0.09,-0.24945 1.82003,-6.71496 h -3.52003 l -0.66003,0.0599 -0.55,0.20954 -0.44,0.32926 -0.34,0.46895 -0.24,0.60864 -1.36003,5.03871 -0.03,0.12972 -0.03,0.11973 -0.01,0.11973 -0.02,0.10976 v 0.10975 l 0.06,0.38913 0.16,0.30929 0.28,0.20955 0.38003,0.1297 z m -0.45,1.73613 -0.43003,-0.03 -0.41,-0.0997 -0.38,-0.15965 -0.35,-0.20952 -0.33,-0.28934 -0.29,-0.3193 -0.22,-0.3592 -0.16,-0.36916 -0.09,-0.4091 -0.03,-0.42904 v -0.14965 l 0.01,-0.14966 0.02,-0.14967 0.03,-0.1397 0.03,-0.1297 1.37,-5.07863 0.22,-0.69844 0.26,-0.60863 0.31,-0.51885 0.36003,-0.44898 0.4,-0.34922 0.44,-0.27937 0.51,-0.21952 0.58,-0.14967 0.64003,-0.0897 0.72,-0.03 h 4.40004 l 0.14001,0.01 0.13001,0.03 0.11,0.04 0.09,0.07 0.09,0.0897 0.06,0.0997 0.05,0.10975 0.02,0.11974 -0.01,0.1297 -0.02,0.13969 -2.30003,8.44111 -0.02,0.05 -0.01,0.04 v 0.05 l -0.01,0.05 v 0.04 l 0.03,0.2195 0.08,0.17961 0.13,0.11973 0.19,0.0699 0.25,0.03 0.3,0.03 0.21,0.10976 0.13,0.16961 0.05,0.23946 -0.04,0.31931 -0.11,0.30929 -0.16,0.23948 -0.22,0.17958 -0.28,0.0997 -0.33,0.04 -0.52,-0.04 -0.44,-0.11973 -0.35003,-0.19955 -0.26,-0.27939 -0.19,-0.34922 -0.34,0.34922 -0.44,0.27939 -0.53,0.19955 -0.62001,0.11973 -0.72002,0.04 z m 23.02024,0 h -8.83009 l -0.43,-0.03 -0.41,-0.0997 -0.38002,-0.14965 -0.36001,-0.21952 -0.32,-0.27937 -0.29,-0.31928 -0.22,-0.34922 -0.15,-0.37916 -0.1,-0.3991 -0.02,-0.43901 v -0.14967 l 0.01,-0.15964 0.02,-0.1397 0.02,-0.13968 0.04,-0.13969 2.12003,-7.84245 0.08,-0.22947 0.13,-0.1796 0.16,-0.11973 0.2,-0.0797 0.24,-0.02 0.13,0.01 0.12,0.03 0.12,0.04 0.12,0.0699 0.11,0.0897 0.09,0.0997 0.08,0.10975 0.05,0.10976 0.03,0.12971 0.01,0.1297 v 0.04 l -0.01,0.05 v 0.05 l -0.01,0.0598 -0.02,0.06 -1.99,7.3635 -0.03,0.12972 -0.03,0.12971 -0.01,0.1297 -0.01,0.11973 -0.01,0.12972 0.06,0.36917 0.16,0.29934 0.27,0.20952 0.39,0.1297 0.5,0.04 h 1.77003 l 2.59003,-9.49873 0.09,-0.22947 0.12,-0.1796 0.16,-0.11973 0.2,-0.0797 0.24,-0.02 0.13,0.01 0.12,0.03 0.12,0.04 0.12,0.07 0.1,0.0897 0.1,0.0997 0.07,0.10975 0.05,0.10976 0.03,0.12971 0.01,0.1297 v 0.06 0.0598 l -0.01,0.05 v 0.05 l -0.01,0.04 -2.46003,9.04972 h 3.52006 l 2.59003,-9.49873 0.09,-0.22948 0.12,-0.17959 0.16,-0.11973 0.2,-0.0797 0.23,-0.02 0.13,0.01 0.13,0.03 0.12,0.04 0.11,0.07 0.11,0.0897 0.09,0.0997 0.08,0.10975 0.05,0.10976 0.03,0.12971 0.01,0.1297 v 0.04 l -0.01,0.05 v 0.05 l -0.02,0.0599 -0.01,0.06 -2.46003,9.04972 h 0.89003 l 0.13,0.01 0.11,0.03 0.11,0.05 0.09,0.0797 0.09,0.0997 0.07,0.10976 0.05,0.10976 0.02,0.11973 0.01,0.1297 -0.02,0.12972 -0.74,2.82368 -0.08,0.22949 -0.13,0.17958 -0.16,0.12972 -0.20001,0.0798 -0.24002,0.03 -0.13,-0.01 -0.13,-0.03 -0.12,-0.0597 -0.11,-0.07 -0.11,-0.0897 -0.09,-0.0997 -0.08,-0.11973 -0.05,-0.10976 -0.03,-0.1297 -0.01,-0.1297 v -0.04 -0.05 l 0.01,-0.0599 0.01,-0.05 0.01,-0.0599 z m 15.45018,-11.23486 0.09,-0.22947 0.12,-0.1796 0.16,-0.11973 0.2,-0.0797 0.24,-0.02 0.31001,0.03 0.24002,0.0997 0.17,0.16962 0.1,0.22949 0.03,0.3093 v 0.05 l -0.01,0.0599 v 0.05 l -0.01,0.04 -0.01,0.04 -2.70003,9.93774 -0.12,0.29934 -0.17001,0.23946 -0.22001,0.16961 -0.27001,0.0997 -0.33,0.04 h -4.39003 l -0.43003,-0.03 -0.41,-0.0997 -0.38,-0.15965 -0.35,-0.21949 -0.33,-0.28937 -0.29,-0.32925 -0.22,-0.35919 -0.16,-0.37916 -0.09,-0.3991 -0.03,-0.42904 v -0.14967 l 0.01,-0.13969 0.02,-0.13968 0.03,-0.1397 0.03,-0.1297 2.12,-7.84245 0.09,-0.22947 0.12001,-0.1796 0.16001,-0.11973 0.20001,-0.0797 0.24,-0.02 0.31,0.03 0.24,0.0997 0.16,0.16962 0.11,0.22949 0.03,0.29932 v 0.06 l -0.01,0.05 v 0.05 l -0.01,0.05 -0.01,0.04 -1.99003,7.3635 -0.03,0.12971 -0.03,0.11975 -0.01,0.1297 -0.02,0.10976 v 0.11973 l 0.06,0.38913 0.16,0.29931 0.28,0.20955 0.38003,0.1297 0.5,0.05 h 3.53003 z m 9.38012,5.4977 1.93,4.5498 0.02,0.0699 0.02,0.0699 0.01,0.07 0.01,0.0699 v 0.0797 l -0.03,0.29931 -0.1,0.22949 -0.17,0.16962 -0.23,0.0897 -0.3,0.04 -0.22,-0.02 -0.18,-0.0699 -0.16,-0.0997 -0.13,-0.1397 -0.1,-0.18957 -1.64003,-3.89128 -4.00003,4.1507 -0.11,0.0897 -0.12001,0.0697 -0.13001,0.06 -0.13001,0.03 -0.15,0.01 -0.3,-0.04 -0.23,-0.0997 -0.17,-0.16961 -0.1,-0.23946 -0.03,-0.30931 0.01,-0.12972 0.02,-0.11973 0.05,-0.10974 0.07,-0.10976 0.08,-0.0997 4.51006,-4.6895 -1.94003,-4.56977 -0.02,-0.06 -0.02,-0.0699 -0.01,-0.0599 -0.01,-0.0699 v -0.0797 l 0.01,-0.12971 0.03,-0.12971 0.05,-0.11973 0.07,-0.10976 0.09,-0.0997 0.1,-0.0897 0.11,-0.0698 0.12,-0.05 0.13,-0.03 0.14,-0.01 0.21001,0.02 0.18001,0.0598 0.16001,0.0997 0.13,0.14966 0.1,0.17959 1.65,3.92123 4.02006,-4.16069 0.1,-0.0997 0.12,-0.0797 0.11,-0.05 0.13,-0.03 0.13,-0.01 0.31,0.03 0.24,0.0997 0.17,0.15964 0.11,0.22949 0.03,0.29932 -0.01,0.14967 -0.03,0.1297 -0.04,0.11974 -0.07,0.11974 -0.08,0.0997 z m 11.86012,5.73716 h -2.87003 l -0.43,-0.03 -0.41,-0.0997 -0.38001,-0.15965 -0.35002,-0.21949 -0.33,-0.28937 -0.29,-0.32925 -0.22,-0.35919 -0.16,-0.37916 -0.09,-0.3991 -0.03,-0.42904 v -0.14967 l 0.01,-0.13969 0.02,-0.13968 0.03,-0.1397 0.03,-0.1297 1.37001,-5.07863 0.22002,-0.69844 0.26,-0.60863 0.31,-0.51885 0.36,-0.44898 0.4,-0.34922 0.44,-0.27937 0.51,-0.21952 0.58003,-0.14967 0.64,-0.0897 0.72,-0.03 h 2.42003 l 0.3,0.03 0.24,0.10976 0.17,0.16961 0.1,0.23946 0.04,0.3193 -0.04,0.30929 -0.1,0.23948 -0.17,0.17959 -0.24,0.0997 -0.31,0.04 h -2.87003 l -0.66,0.0599 -0.55001,0.20954 -0.44002,0.32926 -0.34,0.46895 -0.24,0.60864 -1.36,5.03871 -0.03,0.13969 -0.03,0.11973 -0.02,0.10976 -0.01,0.0897 -0.01,0.0699 0.06,0.40908 0.16,0.3193 0.28,0.22948 0.39,0.13968 0.5,0.05 h 2.42003 l 0.31,0.03 0.24,0.10976 0.16,0.16961 0.11,0.23946 0.03,0.31931 -0.03,0.30929 -0.11,0.23948 -0.16,0.17958 -0.24,0.0997 z m 10.41012,-5.20834 -4.65006,4.93894 -0.1,0.0997 -0.11,0.0697 -0.12,0.06 -0.13,0.03 -0.14,0.01 -0.31,-0.04 -0.24,-0.0997 -0.17,-0.16961 -0.1,-0.22949 -0.05,-0.30931 0.01,-0.13968 0.03,-0.12972 0.05,-0.1297 0.07,-0.11973 0.09,-0.10976 3.61003,-3.85138 -0.33,-0.11973 -0.3,-0.15965 -0.28,-0.18957 -0.25,-0.22948 -0.22,-0.25942 -0.19001,-0.28935 -0.15001,-0.29933 -0.10001,-0.31928 -0.06,-0.32928 -0.02,-0.33923 v -0.14966 l 0.01,-0.14967 0.01,-0.13969 0.03,-0.11974 0.02,-0.11973 0.23001,-0.67847 0.26002,-0.59866 0.3,-0.50886 0.34,-0.42904 0.39,-0.34922 0.44,-0.26939 0.51,-0.21952 0.58002,-0.14967 0.66001,-0.0897 0.73,-0.03 h 4.18006 l 0.13,0.01 0.13,0.03 0.12,0.05 0.11,0.0599 0.11,0.0897 0.09,0.0997 0.08,0.10975 0.05,0.11974 0.03,0.11973 0.01,0.1297 v 0.05 l -0.01,0.05 -0.01,0.05 -0.01,0.05 -0.01,0.06 -2.75003,10.15726 -0.09,0.21949 -0.13,0.17961 -0.16,0.1297 -0.2,0.07 -0.24,0.03 -0.30001,-0.04 -0.24002,-0.0997 -0.17,-0.16961 -0.1,-0.23946 -0.04,-0.30931 0.01,-0.06 v -0.0598 -0.05 l 0.01,-0.04 0.01,-0.04 1.08003,-4.10081 z m -1.02001,-1.73612 h 3.52004 l 0.93,-3.18287 h -3.53003 l -0.64,0.06 -0.54002,0.18958 -0.45001,0.31928 -0.36,0.44901 -0.26,0.56871 -0.02,0.0997 -0.03,0.10975 -0.01,0.10975 -0.01,0.12972 v 0.1297 l 0.05,0.36918 0.17,0.27938 0.28,0.19955 0.4,0.1297 z"
     id="path7"
     style="fill:#ff0000" />
  <polyline
     points="129.67 223.50 110.22 257.18"
     fill="none"
     stroke="#000000"
     stroke-width="2"
     id="polyline7"
     transform="matrix(1.0000114,0,0,0.99776592,-40.002705,-39.818266)" />
  <polyline
     points="134.00 226.00 114.55 259.68"
     fill="none"
     stroke="#000000"
     stroke-width="2"
     id="polyline8"
     transform="matrix(1.0000114,0,0,0.99776592,-40.002705,-39.818266)" />
  <polyline
     points="138.33 228.50 118.88 262.18"
     fill="none"
     stroke="#000000"
     stroke-width="2"
     id="polyline9"
     transform="matrix(1.0000114,0,0,0.99776592,-40.002705,-39.818266)" />
  <polyline
     points="106.95 259.18 50.22 259.18"
     fill="none"
     stroke="#000000"
     stroke-width="2"
     id="polyline10"
     transform="matrix(1.0000114,0,0,0.99776592,-40.002705,-39.818266)" />
  <polyline
     points="430.22 259.18 127.26 259.18"
     fill="none"
     stroke="#000000"
     stroke-width="2"
     id="polyline11"
     transform="matrix(1.0000114,0,0,0.99776592,-40.002705,-39.818266)" />
  <ellipse
     cx="9.997858"
     cy="218.6031"
     fill="#000000"
     stroke="none"
     stroke-width="1.99778"
     id="circle11"
     rx="4.0000448"
     ry="3.9910636" />
  <ellipse
     cx="390.00211"
     cy="218.6031"
     fill="#000000"
     stroke="none"
     stroke-width="1.99778"
     id="circle12"
     rx="4.0000448"
     ry="3.9910636" />
  <polyline
     points="221.00 141.99 221.00 203.10"
     fill="none"
     stroke="#d6d6d6"
     stroke-width="4"
     id="polyline12"
     transform="matrix(1.0000114,0,0,0.99776592,-40.002705,-39.818266)" />
  <polyline
     points="240.66 141.99 240.66 203.10"
     fill="none"
     stroke="#d6d6d6"
     stroke-width="4"
     id="polyline13"
     transform="matrix(1.0000114,0,0,0.99776592,-40.002705,-39.818266)" />
  <polyline
     points="260.33 141.99 260.33 203.10"
     fill="none"
     stroke="#d6d6d6"
     stroke-width="4"
     id="polyline14"
     transform="matrix(1.0000114,0,0,0.99776592,-40.002705,-39.818266)" />
  <polygon
     points="285,130 197,130 197,142 285,142 "
     fill="#d6d6d6"
     stroke="#d6d6d6"
     stroke-width="4"
     id="polygon14"
     transform="matrix(1.0000114,0,0,0.99776592,-40.002705,-39.818266)" />
  <polygon
     points="219,95 222,94 225,93 227,93 254,93 259,94 263,95 266,97 268,100 269,102 270,105 270,107 270,130 256,130 254,130 227,130 211,130 211,116 211,107 212,102 214,99 216,96 "
     fill="#d6d6d6"
     stroke="#d6d6d6"
     stroke-width="4"
     id="polygon15"
     transform="matrix(1.0000114,0,0,0.99776592,-40.002705,-39.818266)" />
  <polygon
     points="150,226 124,211 120,218 146,233 "
     fill="#ff0000"
     stroke="#800000"
     stroke-width="1"
     id="polygon9-2"
     style="stroke-linecap:round;stroke-linejoin:round"
     transform="matrix(1.002069,0,0,0.99981896,-39.217275,-40.327249)" />
  <path
     id="polygon17-7-2-1"
     style="fill:#ff0000;stroke:#800000;stroke-linecap:round;stroke-linejoin:round"
     d="M 188.70864,166.00942 192.5,166 l 2.79702,0.004 A 6.6081721,6.6081721 44.100143 0 1 202,172.5 V 189 h -9 -11 v -12 l 0.004,-4.27667 a 6.7209108,6.7209108 134.95855 0 1 6.7042,-6.71391 z"
     sodipodi:nodetypes="ccccccccc"
     transform="matrix(0.86739254,0.49966489,-0.51113756,0.88332839,28.100954,-84.755931)"
     inkscape:original-d="M 182.0114,166.02607 192.5,166 201.99428,166.0147 202,172.5 V 189 h -9 -11 v -12 z"
     inkscape:path-effect="#path-effect1-5-1-5" />
  <text
     xml:space="preserve"
     style="font-size:35.7322px;text-align:start;writing-mode:lr-tb;direction:ltr;text-anchor:start;fill:#ff0000;stroke:#120000;stroke-width:0;stroke-dasharray:none"
     x="6.7620983"
     y="246.11957"
     id="text1"
     transform="scale(1.0040973,0.99591943)"><tspan
       sodipodi:role="line"
       id="tspan1"
       style="font-style:normal;font-variant:normal;font-weight:normal;font-stretch:normal;font-size:23.8217px;font-family:'GOST Common';-inkscape-font-specification:'GOST Common, Normal';font-variant-ligatures:normal;font-variant-caps:normal;font-variant-numeric:normal;font-variant-east-asian:normal;fill:#000000;stroke-width:0;stroke-dasharray:none"
       x="6.7620983"
       y="246.11957">техническое творчество учащихся</tspan></text>
  <metadata
     id="metadata1">
    <rdf:RDF>
      <cc:Work
         rdf:about="">
        <dc:title>logo</dc:title>
      </cc:Work>
    </rdf:RDF>
  </metadata>
</svg>
