<?xml version="1.0" encoding="UTF-8" standalone="no"?>
<!-- Created with "sPlan" (http://www.abacom-online.de) -->

<svg
   width="40.299999mm"
   height="40.299999mm"
   version="1.1"
   viewBox="0 0 403 403"
   id="svg9"
   xmlns="http://www.w3.org/2000/svg"
   xmlns:svg="http://www.w3.org/2000/svg"
   xmlns:rdf="http://www.w3.org/1999/02/22-rdf-syntax-ns#"
   xmlns:cc="http://creativecommons.org/ns#"
   xmlns:dc="http://purl.org/dc/elements/1.1/">
  <title
     id="title1">детский инженерный клуб</title>
  <defs
     id="defs1">
    <style
       type="text/css"
       id="style1"><![CDATA[
polyline {stroke-linecap:round; stroke-linejoin:round}
polygon {stroke-linecap:round; stroke-linejoin:round}
path {stroke-linecap:round; stroke-linejoin:round}
circle {stroke-linecap:round; stroke-linejoin:round}
]]></style>
  </defs>
  <circle
     cx="201.47"
     cy="201.03999"
     r="201"
     fill="#ffffff"
     stroke="#f9f9f9"
     id="circle1" />
  <polyline
     transform="translate(-39.999999,-39.5)"
     points="241.47 333.72 241.47 439.19"
     stroke="#9dceff"
     stroke-width="4"
     id="polyline1"
     style="fill:none" />
  <circle
     cx="201.47"
     cy="201.03999"
     r="185.42999"
     stroke="#0088ea"
     stroke-width="6"
     id="circle2"
     style="fill:none" />
  <g
     stroke="#9dceff"
     stroke-width="4"
     id="g5"
     style="fill:none"
     transform="translate(0.55000122)">
    <polyline
       transform="translate(-40,-39.5)"
       points="170.06 308.8 80.71 167.28"
       id="polyline2" />
    <polyline
       transform="translate(-40,-39.5)"
       points="287.83 352.72 399.09 167.28"
       id="polyline3" />
    <polyline
       transform="translate(-40,-39.5)"
       points="57.94 167.28 80.71 167.28"
       id="polyline4" />
    <polyline
       transform="translate(-40,-39.5)"
       points="399.09 167.28 423.9 167.28"
       id="polyline5" />
  </g>
  <polygon
     transform="translate(-36.529999,-39.5)"
     points="147,320 329,320 329,356 147,356 "
     fill="#9dceff"
     stroke="#9dceff"
     stroke-width="2"
     id="polygon6" />
  <polygon
     transform="translate(-40,-39.5)"
     points="168,274 141,291 176,319 "
     fill="#9dceff"
     stroke="#9dceff"
     id="polygon7" />
  <metadata
     id="metadata9">
    <rdf:RDF>
      <cc:Work
         rdf:about="">
        <dc:title>детский инженерный клуб</dc:title>
      </cc:Work>
    </rdf:RDF>
  </metadata>
  <g
     id="text9-8"
     style="font-size:77.1446px;font-family:Rubik;-inkscape-font-specification:'Rubik, Normal';text-align:center;letter-spacing:0px;text-anchor:middle;fill:#00274d;stroke:#00274d;stroke-width:1.52009"
     transform="scale(1.0137326,0.98645343)"
     aria-label="ДЕТСКИЙ&#10;ИНЖЕНЕРНЫЙ&#10;КЛУБ">
    <path
       style="font-stretch:condensed;font-family:Bahnschrift;-inkscape-font-specification:'Bahnschrift Condensed';stroke-width:1.52008"
       d="m 84.737774,135.01601 h 0.904039 q 2.486105,0 3.842162,-2.67445 1.393726,-2.71211 1.393726,-7.60899 V 87.026643 h 7.15697 V 125.4106 q 0,4.44486 -1.393726,7.64666 -1.356057,3.16413 -3.955167,4.82154 -2.59911,1.6574 -6.2906,1.6574 h -1.657404 z m -1.054711,0 h 7.15697 v 18.11843 h -7.15697 z m 0,0 h 31.452997 v 6.78029 H 83.683063 Z m 28.853887,0 h 7.15697 v 18.11843 h -7.15697 z m -5.4619,-47.989367 h 7.15697 V 141.7963 h -7.15697 z m -11.41348,0 h 14.20094 V 93.80693 H 95.66157 Z"
       id="path1" />
    <path
       style="font-stretch:condensed;font-family:Bahnschrift;-inkscape-font-specification:'Bahnschrift Condensed'"
       d="m 124.5908,87.026643 h 7.15697 V 141.7963 h -7.15697 z m 3.72915,47.989367 h 19.77584 v 6.78029 h -19.77584 z m 0,-23.80634 h 17.89243 v 6.78028 h -17.89243 z m 0,-24.183027 h 19.77584 v 6.780287 h -19.77584 z m 34.39113,4.482523 h 7.15697 V 141.7963 h -7.15697 z m -9.71841,-4.482523 h 26.59379 v 6.780287 h -26.59379 z m 43.09248,55.334677 q -3.99283,0 -6.85562,-1.6574 -2.86279,-1.65741 -4.36952,-4.78387 -1.50673,-3.16414 -1.50673,-7.57132 v -27.83685 q 0,-4.444855 1.50673,-7.57132 1.50673,-3.164134 4.33185,-4.821538 2.86279,-1.657403 6.89329,-1.657403 4.03051,0 6.8933,1.657403 2.86278,1.657404 4.33185,4.821538 1.50673,3.126465 1.50673,7.53365 v 2.33543 h -7.23231 v -2.33543 q 0,-2.222425 -0.64036,-3.804492 -0.64036,-1.582067 -1.88341,-2.410769 -1.24306,-0.828702 -2.9758,-0.828702 -1.73274,0 -2.97579,0.828702 -1.20538,0.828702 -1.88341,2.410769 -0.64036,1.582067 -0.64036,3.842162 v 27.83685 q 0,2.22242 0.64036,3.80449 0.67803,1.58207 1.88341,2.41077 1.24305,0.8287 2.97579,0.8287 1.73274,0 2.9758,-0.8287 1.24305,-0.8287 1.88341,-2.41077 0.64036,-1.58207 0.64036,-3.80449 v -2.33544 h 7.23231 v 2.33544 q 0,4.40718 -1.50673,7.57132 -1.46907,3.12646 -4.33185,4.78387 -2.86279,1.6574 -6.8933,1.6574 z m 31.18933,-30.36062 7.98567,-24.974057 h 7.38298 l -10.73546,31.189317 z m -0.41435,5.42423 6.36593,-3.69149 11.71483,28.06286 h -7.64666 z M 214.84395,87.026643 h 7.15697 V 141.7963 h -7.15697 z m 3.72916,24.183027 h 14.69062 v 6.78028 h -14.69062 z m 50.51314,30.54896 v -40.04137 l 0.90404,0.97938 -14.9543,39.06199 h -5.95158 V 87.026643 h 6.89329 v 40.305037 l -0.90404,-0.97937 15.02964,-39.325667 h 5.87625 v 54.731987 z m 34.42879,0 v -40.04137 l 0.90404,0.97938 -14.9543,39.06199 h -5.95159 V 87.026643 h 6.8933 v 40.305037 l -0.90404,-0.97937 15.02963,-39.325667 h 5.87625 v 54.731987 z m 3.50315,-70.138306 q 0,5.461898 -2.59911,8.475359 -2.59911,3.01346 -7.30764,3.01346 h -0.30135 q -4.70853,0 -7.30764,-3.01346 -2.59911,-3.013461 -2.59911,-8.475359 l 6.21526,0.07534 q 0,2.749783 0.94171,4.294182 0.97937,1.50673 2.74978,1.50673 h 0.30135 q 1.7704,0 2.71211,-1.50673 0.97938,-1.544399 0.97938,-4.294182 z"
       id="path2" />
    <path
       style="font-stretch:condensed;font-family:Bahnschrift;-inkscape-font-specification:'Bahnschrift Condensed'"
       d="m 44.771749,238.5686 v -40.04136 l 0.904038,0.97938 -14.9543,39.06198 h -5.951585 v -54.73198 h 6.893292 v 40.30504 l -0.904039,-0.97938 15.029637,-39.32566 h 5.876249 v 54.73198 z m 32.50771,-54.73198 h 7.156969 v 54.76965 h -7.156969 z m -18.080766,0 h 7.194638 v 54.76965 h -7.194638 z m 4.783869,24.40903 h 16.800045 v 6.78029 H 63.982562 Z m 57.406428,0.56503 9.11572,-24.97406 h 7.38298 l -11.8655,31.18932 z m -0.41435,5.42423 6.36594,-3.69149 12.84488,28.06285 h -7.64666 z m -20.30319,-3.69149 6.36594,3.69149 -11.56416,24.37136 h -7.646657 z m -10.547113,-26.7068 h 7.382979 l 9.115724,24.97406 -4.6332,6.21526 z m 10.509443,24.18302 h 26.74447 v 6.78029 h -26.74447 z m 9.79375,-24.18302 h 7.15697 v 54.76965 h -7.15697 z m 33.90144,0 h 7.15697 v 54.76965 h -7.15697 z m 3.72916,47.98936 h 19.77583 v 6.78029 h -19.77583 z m 0,-23.80634 h 17.89242 v 6.78029 h -17.89242 z m 0,-24.18302 h 19.77583 v 6.78029 h -19.77583 z m 43.50683,0 h 7.15697 v 54.76965 h -7.15697 z m -18.08076,0 h 7.19463 v 54.76965 h -7.19463 z m 4.78387,24.40903 h 16.80004 v 6.78029 h -16.80004 z m 27.98752,-24.40903 h 7.15697 v 54.76965 h -7.15697 z m 3.72916,47.98936 h 19.77583 v 6.78029 h -19.77583 z m 0,-23.80634 h 17.89242 v 6.78029 h -17.89242 z m 0,-24.18302 h 19.77583 v 6.78029 h -19.77583 z m 29.38125,26.74446 h 10.35877 q 1.46906,0 2.52378,-0.67802 1.09237,-0.67803 1.6574,-1.95875 0.56502,-1.28073 0.56502,-3.05113 v -8.40003 q 0,-1.84574 -0.56502,-3.16413 -0.56503,-1.31839 -1.6574,-1.99642 -1.05472,-0.71569 -2.52378,-0.71569 H 239.366 v -6.78029 h 10.2081 q 3.87983,0 6.59194,1.46906 2.74979,1.46906 4.18118,4.29418 1.4314,2.82512 1.4314,6.78029 v 8.70137 q 0,3.87983 -1.46907,6.62961 -1.43139,2.74978 -4.18117,4.21885 -2.71212,1.43139 -6.55428,1.43139 H 239.366 Z m -3.95517,-26.74446 h 7.15697 v 54.76965 h -7.15697 z m 52.17054,0 h 7.15696 v 54.76965 h -7.15696 z m -18.08077,0 h 7.19464 v 54.76965 h -7.19464 z m 4.78387,24.40903 h 16.80004 v 6.78029 h -16.80004 z m 31.94267,23.58033 h 9.56774 q 1.46907,0 2.52378,-0.67803 1.09238,-0.67802 1.6574,-1.95874 0.56502,-1.28073 0.56502,-3.05113 v -7.64666 q 0,-1.84575 -0.56502,-3.16414 -0.56502,-1.31838 -1.6574,-1.99641 -1.05471,-0.7157 -2.52378,-0.7157 h -9.56774 v -6.78029 h 9.2664 q 3.87983,0 6.59194,1.46907 2.74979,1.46906 4.18118,4.29418 1.43139,2.82512 1.43139,6.78028 v 7.94801 q 0,3.87983 -1.46906,6.62961 -1.43139,2.74978 -4.18118,4.21885 -2.71211,1.43139 -6.55427,1.43139 h -9.2664 z m -3.95516,-47.98936 h 7.15697 v 54.76965 h -7.15697 z m 36.08619,54.76965 h -7.15697 v -54.76965 h 7.15697 z m 27.46018,-0.0377 v -40.04136 l 0.90404,0.97938 -14.9543,39.06198 h -5.95159 v -54.73198 h 6.89329 v 40.30504 l -0.90403,-0.97938 15.02963,-39.32566 h 5.87625 v 54.73198 z m 3.50315,-70.1383 q 0,5.4619 -2.59911,8.47536 -2.59911,3.01346 -7.30765,3.01346 h -0.30134 q -4.70853,0 -7.30764,-3.01346 -2.59911,-3.01346 -2.59911,-8.47536 l 6.21526,0.0753 q 0,2.74978 0.94171,4.29418 0.97937,1.50673 2.74978,1.50673 h 0.30134 q 1.77041,0 2.71212,-1.50673 0.97937,-1.5444 0.97937,-4.29418 z"
       id="path3" />
    <path
       style="font-stretch:condensed;font-family:Bahnschrift;-inkscape-font-specification:'Bahnschrift Condensed'"
       d="m 148.45364,305.62065 7.98567,-24.97406 h 7.38298 l -10.73545,31.18932 z m -0.41435,5.42423 6.36593,-3.69149 11.71483,28.06286 h -7.64665 z m -12.01618,-30.39829 h 7.15697 v 54.76966 h -7.15697 z m 3.72916,24.18303 h 14.69062 v 6.78028 h -14.69062 z m 30.13461,23.88168 h 0.0753 q 1.28072,0 2.18475,-0.64036 0.94171,-0.67803 1.4314,-1.92109 0.48969,-1.28072 0.48969,-3.05113 v -42.45213 h 7.15697 v 42.90415 q 0,3.72916 -1.24306,6.40361 -1.24305,2.67444 -3.61615,4.06817 -2.33543,1.39373 -5.65024,1.39373 h -0.8287 z m 19.62516,-48.06471 h 7.15697 v 54.76966 h -7.15697 z m -10.66011,0 h 14.16326 v 6.78029 h -14.16326 z m 24.97405,0 h 7.60899 l 7.79733,41.09608 -4.59553,6.13992 z m 18.64579,45.31492 q -0.75337,3.35248 -2.2601,5.57491 -1.46906,2.22242 -3.76682,3.35247 -2.29777,1.09238 -5.42423,1.09238 h -3.35248 v -7.15697 h 3.35248 q 1.50673,0 2.67444,-0.64036 1.16772,-0.67803 1.95875,-1.95875 0.8287,-1.31839 1.20539,-3.23947 l 8.73903,-42.33913 h 7.23231 z m 17.51574,2.67445 h 10.50945 q 1.46906,0 2.52377,-0.67803 1.09238,-0.67803 1.6574,-1.95875 0.56503,-1.28072 0.56503,-3.05113 v -7.64666 q 0,-1.84574 -0.56503,-3.16413 -0.56502,-1.31839 -1.6574,-1.99642 -1.05471,-0.71569 -2.52377,-0.71569 h -10.50945 v -6.78029 h 10.2081 q 3.87983,0 6.59195,1.46906 2.74978,1.46906 4.18117,4.29418 1.4314,2.82512 1.4314,6.78029 v 7.948 q 0,3.87983 -1.46906,6.62962 -1.4314,2.74978 -4.18118,4.21884 -2.71212,1.4314 -6.55428,1.4314 h -10.2081 z m -3.95517,-47.98937 h 7.15697 v 54.76966 h -7.15697 z m 4.78387,0 h 18.34445 v 6.78029 h -18.34445 z"
       id="path4" />
  </g>
</svg>
